/* XPM */
static char *desktop[] = {
/* columns rows colors chars-per-pixel */
"22 22 245 2",
"   c #000000",
".  c #222222",
"X  c #361840",
"o  c #4E1F5D",
"O  c #4F1F5E",
"+  c #403741",
"@  c #453845",
"#  c #473A47",
"$  c #4F3754",
"%  c #58375B",
"&  c #5C345C",
"*  c #532061",
"=  c #532062",
"-  c #562164",
";  c #572164",
":  c #532664",
">  c #552767",
",  c #592166",
"<  c #592266",
"1  c #5A2267",
"2  c #5B2267",
"3  c #552868",
"4  c #572869",
"5  c #582869",
"6  c #5B296C",
"7  c #5A296E",
"8  c #5B2B6F",
"9  c #5D296C",
"0  c #5E2C73",
"q  c #5F2C74",
"w  c #643563",
"e  c #68316A",
"r  c #6D3F6E",
"t  c #632B71",
"y  c #6F2F7C",
"u  c #653A73",
"i  c #633078",
"p  c #6C307E",
"a  c #6C3C78",
"s  c #6D3C78",
"d  c #723974",
"f  c #703D7B",
"g  c #743E7E",
"h  c #753E7E",
"j  c #7C3C7E",
"k  c #464646",
"l  c #474747",
"z  c #4B464C",
"x  c #4F474F",
"c  c #585059",
"v  c #5A5A5A",
"b  c #5E5E5E",
"n  c #654A67",
"m  c #6A4377",
"M  c #71497E",
"N  c #754C7D",
"B  c #794B7A",
"V  c #765D7E",
"C  c #636364",
"Z  c #6B686B",
"A  c #786C78",
"S  c #747474",
"D  c #7C767C",
"F  c #D1A85F",
"G  c #D9B97D",
"H  c #713282",
"J  c #753183",
"K  c #743284",
"L  c #7C3386",
"P  c #7E3388",
"I  c #774180",
"U  c #794382",
"Y  c #7C4081",
"T  c #7B4583",
"R  c #7D4784",
"E  c #7E4785",
"W  c #764B81",
"Q  c #764C81",
"!  c #7F508A",
"~  c #80368E",
"^  c #82368E",
"/  c #85368F",
"(  c #863792",
")  c #8D3893",
"_  c #883E93",
"`  c #893895",
"'  c #8A3894",
"]  c #8B3895",
"[  c #8D3997",
"{  c #8E3C94",
"}  c #923A99",
"|  c #943B9D",
" . c #9B3DA2",
".. c #824C87",
"X. c #834A8E",
"o. c #805484",
"O. c #864591",
"+. c #8B5493",
"@. c #865D93",
"#. c #93519C",
"$. c #906791",
"%. c #926595",
"&. c #966898",
"*. c #9A6D99",
"=. c #947293",
"-. c #9E709D",
";. c #9C40A1",
":. c #9E42A2",
">. c #9F40A5",
",. c #9D45A4",
"<. c #984CA1",
"1. c #9F55A5",
"2. c #A142A7",
"3. c #A54DA4",
"4. c #A64CA5",
"5. c #A74FAC",
"6. c #A94AAC",
"7. c #A94CAC",
"8. c #AB4CAD",
"9. c #AC4DAE",
"0. c #A953A5",
"q. c #A857AD",
"w. c #B051AF",
"e. c #AE58B1",
"r. c #B757B5",
"t. c #B857B5",
"y. c #B35AB4",
"u. c #B659B5",
"i. c #BB5BB7",
"p. c #B85CB6",
"a. c #BC5BB8",
"s. c #BD5DB9",
"d. c #BE5EB8",
"f. c #9069A0",
"g. c #946DA3",
"h. c #9770A7",
"j. c #9F7BAE",
"k. c #AB63AD",
"l. c #A77BAD",
"z. c #B864B8",
"x. c #AB72B4",
"c. c #AC72B5",
"v. c #B175BA",
"b. c #B275BB",
"n. c #C05FBB",
"m. c #C261BC",
"M. c #C262BC",
"N. c #C564BE",
"B. c #C565BE",
"V. c #C96DBF",
"C. c #CA6FBF",
"Z. c #CA70BF",
"A. c #BB79C1",
"S. c #C07EC6",
"D. c #D07EC0",
"F. c #898989",
"G. c #8D8D8D",
"H. c #948795",
"J. c #918A93",
"K. c #939393",
"L. c #959595",
"P. c #969696",
"I. c #9F969F",
"U. c #9A9A9A",
"Y. c #9A9A9B",
"T. c #9F9F9F",
"R. c #A981A9",
"E. c #AD89AF",
"W. c #B58CAE",
"Q. c #B78AB0",
"!. c #BC91B4",
"~. c #BE91B5",
"^. c #BF92B5",
"/. c #BF93B5",
"(. c #B195BC",
"). c #A3A3A3",
"_. c #A5A5A5",
"`. c #A6A4A6",
"'. c #A7A4A7",
"]. c #A6A6A6",
"[. c #AAAAAA",
"{. c #AEAEAE",
"}. c #AFAFAF",
"|. c #B1B1B1",
" X c #B2B2B2",
".X c #B4B4B4",
"XX c #B9B9B9",
"oX c #BABABA",
"OX c #BDBDBD",
"+X c #BEBEBE",
"@X c #BFBFBF",
"#X c #C298BA",
"$X c #C684CA",
"%X c #C784CA",
"&X c #C58DCA",
"*X c #CD8ACD",
"=X c #CD8ACF",
"-X c #CD8BCF",
";X c #CA92CE",
":X c #CF97D1",
">X c #CD99D1",
",X c #D291D0",
"<X c #D491D3",
"1X c #D49BD4",
"2X c #D29ED4",
"3X c #D99AD5",
"4X c #D99BD5",
"5X c #C8ABCA",
"6X c #CEB1CA",
"7X c #D9A1D6",
"8X c #DAA7D7",
"9X c #DDA5D5",
"0X c #DEA5D5",
"qX c #DCACD9",
"wX c #C2C2C2",
"eX c #C3C3C3",
"rX c #C3C3C4",
"tX c #C4C4C4",
"yX c #C5C5C5",
"uX c #C7C7C7",
"iX c #C9C9C9",
"pX c #CACACA",
"aX c #CBCACB",
"sX c #CCCCCC",
"dX c #CECECE",
"fX c #CFCFCF",
"gX c #D3D3D3",
"hX c #D4D4D4",
"jX c #D7D7D7",
"kX c #D9D9D9",
"lX c #DBDBDB",
"zX c #DCDCDC",
"xX c #DEDEDE",
"cX c #E2E2E2",
"vX c #E3E3E3",
"bX c #E3E3E4",
"nX c #E4E4E4",
"mX c #E6E6E6",
"MX c #E7E7E7",
"NX c #E8E8E8",
"BX c #EAEAEA",
"VX c #ECECEC",
"CX c #EDEDED",
"ZX c #F2F2F2",
"AX c None",
/* pixels */
"AXAXAXAXAXAXAXAXAXAXAXAXAXAXAXAXAXAXAXAXAXAX",
"AXAXVXZXZXZXZXZXZXZXZXZXZXZXZXZXZXZXZXVXAXAX",
"AXNXrXL.L.L.L.L.L.L.L.L.L.L.L.L.L.L.L.rXMXAX",
"AXVXU.m u M M u u u u u u u u u u u m Y.VXAX",
"AXNXT.u f.(.(.g.g.g.g.6X/./././.!.W.u L.NXAX",
"AXNX`.u g.j.l.h.h.h.h.5X#X#X#X#X#XW.V uX|.. ",
"AXnX[.o 7 3 3 7 q 0 q @.R.-.*.*.=.I.`.L.v AX",
"AXvX|.o > G G 3 0 0 t i E.&.%.H.`.`.C l ].AX",
"AXxX.XO : F F 9 H H K K l.%.J.|.S + X _.zXAX",
"AXlXXXO 5 : 9 y P ~ ' ' o.D G.z $ N O oXzXAX",
"AXjX+XO 5 {.{.L  .| { n b @ % ..+...o @XjXAX",
"AXhXwXO t F.F.) ,.m Z # e k.q.1.#.X.o rXhXAX",
"AXfXpX* J ^ ) j A x w 3.w.z.e.5.<.O.* pXsXAX",
"AXsXsX; ( O.B c & 0.d.n.a.p.y.6.,._ - sXsXAX",
"AXuXhX2 / L d 4.i.N.V.V.N.a.u.6.>.' 2 gXpXAX",
"AXeXkX2 )  .8.p.M.V.D.D.Z.m.p.9.2.[ 2 kXeXAX",
"AX@XxXa b.S.$X=X<X4X9X9X4X<X-X%XS.b.a xX+XAX",
"AX@XvXa x.&X>X:X=X7XqX8X,X1X2X;XA.c.a bX@XAX",
"AXoXbXW f h I U E E E E R T T U h f Q nXoXAX",
"AXT.pXbXnXNXnXnXnXNXnXNXnXMXnXnXnXNXnXaXT.AX",
"AXl ).eXuXuXuXpXpXsXsXsXsXpXpXuXeXuXeX).l AX",
"AXAXAX                                AXAXAX"
};
