/* XPM */
static char *desktop[] = {
/* columns rows colors chars-per-pixel */
"24 24 247 2",
"   c #000000",
".  c #232323",
"X  c #361840",
"o  c #4E1F5D",
"O  c #4F1F5E",
"+  c #403741",
"@  c #453845",
"#  c #473A47",
"$  c #4F3754",
"%  c #59375B",
"&  c #5C345C",
"*  c #532061",
"=  c #532062",
"-  c #562164",
";  c #572164",
":  c #532664",
">  c #552767",
",  c #592166",
"<  c #592266",
"1  c #5A2267",
"2  c #5B2267",
"3  c #552868",
"4  c #572869",
"5  c #582869",
"6  c #5B296C",
"7  c #5A296E",
"8  c #5B2B6F",
"9  c #5D296C",
"0  c #5E2C73",
"q  c #5F2C74",
"w  c #643563",
"e  c #68316A",
"r  c #6C3F6E",
"t  c #632B71",
"y  c #6F2F7C",
"u  c #653A73",
"i  c #633078",
"p  c #6C307E",
"a  c #6C3C78",
"s  c #6D3C78",
"d  c #733A75",
"f  c #703D7B",
"g  c #743E7E",
"h  c #753E7E",
"j  c #7C3B7E",
"k  c #464646",
"l  c #474747",
"z  c #4B464C",
"x  c #4F474F",
"c  c #585058",
"v  c #5A5A5A",
"b  c #5E5E5E",
"n  c #654B67",
"m  c #6A4377",
"M  c #71497E",
"N  c #754D7D",
"B  c #784B7A",
"V  c #775E7F",
"C  c #636263",
"Z  c #6B686B",
"A  c #786C79",
"S  c #747474",
"D  c #7B757B",
"F  c #D1A85F",
"G  c #D9B97D",
"H  c #713282",
"J  c #753183",
"K  c #743284",
"L  c #7C3386",
"P  c #7B3F80",
"I  c #7E3388",
"U  c #774180",
"Y  c #794382",
"T  c #7B4583",
"R  c #7D4784",
"E  c #7E4785",
"W  c #764B81",
"Q  c #764C81",
"!  c #7F5484",
"~  c #7F508A",
"^  c #80368E",
"/  c #82368E",
"(  c #85368E",
")  c #863792",
"_  c #8D3893",
"`  c #883E93",
"'  c #883894",
"]  c #893895",
"[  c #8A3894",
"{  c #8B3995",
"}  c #8D3997",
"|  c #8F3C94",
" . c #923A99",
".. c #943B9D",
"X. c #9B3DA2",
"o. c #824C87",
"O. c #834A8E",
"+. c #864591",
"@. c #8B5493",
"#. c #865D93",
"$. c #93519C",
"%. c #906792",
"&. c #936595",
"*. c #966898",
"=. c #9A6D99",
"-. c #947293",
";. c #9E709D",
":. c #9D40A1",
">. c #9D42A2",
",. c #9F40A5",
"<. c #9D45A4",
"1. c #984CA1",
"2. c #9F55A5",
"3. c #A142A7",
"4. c #A54DA4",
"5. c #A64DA5",
"6. c #A74FAC",
"7. c #A94AAC",
"8. c #A94CAC",
"9. c #AB4CAD",
"0. c #AC4DAE",
"q. c #A952A6",
"w. c #A857AD",
"e. c #AE58B1",
"r. c #B151B0",
"t. c #B757B5",
"y. c #B857B5",
"u. c #B35AB4",
"i. c #B659B5",
"p. c #BB5BB7",
"a. c #B85CB6",
"s. c #BC5BB8",
"d. c #BD5DB9",
"f. c #BE5EB8",
"g. c #9069A0",
"h. c #946DA3",
"j. c #9770A7",
"k. c #9F7BAE",
"l. c #AA63AC",
"z. c #A77BAD",
"x. c #B864B8",
"c. c #AB72B4",
"v. c #AC72B5",
"b. c #B175BA",
"n. c #B275BB",
"m. c #C05FBB",
"M. c #C261BC",
"N. c #C262BC",
"B. c #C564BE",
"V. c #C565BE",
"C. c #C96DBF",
"Z. c #CA6FBF",
"A. c #CA70BF",
"S. c #BB79C1",
"D. c #C07EC6",
"F. c #D07EC0",
"G. c #898989",
"H. c #8E8D8E",
"J. c #948695",
"K. c #928B93",
"L. c #939393",
"P. c #959595",
"I. c #969696",
"U. c #9F969F",
"Y. c #9A9A9A",
"T. c #9A9A9B",
"R. c #9F9F9F",
"E. c #A981A9",
"W. c #AD89AF",
"Q. c #B58CAE",
"!. c #B78AB0",
"~. c #BC91B4",
"^. c #BE91B5",
"/. c #BF92B5",
"(. c #BF93B5",
"). c #B195BC",
"_. c #A3A3A3",
"`. c #A4A4A4",
"'. c #A5A5A5",
"]. c #A5A4A6",
"[. c #A6A4A6",
"{. c #A6A6A6",
"}. c #AAAAAA",
"|. c #AEAEAE",
" X c #AFAFAF",
".X c #B1B1B1",
"XX c #B2B2B2",
"oX c #B4B4B4",
"OX c #B9B9B9",
"+X c #BABABA",
"@X c #BDBDBD",
"#X c #BEBEBE",
"$X c #BFBFBF",
"%X c #C298BA",
"&X c #C684CA",
"*X c #C784CA",
"=X c #C58DCA",
"-X c #CD8ACD",
";X c #CD8ACF",
":X c #CD8BCF",
">X c #CA92CE",
",X c #CF97D1",
"<X c #CD99D1",
"1X c #D291D0",
"2X c #D491D3",
"3X c #D49BD4",
"4X c #D29ED4",
"5X c #D99AD5",
"6X c #D99BD5",
"7X c #C8ABCA",
"8X c #CEB1CA",
"9X c #D9A1D6",
"0X c #DAA7D7",
"qX c #DDA5D5",
"wX c #DEA5D5",
"eX c #DCACD9",
"rX c #C2C2C2",
"tX c #C3C3C3",
"yX c #C3C3C4",
"uX c #C4C4C4",
"iX c #C5C5C5",
"pX c #C7C7C7",
"aX c #C9C9C9",
"sX c #CACACA",
"dX c #CBCACB",
"fX c #CCCCCC",
"gX c #CECECE",
"hX c #CFCFCF",
"jX c #D3D3D3",
"kX c #D4D4D4",
"lX c #D7D7D7",
"zX c #D9D9D9",
"xX c #DBDBDB",
"cX c #DCDCDC",
"vX c #DEDEDE",
"bX c #E2E2E2",
"nX c #E3E3E3",
"mX c #E3E3E4",
"MX c #E4E4E4",
"NX c #E6E6E6",
"BX c #E7E7E7",
"VX c #E8E8E8",
"CX c #EAEAEA",
"ZX c #ECECEC",
"AX c #EDEDED",
"SX c #F2F2F2",
"DX c None",
/* pixels */
"DXDXDXDXDXDXDXDXDXDXDXDXDXDXDXDXDXDXDXDXDXDXDXDX",
"DXDXDXDXDXDXDXDXDXDXDXDXDXDXDXDXDXDXDXDXDXDXDXDX",
"DXDXDXZXSXSXSXSXSXSXSXSXSXSXSXSXSXSXSXSXZXDXDXDX",
"DXDXBXyXL.I.L.L.I.I.I.L.L.I.I.I.P.P.P.P.yXBXDXDX",
"DXDXZXT.m u M M u u u u u u u u u u u m T.ZXDXDX",
"DXDXVXR.u g.).).h.h.h.h.8X(.(.(.(.~.!.u I.VXDXDX",
"DXDXVX_.u h.z.k.j.j.j.j.7X%X%X%X%X%XQ.V aXXX. DX",
"DXDXBX}.O 8 3 3 0 q q q #.E.;.;.=.-.U.].L.v DXDX",
"DXDXbX|.* > G G : 0 q q i W.*.%.J.].'.C l '.DXDX",
"DXDXvXoXo > F F 8 p K K K z.&.K.XXS + X '.cXDXDX",
"DXDXxXOXo 5 : 9 y I ) ) ) ! D H.z $ N o OXcXDXDX",
"DXDXlX@Xo 5 |.|.L ..X.| n b @ % o.@.~ o #XlXDXDX",
"DXDXkXuXo t G.G._ ,.r Z # e l.w.2.1.O.o yXkXDXDX",
"DXDXhXaX* J L _ j A x w 5.r.x.e.q.1.+.= aXhXDXDX",
"DXDXfXgX; (  .B c & q.m.m.y.a.u.8.<.{ ; gXgXDXDX",
"DXDXpXjX, ( j d 4.m.m.C.B.D.d.a.8.>.' < jXiXDXDX",
"DXDXrXlX: { >.9.t.M.Z.F.F.A.M.a.9.3.} 2 zXyXDXDX",
"DXDX8XvXm b.&X&X;X1X5XqXqX5X1X;X*XD.n.s vX$XDXDX",
"DXDX@XbXa v.=X<X<X-X9XeX0X1X3X4X>XS.v.s mX@XDXDX",
"DXDX+XMXW d f M T T R R E E T T P g s Q mX+XDXDX",
"DXDXR.fXmXNXNXNXBXBXBXBXBXBXBXBXBXBXBXmXdXR.DXDX",
"DXDXl '.8XtXtXpXsXsXsXgXfXfXsXsXiXiXyXrX_.l DXDX",
"DXDXDXDX                                DXDXDXDX",
"DXDXDXDXDXDXDXDXDXDXDXDXDXDXDXDXDXDXDXDXDXDXDXDX"
};
