/* XPM */
static char *desktop[] = {
/* columns rows colors chars-per-pixel */
"32 32 212 2",
"   c #000000",
".  c #171717",
"X  c #181718",
"o  c #191819",
"O  c #341C33",
"+  c #381D37",
"@  c #2C222C",
"#  c #2D2B2D",
"$  c #352236",
"%  c #332F33",
"&  c #382738",
"*  c #313131",
"=  c #3E373E",
"-  c #3A3A3A",
";  c #4C244B",
":  c #453C45",
">  c #522B54",
",  c #5C2D5A",
"<  c #4F3C52",
"1  c #543B54",
"2  c #60305D",
"3  c #56296A",
"4  c #5B2D6B",
"5  c #5E2C73",
"6  c #6B356A",
"7  c #653D6F",
"8  c #6C396D",
"9  c #71396E",
"0  c #622D74",
"q  c #662E79",
"w  c #6A2E79",
"e  c #613076",
"r  c #6D307E",
"t  c #6A3F79",
"y  c #773677",
"u  c #773C73",
"i  c #793A76",
"p  c #72307F",
"a  c #743E7E",
"s  c #7C3C7A",
"d  c #4B474B",
"f  c #4D4C4D",
"g  c #514E52",
"h  c #584858",
"j  c #545454",
"k  c #5C5C5C",
"l  c #674351",
"z  c #6F4259",
"x  c #724C5F",
"c  c #74515E",
"v  c #65476B",
"b  c #674173",
"n  c #694170",
"m  c #744477",
"M  c #724D76",
"N  c #73427C",
"B  c #7B477C",
"V  c #6F5270",
"C  c #646464",
"Z  c #6B6B6B",
"A  c #6F6C71",
"S  c #797979",
"D  c #803D7D",
"F  c #83427F",
"G  c #9A7A75",
"H  c #BA924F",
"J  c #AE8E78",
"K  c #D1AE6D",
"L  c #D3AF70",
"P  c #733283",
"I  c #793285",
"U  c #7B3D81",
"Y  c #7E358B",
"T  c #734484",
"R  c #7A4B80",
"E  c #7F5C86",
"W  c #843D83",
"Q  c #84358D",
"!  c #833F8B",
"~  c #853791",
"^  c #8B3792",
"/  c #8B3995",
"(  c #8E3A99",
")  c #943C9C",
"_  c #9B3EA2",
"`  c #8F428E",
"'  c #874C8E",
"]  c #8A4A8C",
"[  c #944B8F",
"{  c #8E4295",
"}  c #844C92",
"|  c #8C4A91",
" . c #934495",
".. c #904896",
"X. c #984A95",
"o. c #92409A",
"O. c #9D479E",
"+. c #865490",
"@. c #935397",
"#. c #93559A",
"$. c #9E549E",
"%. c #985F9E",
"&. c #816F82",
"*. c #827C84",
"=. c #8C6393",
"-. c #8E6A94",
";. c #8F6998",
":. c #906597",
">. c #92629A",
",. c #9D649C",
"<. c #916C9A",
"1. c #9F689E",
"2. c #8C7C91",
"3. c #907695",
"4. c #9D709E",
"5. c #A16A9F",
"6. c #9F40A5",
"7. c #9D48A0",
"8. c #9F54A2",
"9. c #A142A7",
"0. c #A348A5",
"q. c #A546A9",
"w. c #A64BAB",
"e. c #AA4BAC",
"r. c #A254A4",
"t. c #A952A7",
"y. c #AB5AA3",
"u. c #A752AA",
"i. c #AD52AF",
"p. c #A15EA8",
"a. c #B355B2",
"s. c #B45BB5",
"d. c #B95AB6",
"f. c #BC5CB8",
"g. c #9B61A1",
"h. c #9B68A2",
"j. c #9C73A4",
"k. c #9E76A8",
"l. c #A46EA1",
"z. c #A161A8",
"x. c #A861AA",
"c. c #A46EA9",
"v. c #A276A4",
"b. c #AB74A6",
"n. c #A37AA6",
"m. c #AE7BA7",
"M. c #A27BAB",
"N. c #B07EA7",
"B. c #AE64B1",
"V. c #BE66B6",
"C. c #BC62BA",
"Z. c #BA6DBC",
"A. c #AF70B0",
"S. c #BF71BF",
"D. c #C05FBB",
"F. c #C463BD",
"G. c #C769BE",
"H. c #C86BBF",
"J. c #CC74BF",
"K. c #C375C2",
"L. c #C57FC4",
"P. c #CC7CC4",
"I. c #868686",
"U. c #8B8B8B",
"Y. c #97809A",
"T. c #969696",
"R. c #9C9C9C",
"E. c #A680A7",
"W. c #A681A9",
"Q. c #AF8DAF",
"!. c #A099A1",
"~. c #A783B0",
"^. c #AD8BB5",
"/. c #BC94B9",
"(. c #BE9DBE",
"). c #A5A5A5",
"_. c #ABA4AD",
"`. c #AAAAAA",
"'. c #ADA6B0",
"]. c #B2ABB4",
"[. c #B6ACB9",
"{. c #BAAEBC",
"}. c #B4B3B5",
"|. c #BBB2BC",
" X c #B9B9B9",
".X c #BFB2C0",
"XX c #C885C7",
"oX c #CD87C9",
"OX c #D180C0",
"+X c #D182CA",
"@X c #D38ACC",
"#X c #D790CC",
"$X c #DA97CD",
"%X c #DD9ECD",
"&X c #D793D0",
"*X c #DA96D1",
"=X c #D59DD2",
"-X c #DA9ED4",
";X c #C2B5C3",
":X c #C8BCC9",
">X c #DFA6D9",
",X c #E1A6D4",
"<X c #E1ACDA",
"1X c #E6B5DB",
"2X c #C3C3C3",
"3X c #CDC3CD",
"4X c #CCCCCC",
"5X c #D4D4D4",
"6X c #DADADA",
"7X c #E3E3E3",
"8X c #EBEBEB",
"9X c None",
/* pixels */
"9X9X9X9X9X9X9X9X9X9X9X9X9X9X9X9X9X9X9X9X9X9X9X9X9X9X9X9X9X9X9X9X",
"9X9X9X9X9X9X9X9X9X9X9X9X9X9X9X9X9X9X9X9X9X9X9X9X9X9X9X9X9X9X9X9X",
"9X9X9X6X8X7X8X8X8X8X8X8X8X8X7X8X8X8X8X8X8X8X8X8X8X8X8X8X7X9X9X9X",
"9X9X5X7X7X7X7X7X7X7X7X7X7X7X7X8X8X8X8X8X8X8X8X8X8X8X8X8X8X7X9X9X",
"9X9X7X7X4X]._._.'.'._._._._._.'.]._._._._._._._._._.].5X8X8X9X9X",
"9X9X7X7X].E ;.W.;.;.;.;.;.;.;.;.Q.W.W.W.E.W.E.W.W.E.-.}.8X8X9X9X",
"9X9X7X6X'.;.k.^.k.~.~.~.M.~.k.j.(./././././././././.E._.7X7X9X9X",
"9X9X7X6X_.b T T T T T T T T T T <.n.n.n.n.v.v.v.n.v.=.!. X2XR.f ",
"9X9X7X6X!.5 5 5 5 5 5 5 5 5 5 5 e j.:.:.:.>.;.<.-.=.2. X4X2X`.9X",
"9X9X6X5X_.3 4 J G 4 5 0 5 5 q q e >.>.:.=.=.=.+.3.}.}.2XR.Z # 9X",
"9X9X6X6X'.3 x K K x q r P P P P P } h.>.>.%.=.). X2X_.S k `.9X9X",
"9X9X6X5X_.3 l H H z P I Y Y Y Y Q Y c.g.%.Y. X X}.I.g A 6X6X9X9X",
"9X9X5X5X'.4 0 0 0 P Y ~ ~ / ~ / / / 8.z.&. X2XT.k 1 b !.6X6X9X9X",
"9X9X5X5X'.0 7 *.*.m / ( ( _ _ _ _ ) { # k `.Z 1 R +.T ].6X6X9X9X",
"9X9X5X5X[.r v 6X XM ) _ _ _ 9.9.6.> # . . * m #.$.#.T _.4X5X9X9X",
"9X9X5X4X[.p v  X`.B _ q.q.q.e.U : - . $ ] r.r.#.' ' a _.4X5X9X9X",
"9X9X4X4X[.I ^ Q ) ) q.e.e.O.1 - * & y 7.B.8.] | | | T _.4X5X9X9X",
"9X9X4X4X{.Q ) 6.9.q.e.e.8 d * # 8 ..` W ] ] | ....{ Y [.4X5X9X9X",
"9X9X4X4X{.Q _ 9.q.e.X.h - @ ; i i i s W ] $.r.r.u.u.{ |.4X5X9X9X",
"9X9X4X2X;X^ 6.q.e.F f # O 2 9 9 F X.t.a.s.C.s.s.i.u. ..X4X4X9X9X",
"9X9X4X3X;X^ 9.q.V = O , D [ y.F.H.H.F.F.f.C.s.a.i.e.o.;X4X4X9X9X",
"9X9X4X2X;X) q.q.D X.t.D.F.H.J.J.J.J.H.F.D.f.s.a.i.e.o.;X2X4X9X9X",
"9X9X2X2X;X) q.e.a.f.f.D.H.J.P.OXOXJ.J.H.F.f.d.a.i.w.) ;X2X2X9X9X",
"9X9X2X X:Xp.Z.K.K.P.P.P.@X#X$X%X%X$X$X@X+XP.P.K.S.Z.x.:X2X2X9X9X",
"9X9X2X X3XA.XX=X-X-X#X,X<X<X,X1X1X<X-X*X&X@X@XoXXXL.A.3X X2X9X9X",
"9X9X2X X5X4.,.5.5.v.v.b.b.m.m.m.N.N.N.b.b.v.l.5.1.,.1.5X X2X9X9X",
"9X9X2X X2X5X5X5X5X5X5X5X5X5X5X5X5X5X5X5X5X5X5X5X5X5X5X2X X2X9X9X",
"9X9XT. X}. X X X X X X X X X X X X X X X X X X X X}. X X XT.9X9X",
"9X9Xj U.).).).).).).`.).`.`.`.`.`.`.`.`.).`.).`.).).).).U.j 9X9X",
"9X9X* j k C k C C Z Z Z Z Z A A A Z Z Z Z Z C C C C C k g * 9X9X",
"9X9X9X9X                                                9X9X9X9X",
"9X9X9X9X9X9X9X9X9X9X9X9X9X9X9X9X9X9X9X9X9X9X9X9X9X9X9X9X9X9X9X9X"
};
