/* XPM */
static char *desktop[] = {
/* columns rows colors chars-per-pixel */
"48 48 249 2",
"   c #000000",
".  c #0A0A0A",
"X  c #141314",
"o  c #1C131D",
"O  c #1C1C1C",
"+  c #271E27",
"@  c #291B28",
"#  c #321D32",
"$  c #3C1E3B",
"%  c #242424",
"&  c #2C262C",
"*  c #2B2A2B",
"=  c #322335",
"-  c #3F233E",
";  c #333333",
":  c #3B323B",
">  c #3C3C3C",
",  c #412041",
"<  c #452F47",
"1  c #4D2B4D",
"2  c #473547",
"3  c #443A44",
"4  c #4E344E",
"5  c #453948",
"6  c #442054",
"7  c #4D2259",
"8  c #512750",
"9  c #552C56",
"0  c #53245D",
"q  c #5C2D5A",
"w  c #513753",
"e  c #60305E",
"r  c #532664",
"t  c #592663",
"y  c #552868",
"u  c #5B2A6D",
"i  c #5C3C60",
"p  c #5E2C73",
"a  c #642A6C",
"s  c #653163",
"d  c #603A61",
"f  c #6C3569",
"g  c #6B3C6D",
"h  c #71376E",
"j  c #70386D",
"k  c #632C73",
"l  c #6B2C73",
"z  c #662E79",
"x  c #692F7A",
"c  c #722D76",
"v  c #6C307E",
"b  c #743A72",
"n  c #793B76",
"m  c #74317F",
"M  c #7D3C7B",
"N  c #444344",
"B  c #4C4C4C",
"V  c #504250",
"C  c #535353",
"Z  c #595559",
"A  c #5D5D5D",
"S  c #6C596C",
"D  c #6A4670",
"F  c #6C4976",
"G  c #764676",
"H  c #6E5076",
"J  c #705177",
"K  c #705278",
"L  c #785B7E",
"P  c #646464",
"I  c #6D6D6D",
"U  c #747474",
"Y  c #7A7A7A",
"T  c #813E7F",
"R  c #A87F44",
"E  c #81427D",
"W  c #8C6A69",
"Q  c #9C7A66",
"!  c #B58D4B",
"~  c #B2926F",
"^  c #C19B54",
"/  c #C5A46E",
"(  c #CEA96A",
")  c #D6B477",
"_  c #D2B279",
"`  c #6F3180",
"'  c #733283",
"]  c #793386",
"[  c #7D358B",
"{  c #7E3C8C",
"}  c #724483",
"|  c #7C4C87",
" . c #843D83",
".. c #81358D",
"X. c #88368F",
"o. c #843791",
"O. c #893790",
"+. c #873893",
"@. c #893895",
"#. c #8F3A98",
"$. c #933B9C",
"%. c #9A3E9F",
"&. c #973CA0",
"*. c #9B3DA2",
"=. c #814281",
"-. c #894286",
";. c #84478C",
":. c #884488",
">. c #854B8B",
",. c #8B4B8D",
"<. c #84548E",
"1. c #8B528F",
"2. c #8D5B8E",
"3. c #8F4193",
"4. c #8D4A91",
"5. c #924493",
"6. c #934A93",
"7. c #984B93",
"8. c #9A459B",
"9. c #944B9B",
"0. c #9C4A9D",
"q. c #875391",
"w. c #8A5392",
"e. c #905395",
"r. c #925F90",
"t. c #94549A",
"y. c #9A549D",
"u. c #93589B",
"i. c #9A589B",
"p. c #8E6396",
"a. c #8E6B94",
"s. c #8F6098",
"d. c #936496",
"f. c #996696",
"g. c #9C6997",
"h. c #93659A",
"j. c #98659F",
"k. c #946C9E",
"l. c #9D6C99",
"z. c #937897",
"x. c #A17299",
"c. c #9E42A4",
"v. c #9A4AA1",
"b. c #9C56A1",
"n. c #9B58A4",
"m. c #A141A6",
"M. c #A34BA3",
"N. c #A445A9",
"B. c #A74AAB",
"V. c #AB4BAD",
"C. c #A155A5",
"Z. c #A854A2",
"A. c #A958A1",
"S. c #A552AB",
"D. c #AB52AE",
"F. c #A758AA",
"G. c #B058A9",
"H. c #AE52B0",
"J. c #AF58B2",
"K. c #B354B2",
"L. c #B45BB4",
"P. c #B95AB7",
"I. c #BD5DB9",
"U. c #9B62A2",
"Y. c #966FA0",
"T. c #9770A1",
"R. c #9A71A4",
"E. c #A061A5",
"W. c #A669AB",
"Q. c #A770AD",
"!. c #A178A8",
"~. c #A878AE",
"^. c #B361B4",
"/. c #B962B5",
"(. c #B569B6",
"). c #BC64BB",
"_. c #B173B3",
"`. c #BC7ABC",
"'. c #C05FBB",
"]. c #C463BD",
"[. c #C769BE",
"{. c #C96DBF",
"}. c #CB73BF",
"|. c #C17FBF",
" X c #CE78BF",
".X c #C57FC4",
"XX c #CF7CC0",
"oX c #D17EC0",
"OX c #828282",
"+X c #8C828D",
"@X c #8C8C8C",
"#X c #8F8593",
"$X c #99859D",
"%X c #939393",
"&X c #9B939C",
"*X c #9E9E9E",
"=X c #A783AC",
"-X c #AD88AB",
";X c #A192A4",
":X c #A29CA2",
">X c #A89FAA",
",X c #AC89B4",
"<X c #B48EB4",
"1X c #B791B5",
"2X c #B292BA",
"3X c #BC95B9",
"4X c #A4A4A4",
"5X c #ACA4AD",
"6X c #ACACAC",
"7X c #B1AFB1",
"8X c #B3B3B3",
"9X c #B8B5B9",
"0X c #BABABA",
"qX c #BDA2C3",
"wX c #C682C4",
"eX c #CA85C6",
"rX c #C689C4",
"tX c #CB8BC7",
"yX c #CC87C9",
"uX c #CE8ACA",
"iX c #D384C0",
"pX c #D28CCC",
"aX c #C29FC0",
"sX c #D493CC",
"dX c #D69BCD",
"fX c #D89FCE",
"gX c #D690D0",
"hX c #D994D1",
"jX c #D29BD2",
"kX c #DC9BD2",
"lX c #C4A6C3",
"zX c #D9A3CE",
"xX c #CABBCB",
"cX c #D6A0D4",
"vX c #DCA2D4",
"bX c #DEA7D9",
"nX c #E1A5D2",
"mX c #E2A9D3",
"MX c #E2ACDC",
"NX c #E4B3DB",
"BX c #E7B9DC",
"VX c #E8BBDC",
"CX c #C4C4C4",
"ZX c #CBCBCB",
"AX c #D3D3D3",
"SX c #DBDBDB",
"DX c #E3E3E3",
"FX c #ECECEC",
"GX c None",
/* pixels */
"GXGXGXGXGXGXGXGXGXGXGXGXGXGXGXGXGXGXGXGXGXGXGXGXGXGXGXGXGXGXGXGXGXGXGXGXGXGXGXGXGXGXGXGXGXGXGXGX",
"GXGXGXGXGXGXGXGXGXGXGXGXGXGXGXGXGXGXGXGXGXGXGXGXGXGXGXGXGXGXGXGXGXGXGXGXGXGXGXGXGXGXGXGXGXGXGXGX",
"GXGXGXGXGXGXGXGXGXGXGXGXGXGXGXGXGXGXGXGXGXGXGXGXGXGXGXGXGXGXGXGXGXGXGXGXGXGXGXGXGXGXGXGXGXGXGXGX",
"GXGXGXGXCXSXFXFXFXFXFXFXFXFXFXFXFXFXFXFXFXFXFXFXFXFXFXFXFXFXFXFXFXFXFXFXFXFXFXFXFXFXSXZXGXGXGXGX",
"GXGXGX9XDXDXDXDXDXDXDXDXDXDXDXDXDXDXDXDXDXDXDXFXFXFXFXFXFXFXFXFXFXFXFXFXFXFXFXFXFXFXFXFX9XGXGXGX",
"GXGXGXAXDXDXDXDXDXDXDXDXDXDXDXDXDXDXDXDXDXDXDXFXFXFXFXFXFXFXFXFXFXFXFXFXFXFXFXFXFXFXFXFXSXGXGXGX",
"GXGXGXFXDXDXSXCX6X6X6X6X6X6X6X6X6X6X6X6X6X6X6X6X8X6X6X6X6X6X8X6X6X6X6X6X8X6X6X7XZXDXFXFXDXGXGXGX",
"GXGXGXDXDXDX0X5XL H K H K H H H H J J J H J J J J K J J J J K K J J J K K K J L 5XZXFXFXDXGXGXGX",
"GXGXGXDXSXDX7XL a.k.qXqXY.R.T.Y.R.Y.R.Y.Y.Y.Y.R.lX1X1X1X1X1X1X1X1X1X1X1X1X1X1X-XL 7XFXFXDXGXGXGX",
"GXGXGXDXDXSX7XH k.T.qXqXR.,X2X2X,X,X,X,X,X,XR.R.lX3X3X3X3X3X3X3X3X3X3X3X3X3X1X1XJ 6XFXDXDXGXGXGX",
"GXGXGXDXSXSX8XH k.R.R.R.R.R.R.R.R.R.R.R.R.R.R.R.<XaX3X3X1X3X3X3X3X3X3X3X3X3X3X1XH 8XDXZXAXGXGXGX",
"GXGXGXDXSXSX8X6 u p p p p p p p p p p p p p p p p =Xh.h.k.k.d.k.h.h.h.k.h.h.a.p.6 6X0XAX0XFX> ; ",
"GXGXGXDXSXSX8X6 u p p p p p p p p p p p p p p p p z.h.h.d.d.d.h.p.a.p.h.d.p.p.a.#XZXSXZXAX0X4XGX",
"GXGXGXDXAXSX9X6 u p y r y p p p p p p p p p p p p } R.h.p.p.p.p.p.p.p.p.p.p.$XCX7X4XSX9X%XI @XGX",
"GXGXGXSXSXAX0X6 u u Q / ~ W u p p p p z x z x x x x R.h.h.s.p.p.p.p.2.p.z.0X0X*XSXCX*XU B % GXGX",
"GXGXGXDXAXSX0X6 u r _ _ _ _ r z z ` ` ` ` ` ` ` ` ` h.U.h.h.u.h.u.p.a.5XCX*XCXCX4XY A C 8XGXGXGX",
"GXGXGXSXSXAX0X6 p y ( ! ^ ( u x ` ` ' ' ] ] ] [ [ ] { ~.U.U.j.h.h.;XCX6X7XAX7X@XP B @XSXSXGXGXGX",
"GXGXGXSXAXSX0X6 u y R ! ! R k ' ' [ [ [ [ [ [ [ [ [ [ Q.U.n.n.h.9X8X4XSX0X%XI B = 6XSXSXSXGXGXGX",
"GXGXGXSXAXAX0X6 p p u u k l ' [ [ [ { +.@.@.@.#.#.@.@.n.W.U.Y.:X4XAXCX*XY B 5 F 6 8XSXSXSXGXGXGX",
"GXGXGXSXAXAXxX6 k z a a k l ] o.@.@.#.#.#.#.#.&.$.$.#.$._.| A SXZX6XOXA 3 D <.| 6 0XSXSXSXGXGXGX",
"GXGXGXSXZXAXCX7 x k 5X%X%X4Xm O.#.$.*.*.&.*.*.*.c.&.c.#.1 X N @X@XP N i q.q.q.q.7 CXSXSXSXGXGXGX",
"GXGXGXAXAXAXCX0 x x CXZX0X8X .$.&.*.*.*.*.*.*.m.c.c.a & * X . ; B w ,.e.u.u.u.4.7 0XZXAXAXGXGXGX",
"GXGXGXSXAXZXCXr ' l CXCX0X7X..%.*.*.*.*.N.N.N.N.3.5 > O & . o g w.t.t.b.t.w.q.| 7 0XZXAXAXGXGXGX",
"GXGXGXAXZXZXZXt ] m &X:X*Xz.X.m.c.N.V.V.V.N.N.i N > ; X o g b.n.F.D.n.4.4.;.;.| 0 0XZXAXAXGXGXGX",
"GXGXGXAXZXZXZXt ....] ....X.*.N.N.V.V.V.V.=.: N > * & 9 5.8.(.^.F.6.,.4.,.4.4.;.0 0XZXZXAXGXGXGX",
"GXGXGXAXZXZXZXa ..$.%.*.m.c.N.N.V.V.V.0.4 N > O & 1 5.0.M.8.i.,.,.,.,.5.4.4.4.;.t CXZXZXAXGXGXGX",
"GXGXGXZXZXZXZXa O.$.*.c.m.N.V.V.V.V.j N > * & - :.5.5.-.T T :.,.,.4.4.4.3.4.9.4.a ZXAXAXAXGXGXGX",
"GXGXGXAXZXZXZXa @.*.c.m.N.N.V.V.5.V N ; O # f T n n M ] T  . .1.7.y.9.y.C.D.S.9.a ZXZXZXAXGXGXGX",
"GXGXGXAXCXCXAXk $.*.m.N.N.V.V.G Z > & @ 8 s j b n M M T  .7.M./.).L.L.J.D.D.B.v.l AXZXZXAXGXGXGX",
"GXGXGXZXCXZXAXl $.*.N.N.V.0.S B ; % $ e f f h G E 7.Z.P.'.I.P.P.(.P.L.J.J.H.S.v.l AXZXZXZXGXGXGX",
"GXGXGXZXCXCXAXl %.m.N.V.7.Z > & $ q e f E 7.A./.[.[.'.].].'.I.P.).P.L.L.D.D.V.v.c AXZXZXZXGXGXGX",
"GXGXGXZXCXCXAXl %.m.N.5.3 = , s E 7.G.].[.{.}.{.}.{.XX[.].].I.I.).P.L.K.D.V.B.v.c AXCXCXZXGXGXGX",
"GXGXGXZXCXCXSXl %.N.N.V.M.V.K.I.I.].[.'.XXXXXXXXXX}.{.XX[.].].'.I.P.P.K.V.V.B.c.c SXCXCXZXGXGXGX",
"GXGXGXZXCXCXSXl %.N.V.V.K.K.P.I.'.].[.XX].XXoXoXXXXX}.{.{.[.].'.I.P.K.K.K.V.B.c.l SXCXCXZXGXGXGX",
"GXGXGXZXCX0XSXc %.N.V.V.K.K.K.'.].].[.}.XXXXoXiXiXoXoX}.{.{.].].I.P.K.K.V.V.N.%.c SXCXCXZXGXGXGX",
"GXGXGXCXCX0XSX1.`.|.wXeXyXyXpXpXgXsXhXkXhXkXnXnXmXnXnXkXkXdXgXgXpXpXpXyXeXwX|.`.2.SX0XCXCXGXGXGX",
"GXGXGXCX0XCXSX2.`..XdXcXkXvXvXpXbXMXMXNXNXvXVXVXVXVXNXkXkXhXhXgXpXuXpXeXeX.XwX`.2.DX0X0XCXGXGXGX",
"GXGXGXCX0X0XDXd._.`.rXrXtXuXtXyXsXsXsXdXdXdXzXzXzXzXfXsXsXpXtXiXyXwXwX|.|.|.`.(.d.SXCXCXCXGXGXGX",
"GXGXGXCXCX0XAXxXd.2.2.r.d.d.f.d.g.g.g.g.l.x.x.x.x.x.x.l.l.l.g.f.f.f.d.r.r.r.r.d.xXAX0X0XCXGXGXGX",
"GXGXGXCX0X0XCXAXDXDXDXDXDXDXDXDXDXDXDXDXDXDXDXDXDXDXDXDXDXDXDXDXDXDXDXDXDXDXDXDXSX0X0X0XCXGXGXGX",
"GXGXGX6X8X0X0X0X0X0X0X0X0X0X0X0X0X0X0X0X0X0X0X0X0X0X0X0X0X0X0X0X0X0X0X0X0X0X0X0X0X8X0X0X6XGXGXGX",
"GXGXGXY 0X0X0X8X9X0X8X0X0X8X8X0X0X0X8X0X0X8X8X0X0X0X8X0X8X0X8X9X0X8X0X8X0X0X8X8X0X0X0X0XY GXGXGX",
"GXGXGXB OX8XCXCXCXCXCXCXCXCXCXCXCXCXCXCXCXZXCXZXCXCXCXCXZXCXCXZXCXCXCXCXCXCXCXCXCXCX6XY B GXGXGX",
"GXGXGX> C A P I I I I U U U U Y U Y Y Y Y Y Y Y Y Y Y Y Y Y U U U Y U U U I U I I P A C > GXGXGX",
"GXGXGX. > B C Z A A A A A A P P P P P P P P P I I P P P P P P P A P A A A A A A Z C B > . GXGXGX",
"GXGXGXGXGX                                                                            GXGXGXGXGX",
"GXGXGXGXGXGXGXGXGXGXGXGXGXGXGXGXGXGXGXGXGXGXGXGXGXGXGXGXGXGXGXGXGXGXGXGXGXGXGXGXGXGXGXGXGXGXGXGX",
"GXGXGXGXGXGXGXGXGXGXGXGXGXGXGXGXGXGXGXGXGXGXGXGXGXGXGXGXGXGXGXGXGXGXGXGXGXGXGXGXGXGXGXGXGXGXGXGX"
};
