<svg width="16" height="16" version="1.1" xmlns="http://www.w3.org/2000/svg">
	<path d="m3 1c-1.108 0-2 0.892-2 2v10c0 1.108 0.892 2 2 2h10c1.108 0 2-0.892 2-2v-10c0-1.108-0.892-2-2-2zm1 1h8c0.554 0 1 0.446 1 1v8c0 0.554-0.446 1-1 1h-8c-0.554 0-1-0.446-1-1v-8c0-0.554 0.446-1 1-1zm4 2v1h2v-1zm-1 2v1h2.5c0.277 0 0.5 0.223 0.5 0.5v0.5h-2.5c-0.82843 0-1.5 0.67157-1.5 1.5 0 0.82843 0.67157 1.5 1.5 1.5h3.5v-3.457c2.05e-4 -0.014322 2.05e-4 -0.028647 0-0.042969 0-0.82843-0.67157-1.5-1.5-1.5zm0.5 3h2.5v1h-2.5c-0.277 0-0.5-0.223-0.5-0.5s0.223-0.5 0.5-0.5z" fill="#bebebe"/>
</svg>
