<svg width="16" height="16" version="1.1" xmlns="http://www.w3.org/2000/svg">
	<path d="m5.6621 1.0098c-1.5783-0.066077-2.9434 0.99023-4.6621 0.99023v10 1 2h12.5 1.5v-2-1-1-9c-1.7188 0-3.0838-1.0563-4.6621-0.99023-0.71743 0.030035-1.4794 0.29124-2.3379 0.99023-0.85846-0.699-1.6205-0.9602-2.3379-0.99023zm-0.0625 1.498c0.38693 0.016199 0.77188 0.11782 1.4004 0.61719v6.8301c-1.0821-0.38582-2.1315-0.46101-2.9648-0.24805-0.67419 0.17229-1.039 0.24417-1.5352 0.40039v-6.9219c0.44969-0.11521 1.0075-0.16369 1.3652-0.28516 0.7508-0.25494 1.297-0.41089 1.7344-0.39258zm4.8008 0c0.43737-0.01831 0.98358 0.13764 1.7344 0.39258 0.35771 0.12146 0.91554 0.16995 1.3652 0.28516v6.9219c-0.49614-0.15623-0.86096-0.2281-1.5352-0.40039-0.83338-0.21297-1.8828-0.13777-2.9648 0.24805v-6.8301c0.62851-0.49937 1.0135-0.60099 1.4004-0.61719zm-4.7383 8.502c0.71743 0.030035 1.4794 0.29124 2.3379 0.99023 2.1654-1.7631 3.7172-0.75562 5.5-0.24609v1.2461h-11v-1.2461c1.076-0.30752 2.0699-0.78987 3.1621-0.74414z" fill="#bebebe"/>
</svg>
