<svg width="16" height="16" version="1.1" xmlns="http://www.w3.org/2000/svg">
	<path d="m8 1c-3.866 0-7 3.134-7 7 0 .6962.1057 1.3673.2949 2.002h.7051v-1.002a1.0001 1.0001 0 0 1 1 -1c0-2.7614 2.2386-5 5-5 1.6765 0 3.151.8333 4.059 2.0996a5 5 0 0 1 .154 .2266c.126.1980.238.4054.336.6211a5 5 0 0 1 .096 .2285c.091.2316.166.4698.222.7168a5 5 0 0 1 .069 .3418c.004.0287.009.0571.013.0859a5 5 0 0 1 .037 .3926c.004.0643.009.1284.010.1933.001.0315.004.0622.004.0938a1 1 0 0 1 -1 1 1 1 0 0 1 -1 -1 3 3 0 0 0 -.059 -.5762 3 3 0 0 0 -.002 -.0195c-.003-.0181-.009-.0348-.013-.0527a3 3 0 0 0 -.151 -.4844c-.009-.0239-.021-.0468-.031-.0703a3 3 0 0 0 -.224 -.4160c-.016-.0245-.029-.0503-.045-.0743a3 3 0 0 0 -.008 -.0117 3 3 0 0 0 -.303 -.3633c-.023-.0244-.044-.0506-.068-.0742a3 3 0 0 0 -.096 -.0898 3 3 0 0 0 -.0059 .0058c-.5309-.4758-1.2251-.7734-1.9941-.7734-1.6569 0-3 1.3431-3 3a1.0001 1.0001 0 0 1 1 1v1.002h1a1.0001 1.0001 0 0 1 1 .998c.7690 0 1.4632-.298 1.9941-.773a3 3 0 0 0 1.9979 .773 3 3 0 0 0 .008 0 3 3 0 0 0 3 -3 3 3 0 0 0 -.016 -.2988c-.158-3.7262-3.219-6.7012-6.984-6.7012zm0 6c.5523 0 1 .4477 1 1s-.4477 1-1 1-1-.4477-1-1 .4477-1 1-1zm-5 2v2.002h-2v1.998h2v2h2v-2h2v-1.998h-2v-2.002h-2zm5 4a1.0001 1.0001 0 0 1 -1 1h-1v.707c.6340.189 1.3047.293 2 .293h4c.554 0 1-.446 1-1s-.446-1-1-1h-4z" fill="#bebebe"/>
</svg>
