<svg width="16" height="16" version="1.1" xmlns="http://www.w3.org/2000/svg">
	<path d="m14.217 1c-.716-.02679-1.8.5366-2.776 1.5059l-2.1031 2.0879-6.3027-2.1133-1.2286 1.2675 4.752 3.6075-1.0625 1.0547c-.3772.3747-.6873.7666-.9356 1.1503l-2.8632-.2148-.6973.7073 2.8477 2.107 2.082 2.84.7012-.703-.2110-2.889c.36082-.23609.72904-.52825 1.084-.88086l1.1172-1.1113 3.6465 4.7832 1.2695-1.2285-2.125-6.3262 2.0352-2.0234c1.3009-1.2924 1.9017-2.8045 1.3457-3.3906-.13901-.14654-.33750-.22154-.57617-.23047z" fill="#bebebe"/>
</svg>
