<svg width="16" height="16" version="1.1" xmlns="http://www.w3.org/2000/svg">
	<path d="m4.5 1a3.5 3.5 0 0 0 -3.5 3.5 3.5 3.5 0 0 0 .5273 1.8418 7 7 0 0 1 5.4922 -4.2656 3.5 3.5 0 0 0 -2.5195 -1.0762zm7 0a3.5 3.5 0 0 0 -2.5234 1.0762 7 7 0 0 1 5.4944 4.2695 3.5 3.5 0 0 0 .529 -1.8457 3.5 3.5 0 0 0 -3.5 -3.5zm-3.5 2a6 6 0 0 0 -6 6 6 6 0 0 0 1.1875 3.57l-.9297.930c-.3440.344-.3440.898 0 1.242s.8982.344 1.2422 0l.9297-.930a6 6 0 0 0 3.5703 1.188 6 6 0 0 0 3.57 -1.188l.930.930c.086.086.185.151.291.194s.218.064.330.064c.225 0 .449-.086.621-.258.344-.344.344-.898 0-1.242l-.930-.930a6 6 0 0 0 1.188 -3.57 6 6 0 0 0 -6 -6zm0 2c.554 0 1 .446 1 1v2h2c.554 0 1 .4460 1 1s-.446 1-1 1h-3c-.554 0-1-.446-1-1v-3c0-.554.446-1 1-1z" fill="#bebebe"/>
</svg>
