<svg width="16" height="16" version="1.1" xmlns="http://www.w3.org/2000/svg">
	<path d="m6.6275 1c-.98545 0-1.7843.55306-1.7843 1.2353.028666.25452.18957.57593.27451.68627.41176.54902.41176.89216.30882 1.098h-3.3284c-.6084 0-1.0981.4897-1.0981 1.098v2.7795c.2059.1029.5490.1029 1.098-.3089.1104-.0849.4318-.2458.6863-.2745.68223 0 1.2353.79886 1.2353 1.7843 0 .98545-.55306 1.7843-1.2353 1.7843-.2094-.003-.5277-.190-.6863-.274-.5490-.412-.8921-.412-1.098-.309v3.6029c0 .608.4897 1.098 1.098 1.098h4.4265c.10294-.20588.10294-.54902-.30882-1.098-.084936-.11034-.24584-.43175-.27451-.68627 0-.68223.79886-1.2353 1.7843-1.2353.98545 0 1.7843.55306 1.7843 1.2353-.00357.20939-.19081.52771-.27451.68627-.4118.549-.4118.892-.3088 1.098h1.9559c.60831 0 1.098-.48973 1.098-1.098v-3.0539c.20588-.10294.54902-.10294 1.098.30882.15857.0837.47689.27096.68627.27451.683 0 1.236-.798 1.236-1.7839 0-.9855-.553-1.7844-1.235-1.7844-.255.0287-.576.1896-.687.2746-.549.4117-.892.4117-1.098.3088v-3.3284c0-.60831-.48973-1.098-1.098-1.098h-3.0539c-.1026-.2060-.1026-.5491.3092-1.0981.0837-.1586.2709-.4769.2745-.6863 0-.68223-.79886-1.2353-1.7843-1.2353z" fill="#bebebe"/>
</svg>
