<svg width="16" height="16" version="1.1" xmlns="http://www.w3.org/2000/svg">
	<path d="m2.5 1c-0.831 0-1.5 0.669-1.5 1.5v2.1699 2.6074 6.2227c0 0.831 0.669 1.5 1.5 1.5h4.0723 1.5547 3.1035 1.0469 1.2227c0.831 0 1.5-0.669 1.5-1.5v-1.248-1.0391-3.4883-1.3438-3.8809c0-0.831-0.669-1.5-1.5-1.5h-11zm1 2h1.5254c-0.079391 0.085337-0.1525 0.16746-0.24219 0.25781-0.52239 0.52625-1.1323 0.90187-1.7832 1.1348v-0.89258c0-0.277 0.223-0.5 0.5-0.5zm4.2637 0h4.7363c0.277 0 0.5 0.223 0.5 0.5v0.67969l-0.12109-0.037109-0.38672 0.4707-0.16602 0.38672-0.027344 0.13867-0.58008-0.083984v-0.13867l-0.054688-0.41406-0.25-0.55273h-0.38672l-0.2207 0.55273-0.082032 0.41406 0.027344 0.13867-0.60742 0.083984-0.027343-0.13867-0.16602-0.38672-0.38672-0.4707-0.35938 0.11133-0.083984 0.58008 0.027344 0.41406 0.056641 0.13867-0.55273 0.24805-0.056641-0.13867-0.27539-0.33008-0.4707-0.35938-0.33008 0.19336 0.054688 0.60742 0.16602 0.35938 0.082031 0.13867-0.49609 0.35938-0.083984-0.11133-0.33203-0.2207-0.55273-0.25-0.27539 0.27734 0.2207 0.58008 0.2207 0.30469 0.13867 0.10938-0.38672 0.4707-0.11133-0.083984-0.38672-0.13672-0.60742-0.083984-0.19336 0.35938 0.35938 0.4707 0.33203 0.24805 0.13672 0.082031-0.24805 0.55273-0.13867-0.054688-0.38672-0.027344-0.60742 0.082031-0.11133 0.35938 0.49805 0.38672 0.35938 0.16602 0.13867 0.027344-0.056641 0.58203h-0.16406l-0.38867 0.054687-0.58008 0.24805v0.38672l0.58008 0.2207 0.38867 0.083984 0.16406-0.027344 0.056641 0.60742-0.13867 0.027344-0.35938 0.16602-0.49805 0.35938 0.091797 0.31836h-0.9043c-0.277 0-0.5-0.223-0.5-0.5v-5.3398l0.097656 0.13281 0.41406-0.11133 0.083984-0.66211-0.029297-0.44141-0.054687-0.13867 0.60742-0.27734 0.056641 0.16602 0.27539 0.33203 0.52539 0.38672 0.38672-0.19336-0.082031-0.66406-0.16602-0.41406-0.11133-0.13672 0.52539-0.38867 0.11133 0.11133 0.35742 0.24805 0.60938 0.25 0.30273-0.30469-0.24805-0.58008-0.24805-0.38672-0.13867-0.083984 0.41406-0.52344 0.13867 0.082031 0.41406 0.16602 0.63672 0.082031 0.2207-0.38672-0.33594-0.42383zm3.457 2.9941c0.6256 1e-7 1.2261 0.1288 1.7793 0.33789v0.1582l-1.0332 1.9629c-0.24003-0.070315-0.48342-0.10938-0.74609-0.10938-0.52084 0-0.99617 0.15741-1.4082 0.41406l-1.6309-1.7402c0.84558-0.63849 1.8987-1.0234 3.0391-1.0234zm-3.7852 1.7129 1.6035 1.7422c-0.32462 0.44442-0.49805 1.0095-0.49805 1.6016 0 0.21858 0.0054305 0.43321 0.054688 0.63672l-2.1543 0.99414c-0.17418-0.51076-0.27734-1.0615-0.27734-1.6309 3e-7 -1.2743 0.491-2.4556 1.2715-3.3437zm5.5645 1.0117v0.35156c-0.042138-0.037945-0.076657-0.083858-0.12109-0.11914l0.12109-0.23242zm-1.7773 0.95898c0.75566 4.467e-4 1.3678 0.61349 1.3672 1.3691-4.47e-4 0.75489-0.6123 1.3667-1.3672 1.3672-0.75489-4.46e-4 -1.3667-0.6123-1.3672-1.3672-6.318e-4 -0.75565 0.61153-1.3687 1.3672-1.3691zm-2.1836 2.9492c0.098398 0.13668 0.21487 0.25799 0.33594 0.37305h-1.168l0.83203-0.37305z" fill="#bebebe"/>
</svg>
