<svg width="16" height="16" version="1.1" xmlns="http://www.w3.org/2000/svg">
	<path d="m2 1c-0.554 0-1 0.446-1 1v8c0 0.554 0.446 1 1 1v-1h1v1h1v-1.5c0-0.277 0.223-0.5 0.5-0.5h3.5v-1h-3.5c-0.277 0-0.5-0.223-0.5-0.5v-3c0-0.277 0.223-0.5 0.5-0.5h5c0.277 0 0.5 0.223 0.5 0.5v2.5h1v-1h1v1h1v-5c0-0.554-0.446-1-1-1h-2v1.5c0 0.277-0.223 0.5-0.5 0.5h-5c-0.277 0-0.5-0.223-0.5-0.5v-1.5h-2zm0 1h1v1h-1v-1zm9 0h1v1h-1v-1zm-9 2h1v1h-1v-1zm9 0h1v1h-1v-1zm-9 2h1v1h-1v-1zm0 2h1v1h-1v-1zm7 0v1 3.2031a2 1.5 0 0 0 -1 -0.20312 2 1.5 0 0 0 -2 1.5 2 1.5 0 0 0 2 1.5 2 1.5 0 0 0 2 -1.5v-4.5h4v3.2031a2 1.5 0 0 0 -1 -0.20312 2 1.5 0 0 0 -2 1.5 2 1.5 0 0 0 2 1.5 2 1.5 0 0 0 2 -1.5v-4.5-1h-1-4-1zm2 2v1h1c0.554 0 1-0.446 1-1h-2z" fill="#bebebe"/>
</svg>
