<svg width="16" height="16" version="1.1" xmlns="http://www.w3.org/2000/svg">
	<path d="m3.5 1c-1.385 0-2.5 1.115-2.5 2.5v9c0 1.385 1.115 2.5 2.5 2.5s2.5-1.115 2.5-2.5v-9c0-1.385-1.115-2.5-2.5-2.5zm2.4355 0c0.65384 0.63723 1.0645 1.5228 1.0645 2.5v0.5 1h2c-0.0742-1.0926 1.4576-2 2.125-2 0.465 0 0.875 0.0117 0.875 1v1h1c1.2287-0.60001 2-2.2816 2-3 0-0.46024-2.2604-1-3.5625-1h-5.502zm1.0645 5v4c2.7662 2.6616 6 3 6 3s-5e-5 -2.3332-1.7812-4.3125l-2.2188-2.6875h-2zm2.9746 2.5312l1.6836 1.7383c-1.799 0.16548-2.151-0.85774-1.6836-1.7383z" fill="#bebebe"/>
</svg>
