<svg width="16" height="16" version="1.1" xmlns="http://www.w3.org/2000/svg">
	<path d="m4 4a3 4 0 0 0-3 4 3 4 0 0 0 3 4 3 4 0 0 0 2.5957-2h2.8105a3 4 0 0 0 2.5937 2 3 4 0 0 0 3-4 3 4 0 0 0-3-4h-8zm6.4941 1.5h4e-3c0.55153 0.00216 0.99805 0.44905 0.99805 1s-0.44653 0.99784-0.99805 1h-4e-3c-0.55152-0.00216-0.99805-0.44905-0.99805-1 0-0.41421 0.25366-0.77007 0.61328-0.92188 0.11894-0.049681 0.24776-0.078125 0.38477-0.078125zm-6.498 0.5h1v1h1v1h-1v1h-1v-1h-1v-1h1zm8.5 1.5c0.55228 0 1 0.44772 1 1s-0.44772 1-1 1-1-0.44772-1-1 0.44772-1 1-1z" fill="#bebebe"/>
</svg>
