<svg width="16" height="16" version="1.1" viewBox="0 0 16 16" xmlns="http://www.w3.org/2000/svg">
	<path d="m8 1c-0.25562 0-0.51116 0.0971-0.70703 0.29297l-6 6c-0.39174 0.39174-0.39174 1.0223 0 1.4141l6 6c0.39174 0.39174 1.0223 0.39174 1.4141 0l0.79297-0.79297v-0.060546a3.5 3.5 0 0 1 -0.66406 -0.27539l-0.45703 0.45703c-0.19587 0.19587-0.51116 0.19587-0.70703 0l-0.70703-0.70703c-0.19587-0.19587-0.19587-0.51116 0-0.70703l0.45898-0.45898a3.5 3.5 0 0 1 -0.27539 -0.66211h-0.64844c-0.277 0-0.5-0.223-0.5-0.5v-1c0-0.277 0.223-0.5 0.5-0.5h0.64648a3.5 3.5 0 0 1 0.27539 -0.66406l-0.45703-0.45703c-0.19587-0.19587-0.19587-0.51116 0-0.70703l0.70703-0.70703c0.19587-0.19587 0.51116-0.19587 0.70703 0l0.45898 0.45898a3.5 3.5 0 0 1 0.66211 -0.27539v-0.64844c0-0.277 0.223-0.5 0.5-0.5h1c0.277 0 0.5 0.223 0.5 0.5v0.64648a3.5 3.5 0 0 1 0.66406 0.27539l0.45703-0.45703c0.19587-0.19587 0.51116-0.19587 0.70703 0l0.70703 0.70703c0.19587 0.19587 0.19587 0.51116 0 0.70703l-0.45898 0.45898a3.5 3.5 0 0 1 0.27539 0.66211h0.0625l0.79297-0.79297c0.39174-0.39174 0.39174-1.0223 0-1.4141l-6-6c-0.19587-0.19587-0.45141-0.29297-0.70703-0.29297zm2.5 8a1.5 1.5 0 0 0 -1.5 1.5 1.5 1.5 0 0 0 1.5 1.5 1.5 1.5 0 0 0 1.5 -1.5 1.5 1.5 0 0 0 -1.5 -1.5z" fill="#bebebe"/>
</svg>
