<svg width="16" height="16" version="1.1" xmlns="http://www.w3.org/2000/svg">
	<path d="m2.5 1c-0.831 0-1.5 0.669-1.5 1.5v8c0 0.831 0.669 1.5 1.5 1.5h3.3184l0.57227-2h-2.8906c-0.277 0-0.5-0.223-0.5-0.5v-6c0-0.277 0.223-0.5 0.5-0.5h5.5332 3.4668c0.277 0 0.5 0.223 0.5 0.5v3.584a1.0001 1.0001 0 0 0 0 0.0019531v2.4141c0 0.277-0.223 0.5-0.5 0.5h-0.89062l0.57227 2h1.3184c0.831 0 1.5-0.669 1.5-1.5v-8c0-0.831-0.669-1.5-1.5-1.5h-11zm6.5254 3a3 3 0 0 0-3.0254 3.0625 3 3 0 0 0 1.5391 2.5527l-1.5391 5.3848h1l2-2 2 2h1l-1.5391-5.3848a3 3 0 0 0 1.5391-2.5527 3 3 0 0 0-2.9746-3.0625z" fill="#bebebe"/>
</svg>
