<svg width="16" height="16" version="1.1" xmlns="http://www.w3.org/2000/svg">
	<path d="m9.9941 1.0508c-1.1413 0.23235-1.9941 1.2373-1.9941 2.4492 0 1.2139 0.85593 2.219 2 2.4492v1.3496c1.1058 0.33333 2.1322 0.9349 2.9492 1.752 0.01793 0.017929 0.033061 0.038512 0.050781 0.056641v-3.1582c1.1441-0.2302 2-1.2354 2-2.4492s-0.85593-2.219-2-2.4492v2.4492c0 0.277-0.223 0.5-0.5 0.5h-2c-0.277 0-0.5-0.223-0.5-0.5v-2.4492c-0.0018712 3.766e-4 -0.0039898-3.806e-4 -0.0058594 0zm-1.9941 6.9492a6 6 0 0 0-5.9141 5h-0.58594c-0.277 0-0.5 0.223-0.5 0.5v1c0 0.277 0.223 0.5 0.5 0.5h13c0.277 0 0.5-0.223 0.5-0.5v-1c0-0.277-0.223-0.5-0.5-0.5h-0.58984a6 6 0 0 0-5.9102-5zm0 2a4 4 0 0 1 3.8691 3h-7.7363a4 4 0 0 1 3.8672-3z" fill="#bebebe"/>
</svg>
