<svg width="16" height="16" version="1.1" xmlns="http://www.w3.org/2000/svg">
	<path d="m5.5 2c-0.277 0-0.5 0.223-0.5 0.5s0.223 0.5 0.5 0.5h0.5v2.8594l-4 6.5v0.14062c0 0.49626 0.2887 0.92146 0.66602 1.2148 0.37732 0.29338 0.85867 0.50253 1.4121 0.66992 1.1069 0.33478 2.5172 0.49023 3.9316 0.49023s2.8236-0.15527 3.9277-0.49023c0.55206-0.16748 1.0308-0.37761 1.4062-0.67188 0.37546-0.29426 0.66128-0.72252 0.65625-1.2188l-0.001953-0.13867-3.998-6.4961v-2.8594h0.5c0.277 0 0.5-0.223 0.5-0.5s-0.223-0.5-0.5-0.5h-5zm1.5 1h2v3.1406l3.957 6.4316c-0.01559 0.10716-0.042859 0.20843-0.23047 0.35547-0.22264 0.17449-0.60207 0.35498-1.0801 0.5-0.95601 0.29004-2.298 0.44727-3.6367 0.44727s-2.683-0.15704-3.6426-0.44727c-0.47979-0.14511-0.8604-0.32659-1.0859-0.50195-0.18938-0.14726-0.21901-0.24995-0.23633-0.35742l3.9551-6.4277v-3.1406z" color="#000000" color-rendering="auto" dominant-baseline="auto" fill="#bebebe" fill-rule="evenodd" image-rendering="auto" shape-rendering="auto" solid-color="#000000" style="font-feature-settings:normal;font-variant-alternates:normal;font-variant-caps:normal;font-variant-ligatures:normal;font-variant-numeric:normal;font-variant-position:normal;isolation:auto;mix-blend-mode:normal;shape-padding:0;text-decoration-color:#000000;text-decoration-line:none;text-decoration-style:solid;text-indent:0;text-orientation:mixed;text-transform:none;white-space:normal"/>
	<path d="m7.9883 6.1445c2.056e-4 0.18551-0.051189 0.36742-0.14844 0.52539l-1.9707 3.1992c-0.75285 1.2224-1.2263 1.9951-1.5234 2.4883 0.049117 0.01999 0.062863 0.03584 0.11719 0.05469 0.53763 0.18653 1.5022 0.36802 2.4863 0.4375 0.28391 0.02005 2.2733-0.0061 2.5039-0.0293 0.96601-0.09737 1.7061-0.27506 2.1953-0.46289-0.04796-0.07947-0.07416-0.1245-0.12891-0.21484-0.35642-0.58821-0.84977-1.3953-1.3926-2.2773l-1.9785-3.2129c-0.096901-0.15741-0.14828-0.33859-0.14844-0.52344z" fill="#bebebe" opacity=".45"/>
</svg>
