<svg width="16" height="16" version="1.1" xmlns="http://www.w3.org/2000/svg">
	<path d="m6 1c-4 0-5 2-5 3 0 1.6575 2.7191 1.9467 3.6602 2.5645 1.9697-2.4822 2.9738-3.3286 4.7754-4.9414-0.92235-0.40018-1.8279-0.62305-3.4355-0.62305zm5.7949 0c-0.11534 0.00192-0.26796 0.071382-0.43164 0.22461-3.0668 2.8733-3.5909 2.8949-6.459 6.623 0.76944 0.027219 1.4283 0.49851 1.7715 1.1758 3.3953-3.4545 3.7795-5.3095 5.25-7.541 0.14756-0.30125 0.060802-0.4857-0.13086-0.48242zm-7.2949 1a1.5 1.5 0 0 1 1.5 1.5 1.5 1.5 0 0 1-1.5 1.5 1.5 1.5 0 0 1-1.5-1.5 1.5 1.5 0 0 1 1.5-1.5zm7.5996 1.1621c-0.9751 1.7435-1.84 3.6415-4.7109 6.5625a1.0001 1.0001 0 0 1-0.46484 0.26562c0.0062279 1.0266-0.4786 1.9521-1.209 2.3984-0.59072 0.36035-1.2535 0.5142-1.9199 0.57422 1.2141 1.2805 2.9049 2.0361 4.7051 2.0371 3.5899 0 6.5-2.9101 6.5-6.5-0.00204-2.0894-1.4415-4.1234-2.9004-5.3379zm0.90039 2.8379a1 1 0 0 1 1 1 1 1 0 0 1-1 1 1 1 0 0 1-1-1 1 1 0 0 1 1-1zm-8.4629 2.5586c-0.25102 0.00561-0.52066 0.076119-0.79883 0.24023-0.96085 0.5668-0.75976 2.6024-2.7383 2.6016 0.18742 0.68528 3.0188 0.85127 4.1934 0.13476 0.61179-0.37386 1.0719-1.0636 0.82617-1.9082-0.14604-0.50195-0.72909-1.0852-1.4824-1.0684zm8.4629 0.44141a1 1 0 0 1 1 1 1 1 0 0 1-1 1 1 1 0 0 1-1-1 1 1 0 0 1 1-1zm-2 2a1 1 0 0 1 1 1 1 1 0 0 1-1 1 1 1 0 0 1-1-1 1 1 0 0 1 1-1zm-3 1a1 1 0 0 1 1 1 1 1 0 0 1-1 1 1 1 0 0 1-1-1 1 1 0 0 1 1-1z" fill="#bebebe"/>
</svg>
