<svg width="16" height="16" version="1.1" xmlns="http://www.w3.org/2000/svg">
	<path d="m9 1a6 6 0 0 0 -6 6 6 6 0 0 0 .1367 1.2402 1.0001 1.0001 0 0 1 .0684 .0606l.7910.7910.7930-.7910a1.0001 1.0001 0 0 1 1.414 0l1.5 1.498a1.0001 1.0001 0 0 1 0 1.4142l-.7910.791.7910.791a1.0001 1.0001 0 0 1 .0684 .076 6 6 0 0 0 1.2285 .129 6 6 0 0 0 6 -6 6 6 0 0 0 -6 -6zm0 1.5c.554 0 1 .446 1 1v2.5h2c.554 0 1 .446 1 1s-.446 1-1 1h-3c-.554 0-1-.446-1-1v-3.5c0-.554.446-1 1-1zm-6.502 6.5078l-1.496 1.4982 1.498 1.498-1.498 1.498 1.498 1.498 1.498-1.498 1.5 1.498 1.4981-1.498-1.4981-1.498 1.4981-1.498-1.5-1.4982-1.5 1.4982-1.4981-1.4982z" fill="#bebebe"/>
	<path d="m1 10.505 1.4984-1.498 1.4984 1.498 1.4984-1.498 1.5 1.498-1.498 1.498 1.498 1.499-1.498 1.498-1.499-1.498-1.498 1.498-1.499-1.498 1.499-1.499-1.499-1.498z" class="error" fill="#d40000"/>
</svg>
