<svg width="16" height="16" version="1.1" xmlns="http://www.w3.org/2000/svg">
	<path d="m12.375 0.9375l-1.469 1.25c1.299 1.5926 2.063 3.586 2.063 5.75 0 2.2235-0.823 4.2615-2.188 5.8745l1.5 1.25c1.687-1.946 2.719-4.416 2.719-7.1245 0-2.6567-0.996-5.0712-2.625-7zm-2.187 1.8437l-1.5318 1.3126c0.8371 1.0844 1.3438 2.3999 1.3438 3.8437 0 1.5006-0.54 2.8615-1.4375 3.9685l1.4995 1.282c1.215-1.447 1.938-3.2627 1.938-5.2505 0-1.9317-0.663-3.7263-1.812-5.1563zm-5.188 1.2188l-2 2.0312h-1.5c-0.277 0-0.5 0.223-0.5 0.5v3c0 0.277 0.223 0.4998 0.5 0.4998h1.5l2 1.969v-8zm2.9375 0.6875l-1.5313 1.3125c0.3745 0.5675 0.5938 1.219 0.5938 1.9375 0 0.7691-0.264 1.47-0.6875 2.0625l1.5313 1.312c0.736-0.942 1.1562-2.1151 1.1562-3.3745 0-1.1959-0.3931-2.3336-1.0625-3.25z" fill="#bebebe"/>
</svg>
