<svg width="16" height="16" version="1.1" xmlns="http://www.w3.org/2000/svg">
	<path d="m7.5 1c-1.385 0-2.5 1.115-2.5 2.5v4c0 1.385 1.115 2.5 2.5 2.5s2.5-1.115 2.5-2.5v-4c0-1.385-1.115-2.5-2.5-2.5zm-4 4c-0.27614 0-0.5 0.22386-0.5 0.5v2c0 1.9633 1.2535 3.6066 3 4.2246v1.275h-2c-0.554 0-1 0.446-1 1v1h9v-1c0-0.554-0.446-1-1-1h-2v-1.2754c1.746-0.618 3-2.2617 3-4.225v-2c0-0.27614-0.22386-0.5-0.5-0.5s-0.5 0.22386-0.5 0.5v2c0 1.939-1.561 3.5-3.5 3.5s-3.5-1.561-3.5-3.5v-2c0-0.27614-0.22386-0.5-0.5-0.5z" fill="#bebebe"/>
</svg>
