<svg width="16" height="16" version="1.1" xmlns="http://www.w3.org/2000/svg">
	<path d="m5 4l-2 2h-1-0.5c-0.277 0-0.5 0.223-0.5 0.5v3c0 0.277 0.223 0.5 0.5 0.5h0.5 1l2 2v-8zm3.0605 0.80664l-1.5605 1.2715a4 4 0 0 1 0.5 1.9219 4 4 0 0 1 -0.5 1.9258l1.5645 1.2734a6 6 0 0 0 0.93555 -3.1992 6 6 0 0 0 -0.93945 -3.1934z" fill="#bebebe"/>
	<path d="m12.734 1l-1.5645 1.2734a10 10 0 0 1 1.8301 5.7266 10 10 0 0 1 -1.8281 5.7305l1.5566 1.2695a12 12 0 0 0 2.2715 -7 12 12 0 0 0 -2.2656 -7zm-2.334 1.9004l-1.5605 1.2715a7 7 0 0 1 1.1602 3.8281 7 7 0 0 1 -1.1621 3.8301l1.5508 1.2637a9 9 0 0 0 1.6113 -5.0938 9 9 0 0 0 -1.5996 -5.0996z" fill="#bebebe" opacity=".45"/>
</svg>
