<svg width="16.014" height="16.014" version="1.1" xmlns="http://www.w3.org/2000/svg">
	<path d="m6 1.0137v6.0527a2.5 2.5 0 0 0 -0.5 -0.052734 2.5 2.5 0 0 0 -2.5 2.5 2.5 2.5 0 0 0 2.5 2.5 2.5 2.5 0 0 0 2.5 -2.5v-4.5h3l-5-4zm6.5 0c-0.277 0-0.5 0.223-0.5 0.5v4.5 3 1 3 1.5c0 0.277 0.223 0.5 0.5 0.5s0.5-0.223 0.5-0.5v-1.5h2v-3h-2v-1h2v-3h-2v-4h1.5c0.277 0 0.5-0.223 0.5-0.5s-0.223-0.5-0.5-0.5h-2zm-11 3c-0.277 0-0.5 0.223-0.5 0.5v10c0 0.277 0.223 0.5 0.5 0.5h7.5 0.5 0.5v-0.5-0.5h0.5c0.277 0 0.5-0.223 0.5-0.5s-0.223-0.5-0.5-0.5h-0.5-0.5-0.5v0.5 0.5h-7v-9h2.5c0.277 0 0.5-0.223 0.5-0.5s-0.223-0.5-0.5-0.5h-3zm11.5 3h1v1h-1v-1zm0 4h1v1h-1v-1z" fill="#bebebe"/>
</svg>
