<svg width="16" height="16.001" version="1.1" xmlns="http://www.w3.org/2000/svg">
 <path d="m6.9692 1.001c-3.3049 0-6.0237 3.0084-5.9684 5.7188 0.027632 1.3551 0.2204 1.4235 0.43942 2.2598 0.016602 0.091904 0.0331 0.18281 0.062496 0.27539l0.42575 1.3437c0.31209 0.98289 1.2391 1.5858 2.078 1.3516 0.83891-0.23422 1.2632-1.2144 0.95111-2.1973l-0.42575-1.3438c-0.30271-0.95335-1.1836-1.5401-2.0018-1.3613-0.02274-0.30687-0.033647-0.33557-0.041013-0.32227 0.067245-2.3169 2.0379-4.1934 4.4802-4.1934 2.485 0 4.4996 1.9206 4.4919 4.375-6e-3 0.42678-0.02125-0.21675-0.05274 0.12109-0.78439-0.10267-1.598 0.47183-1.8866 1.3809l-0.42575 1.3438c-0.31209 0.98289 0.1122 1.963 0.95111 2.1973 0.83892 0.23422 1.7659-0.36867 2.078-1.3516l0.18944-0.59766h0.6855v2c0 0.554-0.44597 1-0.99994 1h-5.9996c-0.55396 0-0.99994 0.446-0.99994 1s0.44597 1 0.99994 1h1.9999c0.55396 0 0.99994-0.446 0.99994-1h2.9998c1.1079 0 1.9999-0.892 1.9999-2v-3h-1.3749c0.20015-0.61413 0.37498-0.84527 0.37498-2.1875 0-2.8298-2.7261-5.8125-6.0309-5.8125z" fill="#bebebe"/>
</svg>
