<svg width="16" height="16" version="1.1" xmlns="http://www.w3.org/2000/svg">
 <path d="m7.9683 1c-3.3051 0-6.0236 3.0084-5.9683 5.7188 0.038287 1.8774 0.51556 3.6915 0.81049 4.6699 0.00313 0.011 0.00253 0.02221 0.00586 0.0332l0.67573 2.2266c0.29946 0.98758 1.3032 1.5586 2.2518 1.2812 0.94857-0.27733 1.4713-1.2956 1.1718-2.2832l-0.67378-2.2266c-0.29946-0.98758-1.3052-1.5586-2.2538-1.2813-0.11309 0.033064-0.21803 0.078038-0.31834 0.13086-0.23179-1.3536-0.19335-2.4258-0.19335-2.4258 0-2.3726 2.0068-4.3125 4.4919-4.3125 2.4852 0 4.4996 1.827 4.4919 4.2812-0.01232 0.88075-0.06743 1.5819-0.23045 2.4062-0.06536-0.028324-0.12901-0.059556-0.1992-0.080078-0.94857-0.27733-1.9523 0.29367-2.2518 1.2812l-0.67573 2.2266c-0.29946 0.98758 0.22322 2.0059 1.1718 2.2832 0.94857 0.27733 1.9543-0.29367 2.2538-1.2812l0.63082-2.084 0.04297-0.14258c0.30512-1.0272 0.79682-2.9887 0.79682-4.7031 0-2.8298-2.7259-5.7188-6.0308-5.7188z" fill="#bebebe"/>
</svg>
