<svg width="16" height="16" version="1.1" xmlns="http://www.w3.org/2000/svg">
	<path d="m8 2c-1.9271 0-3.4716 1.4513-3.4716 3.25 0.00435 0.19153 0.018657 0.46838 0.036932 0.7017-0.32955 0.13987-0.3536 0.78124-0.073864 1.4403 0.11093 0.26137 0.25221 0.46205 0.40625 0.62784 0.037427 0.18523 0.027607 0.26839 0.073863 0.48011 0.12908 0.38724 0.63798 1.1462 1.108 1.7727 0.046084 0.48119 0.093891 0.96679 0 1.5142-1.3542 1.1235-4.8433 1.6068-4.8381 2.7699l-0.0738 0.443h13.664l-0.073-0.443c-0.0056-0.99548-3.5005-1.6068-4.8381-2.7699-0.05412-0.44524-0.06444-0.891-0.03693-1.3295 0.428-0.6615 1.001-1.5267 1.144-1.958 0.052-0.2184 0.071-0.3659 0.111-0.554 0.129-0.1554 0.238-0.3312 0.333-0.554 0.265-0.6261 0.248-1.2238-0.037-1.4034 0.01684-0.25228 0.02952-0.52072 0.03693-0.73864 0-1.7987-1.5445-3.25-3.4716-3.25z" fill="#bebebe"/>
</svg>
