<svg width="16" height="16" version="1.1" xmlns="http://www.w3.org/2000/svg">
	<path fill="#bebebe" d="m11.559 1.541c-0.05016 0.03648-0.18216 0.23265-0.29492 0.43555-0.11279 0.2029-0.46253 0.82379-0.77734 1.3789-0.6718 1.1841-0.67906 1.1991-0.59766 1.373 0.0799 0.1706 0.62495 0.71997 1.127 1.1348 0.428 0.3529 0.49747 0.45313 0.48047 0.70703-0.01061 0.1786-0.4739 1.0132-0.90625 1.6328-0.8334 1.1944-1.8937 2.1324-3.2363 2.8613-0.65748 0.35691-0.73659 0.34824-1.2148-0.14258-0.43076-0.44213-0.96916-0.81718-1.1914-0.83008-0.1347-0.0079-2.4661 0.76764-3.0293 1.0078-0.35259 0.15039-0.39732 0.25539-0.41406 0.97461-0.01316 0.56533-0.00154 0.65625 0.11523 0.88281 0.4117 0.79869 1.6195 1.4731 2.752 1.5371 0.56708 0.03222 0.84087-0.0084 1.5371-0.22852 1.5106-0.4777 2.9856-1.3395 4.4844-2.6191 0.9763-0.8336 1.486-1.3473 2.0293-2.0488 0.4547-0.5871 1.0786-1.6639 1.3555-2.3359 0.19934-0.4838 0.61799-1.7113 0.67969-1.9922h0.002c0.10537-0.4806 0.0031-1.4623-0.21094-2.0273-0.205-0.5421-0.721-1.217-1.094-1.4293-0.367-0.2093-1.432-0.3905-1.595-0.2715z"/>
</svg>
