<svg width="16" height="16" version="1.1" xmlns="http://www.w3.org/2000/svg">
	<path fill="#d40000" d="m8 5.0312c-.2422.0109-.4475 0.01-.7480.0352-1.701.1425-3.1317.5434-4.3497 1.2148-.5610 0.31-.7540.4597-1.082.8497-.6540.7780-.97918 2.002-.7422 2.789.0670.2231.1148.2911.4688.6501.4510.457.5416.495.8496.364.4920-.210 2.3946-1.2199 2.4726-1.3129.1280-.1530.2277-.7494.2207-1.3164-.0070-.6310.0353-.6878.6563-.8828.7630-.2401 1.5094-.3494 2.2539-.3594.7445 0.01 1.4909.1193 2.254.3594.621.1950.663.2518.656.8828-.007.5670.093 1.1634.221 1.3164.078.0930 1.981 1.1029 2.473 1.3129.308.131.398.093.849-.364.354-.359.402-.427.469-.6501.237-.7870-.088-2.011-.742-2.789-.328-0.39-.521-.5397-1.082-.8497-1.218-.6714-2.649-1.0723-4.35-1.2148-.3005-.0252-.5058-.0243-.7480-.0352z"/>
</svg>
