<svg width="16" height="16" version="1.1" xmlns="http://www.w3.org/2000/svg">
	<path fill="#bebebe" d="m3.3809 1.2129l-1.5997 1.2031 3.9063 5.1953c.4994.6642 1.4374.7963 2.1016.2969l1.998-1.502 1.5979-1.2011 1.201 1.5976 1.418-4.7988-5.0235.0039 1.2035 1.5977-1.6 1.2011-1.1992.9024c-.2214.1665-.5328.1218-.6993-.0996l-3.3046-4.3965zm3.9882 7.7871c-.3903.0021-.7379.0286-1.1191.0801-.6379.0861-1.6787.3797-2.2598.6367-.4183.1850-1.425.7112-1.6347.8532-.3588.244-.8964.951-1.1114 1.457-.2063.486-.30331 1.261-.2050 1.641.0968.375.6368 1.184.8086 1.213.0530.009.2559-.031.4492-.090s.7856-.234 1.3183-.391c1.1364-.333 1.1505-.339 1.2071-.505.0555-.163.0576-.875.0039-1.471-.0458-.508-.0261-.618.1386-.774.1160-.109.9106-.351 1.5547-.472 1.2417-.235 2.4661-.155 3.7345.244.621.195.663.252.656.883-.007.567.093 1.163.221 1.316.078.093 1.981 1.103 2.473 1.313.308.131.398.093.849-.364.354-.359.402-.427.469-.650.237-.787-.088-2.011-.742-2.789-.328-.390-.521-.540-1.082-.850-1.218-.6715-2.649-1.0721-4.35-1.2146-.5541-.0464-.9885-.0685-1.3789-.0664z"/>
</svg>
