<svg width="16" height="16" version="1.1" xmlns="http://www.w3.org/2000/svg">
	<path d="m8 1a6 6 0 0 0 -6 6 6 6 0 0 0 3.9355 5.6289l-2.8047 1.6523c-0.2304 0.23-0.04375 0.70675 0.28125 0.71875h9.1758c0.325-0.012 0.51225-0.48875 0.28125-0.71875l-2.8066-1.6543a6 6 0 0 0 3.9375 -5.627 6 6 0 0 0 -6 -6zm0 1c0.27614 0 0.5 0.22386 0.5 0.5s-0.22386 0.5-0.5 0.5-0.5-0.22386-0.5-0.5 0.22386-0.5 0.5-0.5zm0 2c1.6569 0 3 1.3431 3 3s-1.3431 3-3 3-3-1.3431-3-3 1.3431-3 3-3zm0 1c-1.1046 0-2 0.89543-2 2s0.89543 2 2 2 2-0.89543 2-2-0.89543-2-2-2z" fill="#bebebe"/>
</svg>
