<svg width="16" height="16" version="1.1" xmlns="http://www.w3.org/2000/svg">
	<path d="m5.5 1a3.5 3.5 0 0 0-3.5 3.5 3.5 3.5 0 0 0 2.0625 3.1855c-0.033357 0.099969-0.0625 0.20299-0.0625 0.31445v0.61523c-1.3272-0.82364-2.632-1.6152-2.75-1.6152-0.1385 0-0.25 0.1115-0.25 0.25v6.5c0 0.1385 0.1115 0.25 0.25 0.25 0.11803 0 1.4228-0.79159 2.75-1.6152v1.6152c0 0.554 0.446 1 1 1h9c0.554 0 1-0.446 1-1v-6c0-0.554-0.446-1-1-1h-0.054688a3.5 3.5 0 0 0 1.0547-2.5 3.5 3.5 0 0 0-3.5-3.5 3.5 3.5 0 0 0-3 1.7051 3.5 3.5 0 0 0-3-1.7051zm0 2a1.5 1.5 0 0 1 1.5 1.5 1.5 1.5 0 0 1-1.5 1.5 1.5 1.5 0 0 1-1.5-1.5 1.5 1.5 0 0 1 1.5-1.5zm6 0a1.5 1.5 0 0 1 1.5 1.5 1.5 1.5 0 0 1-1.5 1.5 1.5 1.5 0 0 1-1.5-1.5 1.5 1.5 0 0 1 1.5-1.5zm-3 3.2949a3.5 3.5 0 0 0 0.56055 0.70508h-1.1191a3.5 3.5 0 0 0 0.55859-0.70508z" fill="#bebebe"/>
</svg>
