<svg width="16" height="16" version="1.1" xmlns="http://www.w3.org/2000/svg">
	<path d="m3.5 3c-0.277 0-0.5 0.223-0.5 0.5v0.5h-1c-0.554 0-1 0.446-1 1v8c0 0.554 0.446 1 1 1h12c0.554 0 1-0.446 1-1v-8c0-0.554-0.446-1-1-1h-8v-0.5c0-0.277-0.223-0.5-0.5-0.5h-2zm0 2h2c0.277 0 0.5 0.223 0.5 0.5s-0.223 0.5-0.5 0.5h-2c-0.277 0-0.5-0.223-0.5-0.5s0.223-0.5 0.5-0.5zm7 1c1.933 0 3.5 1.567 3.5 3.5 0 1.933-1.567 3.5-3.5 3.5-1.933 0-3.5-1.567-3.5-3.5 0-1.933 1.567-3.5 3.5-3.5zm0 1a2.5 2.5 0 0 0 -2.5 2.5 2.5 2.5 0 0 0 2.5 2.5 2.5 2.5 0 0 0 2.5 -2.5 2.5 2.5 0 0 0 -2.5 -2.5z" fill="#bebebe"/>
</svg>
