<svg width="16" height="16" version="1.1" xmlns="http://www.w3.org/2000/svg">
	<path d="m5 2c-0.554 0-1 0.446-1 1v2h2v-1h4v3h-2-2-2-1c-0.554 0-1 0.446-1 1v6c0 0.554 0.446 1 1 1h10c0.554 0 1-0.446 1-1v-6c0-0.554-0.446-1-1-1h-1v-4c0-0.554-0.446-1-1-1h-6zm2.9707 6c1.0693 0 1.8415 0.20323 2.3145 0.61133 0.477 0.4048 0.71484 1.0656 0.71484 1.9805v3.4082h-1.9961v-0.99414c-0.254 0.347-0.45544 0.59877-0.77344 0.75977-0.31728 0.15601-0.70462 0.23438-1.1602 0.23438-0.6141 0-1.1132-0.17358-1.498-0.51758-0.3813-0.3461-0.57227-0.7927-0.57227-1.3438 0-0.67038 0.23824-1.1617 0.71484-1.4746 0.4802-0.313 1.2321-0.4707 2.2559-0.4707h1.0332v-0.14258c0-0.2892-0.034488-0.50021-0.27148-0.63281-0.23606-0.13599-0.60444-0.20312-1.1055-0.20312-0.40598 0-0.78322 0.038984-1.1328 0.11719-0.3495 0.0783-0.67451 0.19516-0.97461 0.35156v-1.3926c0.40608-0.0952 0.81312-0.16724 1.2227-0.21484 0.40947-0.0511 0.81904-0.076172 1.2285-0.076172zm0.13281 3.2812c-0.3959 0-0.69333 0.064158-0.89453 0.19336-0.19772 0.1292-0.29688 0.32047-0.29688 0.57227 0 0.231 0.079382 0.41192 0.23828 0.54492 0.1624 0.129 0.38588 0.19336 0.67188 0.19336 0.3567 0 0.65639-0.12219 0.90039-0.36719 0.243-0.248 0.28125-0.55694 0.28125-0.92774v-0.20898h-0.90039z" fill="#bebebe"/>
</svg>
