<svg width="16" height="16" version="1.1" xmlns="http://www.w3.org/2000/svg">
	<path fill="#bebebe" d="m2.5039 1.0059c-.8673-.03427-1.5742.7775-1.498 1.625.0037 2.9874-.01303 4.9774 0 7.9651.0378.846.8626 1.475 1.6855 1.406 1.6592-.002 1.9446-.002 3.3066 0v1h-1.9355c-.0208-.002-.0417-.002-.0625 0-.0832.018-.1589.062-.2168.125l-1.6562 1.154c-.2304.230-.0438.707.2812.719h11.176c.325-.012.512-.489.281-.719l-1.654-1.154c-.074-.075-.177-.120-.281-.125h-1.9359v-1c1.4589.001 1.8609.007 3.6519 0 .853-.044 1.445-.905 1.342-1.719-.003-2.9636.010-4.9383 0-7.9021-.031-.8510-.867-1.4523-1.685-1.375h-10.799zm1.4961 1.9941h8c.554 0 1 .446 1 1v5c0 .554-.446 1-1 1h-.082a4 2.5 0 0 0 .082 -.5 4 2.5 0 0 0 -4 -2.5 4 2.5 0 0 0 -4 2.5 4 2.5 0 0 0 .0840 .4941 4 2.5 0 0 1 3.916 -1.9941 4 2.5 0 0 1 3.914 2h-7.914c-.554 0-1-.446-1-1v-5c0-.554.446-1 1-1zm2 1a1 1 0 0 0 -1 1 1 1 0 0 0 1 1 1 1 0 0 0 1 -1 1 1 0 0 0 -1 -1zm4 0a1 1 0 0 0 -1 1 1 1 0 0 0 1 1 1 1 0 0 0 1 -1 1 1 0 0 0 -1 -1z"/>
</svg>
