<svg width="16" height="16" version="1.1" xmlns="http://www.w3.org/2000/svg">
	<path d="m2.5039 1.0059c-0.8673-0.03427-1.5742 0.7775-1.498 1.625 0.0037 2.9874-0.01303 4.9774 0 7.9651 0.0378 0.846 0.8626 1.475 1.6855 1.406 1.6592-2e-3 1.9446-2e-3 3.3066 0v1h-1.9355c-0.0208-2e-3 -0.0417-2e-3 -0.0625 0-0.0832 0.018-0.1589 0.062-0.2168 0.125l-1.6562 1.154c-0.2304 0.23-0.0438 0.707 0.2812 0.719h11.176c0.325-0.012 0.512-0.489 0.281-0.719l-1.654-1.154c-0.074-0.075-0.177-0.12-0.281-0.125h-1.9359v-1c1.4589 1e-3 1.8609 7e-3 3.6519 0 0.853-0.044 1.445-0.905 1.342-1.719-3e-3 -2.9636 0.01-4.9383 0-7.9021-0.031-0.851-0.867-1.4523-1.685-1.375h-10.799zm1.4961 1.9941h8c0.554 0 1 0.446 1 1v5c0 0.554-0.446 1-1 1h-8c-0.554 0-1-0.446-1-1v-5c0-0.554 0.446-1 1-1z" fill="#bebebe"/>
</svg>
