<svg width="16" height="16" version="1.1" xmlns="http://www.w3.org/2000/svg">
 <path fill="#bebebe" d="m8.4985 1.001c-1.7789 0-3.1875 1.3397-3.1875 3 0.004 0.1768 0.0144 0.44088 0.0312 0.65625-0.3042 0.12911-0.32072 0.7041-0.0625 1.3125 0.1024 0.24126 0.23281 0.44071 0.375 0.59375 0.0345 0.17099 0.0198 0.24207 0.0625 0.4375 0.11915 0.35745 0.56618 1.0466 1 1.625 0.0416 0.43459 0.0793 0.88298 0 1.375h0.28125a0.98628 0.98628 0 0 1 1 1v2h6.8125l-0.0625-0.40625c-0.005-0.9189-3.234-1.4888-4.4688-2.5625-0.05-0.411-0.0566-0.81394-0.0312-1.2188 0.39531-0.61004 0.92979-1.4144 1.0625-1.8125 0.0477-0.20161 0.0565-0.3264 0.0937-0.5 0.11845-0.14348 0.22524-0.32565 0.3125-0.53125 0.2453-0.57798 0.23229-1.1155-0.0312-1.2812 0.0155-0.23288 0.0244-0.48635 0.0312-0.6875 0-1.6603-1.4399-3-3.2188-3zm-5.5 8v2h-2v2h2v2h2v-2h2v-2h-2v-2h-2z"/>
</svg>
