<svg width="16" height="16" version="1.1" xmlns="http://www.w3.org/2000/svg">
	<path d="m2 4c-.554 0-1 .446-1 1v5c0 .554.446 1 1 1h1v.5c0 .277.223.5.5.5h2c.277 0 .5-.223.5-.5v-.5h4v.5c0 .277.223.5.5.5h2c.277 0 .5-.223.5-.5v-.5h1c.554 0 1-.446 1-1v-5c0-.554-.446-1-1-1zm.5 1c.277 0 .5 1.115.5 2.5s-.223 2.5-.5 2.5-.5-1.115-.5-2.5.223-2.5.5-2.5zm2 0c.277 0 .5 1.115.5 2.5s-.223 2.5-.5 2.5-.5-1.115-.5-2.5.223-2.5.5-2.5zm7 0c1.3807 0 2.5 1.1193 2.5 2.5s-1.1193 2.5-2.5 2.5-2.5-1.1193-2.5-2.5 1.1193-2.5 2.5-2.5zm0 1a1.5 1.5 0 0 0 -1.5 1.5 1.5 1.5 0 0 0 1.5 1.5 1.5 1.5 0 0 0 1.5 -1.5 1.5 1.5 0 0 0 -1.5 -1.5z" fill="#bebebe"/>
</svg>
