<svg width="16" height="16" version="1.1" xmlns="http://www.w3.org/2000/svg">
	<path d="m8 1-1.5 3h3l-1.5-3zm-4.9492 2.0508 1.0605 3.1816 2.1211-2.1211-3.1816-1.0605zm9.8984 0-3.1816 1.0605 2.1211 2.1211 1.0605-3.1816zm-4.9492 1.9492c-1.6569 0-3 1.3431-3 3s1.3431 3 3 3 3-1.3431 3-3-1.3431-3-3-3zm-4 1.5-3 1.5 3 1.5v-3zm8 0v3l3-1.5-3-1.5zm-7.8887 3.2676-1.0605 3.1816 3.1816-1.0605-2.1211-2.1211zm7.7773 0-2.1211 2.1211 3.1816 1.0605-1.0605-3.1816zm-5.3887 2.2324 1.5 3 1.5-3h-3z" fill="#bebebe"/>
</svg>
