<svg width="16" height="16" version="1.1" xmlns="http://www.w3.org/2000/svg">
	<path fill="#bebebe" d="m4.5 1c-.831 0-1.5.669-1.5 1.5v9c0 .503.2474.943.625 1.215.3615-.412.8219-.715 1.375-.715.6906 0 1.333.417 1.6953 1h.9336l-.2793-.240a1.0001 1.0001 0 0 1 .6152 -1.76h-2.4648c-.2770 0-0.5-.223-0.5-0.5v-7c0-.277.2230-0.5 0.5-0.5h4.5 0.5 2.5v-0.5c0-.831-.669-1.5-1.5-1.5h-7zm5.5 3v1h3v-1h-3zm0 2v2h3v-2h-3zm0 3v3h-2l3.5 3 3.5-3h-2v-3h-3zm-8 4a1 1 0 0 0 -1 1 1 1 0 0 0 1 1 1 1 0 0 0 1 -1 1 1 0 0 0 -1 -1zm3 0a1 1 0 0 0 -1 1 1 1 0 0 0 1 1 1 1 0 0 0 1 -1 1 1 0 0 0 -1 -1z"/>
</svg>
