<svg width="16" height="16" version="1.1" xmlns="http://www.w3.org/2000/svg">
 <path d="m2 1v6.5c0 0.831 0.669 1.5 1.5 1.5h2.5 2v2l4.016-2.9844-4.016-3.0156v2h-2-1.5c-0.277 0-0.5-0.223-0.5-0.5v-5.5h-2zm4.5156 1c-0.831 0-1.5 0.669-1.5 1.5v2.5h2v-1.5c0-0.277 0.223-0.5 0.5-0.5h5.0004c0.277 0 0.5 0.223 0.5 0.5v7c0 0.277-0.223 0.5-0.5 0.5h-3.5004-1.5c-0.277 0-0.5-0.223-0.5-0.5v-1.5h-2v2.5c0 0.831 0.669 1.5 1.5 1.5h2.5 4.5004c0.831 0 1.5-0.669 1.5-1.5v-9c0-0.831-0.669-1.5-1.5-1.5h-7.0004z" fill="#bebebe"/>
</svg>
