<svg width="16" height="16" version="1.1" xmlns="http://www.w3.org/2000/svg">
	<path d="m5.5 1c-0.831 0-1.5 0.669-1.5 1.5v5.1992l2-1.9844v-2.2148c0-0.277 0.223-0.5 0.5-0.5h5c0.277 0 0.5 0.223 0.5 0.5v7c0 0.277-0.223 0.5-0.5 0.5h-2.3262l-1.9707 2h5.2969c0.831 0 1.5-0.669 1.5-1.5v-9c0-0.831-0.669-1.5-1.5-1.5h-7zm2.5664 5c-0.14217 0-0.28364 0.055274-0.39258 0.16406l-1.2559 1.25 2.1641 2.1602 1.2539-1.252c0.21787-0.21755 0.21787-0.56759 0-0.78516l-1.377-1.373c-0.10894-0.10877-0.25041-0.16406-0.39258-0.16406zm-2.2051 1.959l-4.1465 4.1426-0.71484 2.8984 2.8535-0.75977 4.1348-4.1562-2.127-2.125z" fill="#bebebe"/>
</svg>
