<svg width="16" height="16" version="1.1" xmlns="http://www.w3.org/2000/svg">
 <path d="m13.016 1v5.5c0 0.277-0.223 0.5-0.5 0.5h-1.5-2.0004v-2l-4.0156 3.0156 4.0156 2.9844v-2h2.0004 2.5c0.831 0 1.5-0.669 1.5-1.5v-6.5h-2zm-9.516 1c-0.831 0-1.5 0.669-1.5 1.5v9c0 0.831 0.669 1.5 1.5 1.5h4.5 2.5c0.831 0 1.5-0.669 1.5-1.5v-2.5h-2v1.5c0 0.277-0.223 0.5-0.5 0.5h-1.5-3.5c-0.277 0-0.5-0.223-0.5-0.5v-7c0-0.277 0.223-0.5 0.5-0.5h5c0.277 0 0.5 0.223 0.5 0.5v1.5h2v-2.5c0-0.831-0.669-1.5-1.5-1.5h-7z" fill="#bebebe"/>
</svg>
