<svg width="16" height="16" version="1.1" xmlns="http://www.w3.org/2000/svg">
 <path d="m4.5156 1c-0.8273 0-1.4933 0.669-1.4933 1.5v1.0625 3.4688h-0.52889c-0.8274-0.0001-1.4934 0.6689-1.4934 1.4999v3.0308c0 0.831 0.66603 1.5 1.4933 1.5h0.52889v0.125 0.3125c0 0.831 0.66603 1.5 1.4933 1.5h6.9689c0.259 0 0.504-0.072 0.716-0.188l-0.809-0.812-0.591-0.594-0.062-0.062 0.031-0.032c-0.242-0.261-0.261-0.525-0.311-0.781-1.6849 0.807-3.748 0.574-5.1336-0.812-0.1604-0.161-0.2733-0.353-0.4044-0.531-0.0038-0.006-0.0274 0.005-0.0311 0-0.0278-0.04-0.035-0.086-0.0618-0.126-0.0853-0.124-0.1775-0.244-0.2489-0.374-0.0268-0.052-0.0375-0.106-0.0622-0.158-0.107-0.214-0.2091-0.428-0.28-0.6555-0.0746-0.2383-0.1209-0.4728-0.1556-0.7188-0.1362-0.9666 0.0497-1.9399 0.5289-2.8125 0.1184-0.2156 0.2485-0.428 0.4044-0.625v-2.2188c0-0.277 0.22201-0.5 0.49778-0.5h4.9778c0.27577 0 0.49778 0.223 0.49778 0.5v1.2188c0.01201 0.00768 0.01916 0.02345 0.03111 0.03125 0.11949 0.07781 0.22902 0.16065 0.34222 0.25 0.1271 0.10152 0.25608 0.19515 0.37333 0.3125 1.3788 1.3799 1.6049 3.4432 0.80889 5.125 0.27833 0.04891 0.56961 0.03477 0.84 0.3125 0.01224 0.01257 0.0192 0.01803 0.03111 0.03125l1.4311 1.4375c0.09414-0.19681 0.15556-0.42253 0.15556-0.65625v-3.0625c0-0.831-0.66603-1.5-1.4933-1.5h-0.52889v-1.3125-3.1875c0-0.831-0.66603-1.5-1.4933-1.5h-6.9689zm4.0133 4c-0.8997 0-1.803 0.3448-2.4889 1.0312-1.3719 1.373-1.3719 3.5958 0 4.9688 1.196 1.1969 3.0552 1.3587 4.4178 0.46875 0.23161 0.01161 0.58284 0.03683 0.71556 0.1875 0.18071 0.20516-0.06657 0.68731 0.28 1l2.147 2.188s0.40391 0.43575 1.0267-0.1875c0.62276-0.62325 0.18667-1.0312 0.18667-1.0312l-2.1467-2.1875c-0.31244-0.34684-0.79055-0.06916-0.99556-0.25-0.15056-0.13282-0.17505-0.5182-0.18667-0.75 0.88927-1.3637 0.72931-3.2093-0.46667-4.4063-0.68594-0.68648-1.5892-1.0312-2.4889-1.0312zm0 1.1875c1.2934 0 2.3644 1.0493 2.3644 2.3438 0 1.2944-1.071 2.3438-2.3644 2.3438s-2.3333-1.0493-2.3333-2.3438c0-0.64722 0.26033-1.2631 0.68444-1.6875 0.42411-0.42444 1.0022-0.65625 1.6489-0.65625z" fill="#bebebe"/>
</svg>
