<svg width="16" height="16" version="1.1" xmlns="http://www.w3.org/2000/svg">
	<path d="M 3 1 C 2.446 1 2 1.446 2 2 L 2 14 C 2 14.554 2.446 15 3 15 L 13 15 C 13.554 15 14 14.554 14 14 L 14 2 C 14 1.446 13.554 1 13 1 L 3 1 z M 8.1582031 3.0039062 C 8.4240731 3.0148092 8.7023431 3.0624852 8.9707031 3.1289062 C 11.117603 3.6599262 12.412259 5.8295094 11.880859 7.9746094 C 11.430539 9.7922094 9.8022656 10.9972 8.0097656 11 C 7.8415156 11.00027 7.6722731 10.99016 7.5019531 10.96875 L 7.890625 7.9882812 C 7.925365 7.9982843 7.9626961 8.0058594 8.0019531 8.0058594 C 8.5551331 8.0058594 9.0019531 7.5566662 9.0019531 7.0039062 C 9.0019531 6.4511962 8.5551331 6.0039062 8.0019531 6.0039062 C 7.4487731 6.0039062 7 6.4511962 7 7.0039062 C 7 7.1215962 7.0281146 7.2299681 7.0722656 7.3300781 L 4.3691406 8.7167969 C 3.9825306 7.8863769 3.8980738 6.9352562 4.1210938 6.0351562 C 4.5861237 4.1581563 6.2971031 2.9279063 8.1582031 3.0039062 z M 7.3398438 8 L 6.0019531 12.03125 C 5.2676931 14.10285 3.0005062 12.418298 4.5039062 11.023438 L 7.3398438 8 z " fill="#bebebe"/>
</svg>
