<svg width="16" height="16" version="1.1" xmlns="http://www.w3.org/2000/svg">
 <path d="m2.8008 2c-0.070722 0.007033-0.13673 0.026951-0.20508 0.041016-0.13027 0.02681-0.2554 0.064817-0.375 0.11523-0.71584 0.30176-1.2207 0.99553-1.2207 1.8242v0.019531 6.9805 0.019531c0 0.82869 0.50486 1.5225 1.2207 1.8242 0.1196 0.050417 0.24473 0.088424 0.375 0.11523 0.068344 0.014065 0.13436 0.033983 0.20508 0.041016a6 6 0 0 1 -0.0078124 -0.015625 6 6 0 0 1 -0.0039063 -0.00586 6 6 0 0 1 -0.78906 -2.959v-1h12v1a6 6 0 0 1 -0.79688 2.9785c0.067225-0.006823 0.13024-0.025891 0.19531-0.039063 0.001877-3.8e-4 0.003982 3.85e-4 0.005859 0 0.001432-2.91e-4 0.002475-0.001658 0.003906-0.001953 0.12552-0.026049 0.2457-0.063352 0.36133-0.11133 0.003013-0.00125 0.00676-6.89e-4 0.009766-0.001953 0.002173-9.16e-4 0.00369-0.00298 0.005859-0.003907 0.11803-0.050124 0.22902-0.10904 0.33398-0.17969 0.52894-0.356 0.88086-0.95104 0.88086-1.6406v-0.019531-6.9805-0.019531c0-0.68959-0.35191-1.2846-0.88086-1.6406-0.10497-0.070649-0.21596-0.12956-0.33398-0.17969-0.002108-8.952e-4 -0.003747-0.0030175-0.005859-0.0039062-0.003024-0.0012747-0.006734-6.929e-4 -0.009766-0.0019531-0.11562-0.047976-0.2358-0.085279-0.36133-0.11133-0.001373-2.852e-4 -0.002532-0.001671-0.003906-0.0019532-0.001871-3.809e-4 -0.003987 3.758e-4 -0.005859 0-0.065078-0.013172-0.12809-0.03224-0.19531-0.039062a6 6 0 0 1 0.009766 0.019531c-0.070862-0.0075355-0.13996-0.021484-0.21289-0.021484h-10c-0.072264 0-0.1407 0.014083-0.21094 0.021484a6 6 0 0 1 0.011719 -0.021484zm0.19922 8a5 5 0 0 0 5 5 5 5 0 0 0 5 -5h-2a3 3 0 0 1 -3 3 3 3 0 0 1 -3 -3h-2zm3 0a2 2 0 0 0 2 2 2 2 0 0 0 2 -2h-1a1 1 0 0 1 -1 1 1 1 0 0 1 -1 -1h-1z" fill="#bebebe"/>
</svg>
