<svg width="16" height="16" version="1.1" xmlns="http://www.w3.org/2000/svg">
  <path d="m5.9374 0.99586c-1.2652 0-2.5354 0.47643-3.5 1.4375-1.9292 1.9221-1.9292 5.0466 0 6.9688 1.6818 1.6757 4.2713 1.9022 6.1875 0.65625 0.3257 0.01628 0.87586 0.0703 1.0625 0.28125 0.25412 0.28723-0.11236 0.93724 0.375 1.375l3.0312 3.0938s0.56175 0.59129 1.4375-0.28125 0.28125-1.4375 0.28125-1.4375l-3.0312-3.0625c-0.439-0.4865-1.118-0.1227-1.406-0.3759-0.212-0.1859-0.265-0.738-0.281-1.0625 1.25-1.9091 1.025-4.4806-0.6566-6.1562-0.9646-0.9611-2.2348-1.4375-3.5-1.4375zm0.0312 1.6562c1.8189 0 3.2812 1.469 3.2812 3.2812s-1.4624 3.2812-3.2812 3.2812c-1.8189 0.0000015-3.3125-1.469-3.3125-3.2812 0-0.90611 0.37234-1.7495 0.96875-2.3438 0.59641-0.59422 1.4343-0.9375 2.3438-0.9375zm-3.9688 10.344c-0.552 0-1 0.448-1 1s0.448 1 1 1 1-0.448 1-1-0.448-1-1-1zm3 0c-0.552 0-1 0.448-1 1s0.448 1 1 1 1-0.448 1-1-0.448-1-1-1zm3 0c-0.552 0-1 0.448-1 1s0.448 1 1 1 1-0.448 1-1-0.448-1-1-1z" fill="#bebebe"/>
</svg>
