<svg width="16" height="16" version="1.1" xmlns="http://www.w3.org/2000/svg">
	<path d="m3.8871 1.0008c-0.022219 0.00536-0.044744 0.016507-0.062317 0.031274-0.011487 0.00868-0.022587 0.019651-0.031158 0.031274 0 0-0.26923 0.32627-0.49854 0.78186s-0.41084 1.0365-0.15579 1.5324c0.78614 1.5252 2.0778 3.7702 3.0535 5.2854 0.15396-0.51289 0.3387-1.0379 0.65433-1.5637-0.0001469-0.010201-0.0001467-0.021072 0-0.031274l0.5297-0.8444-3.3339-5.1603c-0.00858-0.011624-0.019671-0.022601-0.031158-0.031274-0.010056-0.00104-0.021104-0.00104-0.031158 0 0.00103-0.010176 0.00103-0.021098 0-0.031275-0.010056-0.001041-0.021103-0.001041-0.031158 0-0.010056-0.001041-0.021103-0.001041-0.031158 0-0.010056-0.001041-0.021101-0.001041-0.031158 0zm8.1324 0c-0.000997 0.010176-0.000997 0.021098 0 0.031274-0.01006-0.00104-0.0211-0.00104-0.03116 0-0.01149 0.00868-0.02259 0.01965-0.03115 0.031274l-4.2384 6.5677c-0.336 0.5596-0.5458 1.5027-0.8102 2.2517-0.1321 0.3743-0.2728 0.7053-0.4362 0.9073-0.16339 0.20161-0.31052 0.27391-0.5297 0.21892-0.00619-0.000918-0.027113 0.000259-0.031158 0-0.010127 0.000151-0.024679-0.000365-0.031158 0-0.00436-0.0006-0.02929 0.000106-0.031158 0-0.47971-0.13785-0.92487-0.11644-1.3087 0.03127-0.48206 0.18554-0.86564 0.52126-1.1529 0.96951-0.28813 0.44967-0.43788 0.96015-0.3739 1.4386 0.062914 0.47052 0.34152 0.98871 0.96592 1.3135 0.62496 0.32511 1.2652 0.27845 1.7449 0.09382 0.48206-0.18554 0.86564-0.52126 1.1529-0.96951 0.25874-0.4038 0.36558-0.85244 0.34274-1.2823 0.000102-0.00012 0.03111-0.0624 0.03116-0.06255 0.000047-0.00015 0.000013-0.03109 0-0.03127 0.000997-0.01018 0.000997-0.0211 0-0.03127-0.000755-0.0056-0.03007 0.0051-0.03116 0-0.0033-0.0154 0.0049-0.0203 0-0.03127-0.00054-0.0084 0.000528-0.02264 0-0.03127-0.0055-0.03037-0.0072-0.0415 0-0.03127-0.0204-0.35228-0.03462-0.82916 0.15579-1.2823 0.19993-0.47574 0.6168-0.91809 1.4956-1.1572 0.02222-0.00536 0.04474-0.016507 0.06232-0.031274 0.01149-0.00868 0.02258-0.01965 0.03116-0.031274 0.8819-1.1869 2.8472-4.4715 3.8952-6.505 0.255-0.496 0.073-1.0769-0.156-1.5325s-0.499-0.7819-0.499-0.7819c-0.0086-0.011623-0.01968-0.022601-0.03116-0.031274-0.01757-0.014768-0.04009-0.025908-0.06232-0.031275-0.01006-0.001041-0.0211-0.001041-0.03115 0-0.01006-0.001041-0.0211-0.001041-0.03115 0-0.01006-0.001041-0.0211-0.001041-0.03115 0zm-2.5244 9.7572c-0.11025 0.07877-0.20473 0.15432-0.34274 0.18765-0.24926 0.0678-0.42174 0.12133-0.5297 0.18765 0.17781 0.44456 0.17576 0.90614 0.15579 1.251 0.0072-0.01023 0.0055 0.000901 0 0.03127-0.000528 0.0086 0.000539 0.02282 0 0.03127-0.0049 0.01098 0.0033 0.01587 0 0.03127-0.0011 0.0051-0.0304-0.0056-0.03116 0-0.000997 0.01018-0.000997 0.0211 0 0.03127-0.000013 0.000184-0.000047 0.03112 0 0.03127 0.000046 0.000151 0.03106 0.06243 0.03116 0.06255-0.02283 0.42981 0.084 0.87846 0.34274 1.2823 0.28722 0.44825 0.6708 0.78397 1.1529 0.96951 0.47969 0.18463 1.1199 0.23129 1.7449-0.09382 0.62439-0.32482 0.903-0.843 0.96592-1.3135 0.06398-0.47848-0.08577-0.98896-0.3739-1.4386-0.28722-0.44825-0.67081-0.78397-1.1529-0.96951-0.3838-0.14772-0.82895-0.16912-1.3087-0.03127-0.0019 0.000106-0.02679-0.0006-0.03116 0-0.0065-0.000365-0.02103 0.000151-0.03115 0-0.0041 0.000259-0.02497-0.000918-0.03115 0-0.21918 0.05499-0.36631-0.0173-0.5297-0.21892-0.0081-0.0099-0.02328-0.02069-0.03116-0.03127zm-4.2376 1.3135c0.10387 0.0047 0.23341 0.01939 0.31159 0.06255 0.17372 0.09588 0.28081 0.27219 0.31159 0.46912 0.030778 0.19692-0.021196 0.40262-0.15579 0.62549-0.26702 0.44214-0.80928 0.65876-1.1529 0.46912-0.17136-0.09458-0.28043-0.29459-0.31159-0.50039-0.031158-0.2058 0.021899-0.40378 0.15579-0.62549 0.19999-0.33115 0.53527-0.51429 0.84128-0.50039zm5.4839 0c0.30601-0.0139 0.6413 0.16924 0.84128 0.50039 0.13389 0.22171 0.18695 0.41969 0.15579 0.62549-0.03115 0.2058-0.14022 0.40581-0.31159 0.50039-0.34358 0.18964-0.88585-0.02697-1.1529-0.46912-0.1346-0.22287-0.18657-0.42856-0.15579-0.62549 0.03078-0.19692 0.13786-0.37323 0.31159-0.46912 0.07817-0.04315 0.20772-0.05784 0.31159-0.06255z" fill="#bebebe"/>
</svg>
