<svg width="16" height="16" version="1.1" xmlns="http://www.w3.org/2000/svg">
	<path d="m3 5c-.2556 0-.5112.0950-.7070.2832-.3918.3765-.3918.9810 0 1.3574l1.414 1.3594-1.414 1.3594c-.3918.3764-.3918.9806 0 1.3576.3917.376 1.0223.376 1.414 0l1.4141-1.3576.7070-.6797.7090-.6797-.7090-.6797-2.1211-2.0371c-.1958-.1882-.4514-.2832-.7070-.2832zm10 0c-.256 0-.511.0950-.707.2832l-2.121 2.0371-.7091.6797.7091.6797.707.6797 1.414 1.3576c.392.376 1.022.376 1.414 0 .392-.377.392-.9812 0-1.3576l-1.414-1.3594 1.414-1.3594c.392-.3764.392-.9809 0-1.3574-.196-.1882-.451-.2832-.707-.2832z" fill="#bebebe"/>
</svg>
