<svg width="16" height="16" version="1.1" xmlns="http://www.w3.org/2000/svg">
 <path fill="#bebebe" d="m12.125 1.0098c-0.387-0.04849-0.781 0.1343-0.988 0.4941l-3.0003 5.1953-1.7324-1c-0.4798-0.277-1.0882-0.1126-1.3652 0.3672l-0.5 0.8652 6.9279 4.0004 0.5-0.866c0.277-0.4794 0.112-1.0898-0.367-1.3668l-1.7309-1 2.9999-5.1953c0.277-0.4798 0.113-1.0902-0.367-1.3672-0.12-0.0692-0.248-0.1108-0.377-0.1269zm-7.5801 7.5117s-2.3843 2.5135-1.2109 4.4965c1.1733 1.982 4.5612 2.026 5.666 1.982h4c-1.732-1-3.75-2.08-3-3.379l-5.4551-3.0995z"/>
</svg>
