<svg width="16" height="16" version="1.1" xmlns="http://www.w3.org/2000/svg">
	<path d="M 5 1 L 5 2 L 3.5 2 C 2.669 2 2 2.669 2 3.5 L 2 11.5 C 2 12.331 2.669 13 3.5 13 L 5 13 L 5 13.5 C 5 14.331 5.669 15 6.5 15 L 12.5 15 C 13.331 15 14 14.331 14 13.5 L 14 6.5 C 14 5.84576 13.58192 5.2977969 13 5.0917969 L 13 3.5 C 13 2.669 12.331 2 11.5 2 L 10 2 L 10 1 L 5 1 z M 6 2 L 9 2 L 9 3 L 6 3 L 6 2 z M 7.5 7 L 11.5 7 C 11.777 7 12 7.223 12 7.5 L 12 12.5 C 12 12.777 11.777 13 11.5 13 L 7.5 13 C 7.223 13 7 12.777 7 12.5 L 7 7.5 C 7 7.223 7.223 7 7.5 7 z " fill="#bebebe"/>
</svg>
