<svg width="16" height="16" version="1.1" xmlns="http://www.w3.org/2000/svg">
  <path d="m2.4469 2.4416c-1.9292 1.9221-1.9292 5.0421 0 6.9643 1.6818 1.6757 4.2728 1.8989 6.189 0.6529 0.3257 0.01627 0.85093 0.06108 1.0376 0.27204 0.25412 0.28723-0.1051 0.95872 0.38226 1.3965l3.031 3.0712s0.56227 0.6005 1.438-0.27204c0.87575-0.87254 0.27304-1.4328 0.27304-1.4328l-3.031-3.07c-0.44-0.4861-1.114-0.1282-1.402-0.3813-0.212-0.186-0.257-0.7093-0.273-1.0338 1.251-1.9091 1.027-4.4906-0.6552-6.1663-1.9292-1.9221-5.0607-1.9221-6.9899 0zm1.1832 1.1426c0.59641-0.59422 1.4205-0.94308 2.33-0.94308 1.8189 0 3.2947 1.4704 3.2947 3.2826s-1.4758 3.2826-3.2947 3.2826c-1.8189 0.000001-3.2947-1.4704-3.2947-3.2826 1e-7 -0.90611 0.36834-1.7453 0.96475-2.3396z" fill="#bebebe"/>
</svg>
