<svg width="16" height="16" version="1.1" xmlns="http://www.w3.org/2000/svg">
	<path d="m3.5 1c-0.831 0-1.5 0.669-1.5 1.5v8c0 0.831 0.669 1.5 1.5 1.5h6c0.831 0 1.5-0.669 1.5-1.5v-8c0-0.831-0.669-1.5-1.5-1.5h-6zm1 2h4c0.277 0 0.5 0.223 0.5 0.5v6c0 0.277-0.223 0.5-0.5 0.5h-4c-0.277 0-0.5-0.223-0.5-0.5v-6c0-0.277 0.223-0.5 0.5-0.5zm0.5 1v1h3v-1h-3zm7 0v2.5 6c0 0.277-0.223 0.5-0.5 0.5h-4-2.5v0.5c0 0.831 0.669 1.5 1.5 1.5h6c0.831 0 1.5-0.669 1.5-1.5v-8c0-0.831-0.669-1.5-1.5-1.5h-0.5zm-7 2v1h3v-1h-3zm0 2v1h3v-1h-3z" fill="#bebebe"/>
</svg>
