<svg width="16" height="16" version="1.1" xmlns="http://www.w3.org/2000/svg">
	<path d="m15.001 0.99933-10 1.9991v7.0801c-0.53067-0.11692-1.104-0.10338-1.6543 0.03906-1.6175 0.42292-2.6355 1.8319-2.2734 3.1465 0.36077 1.3148 1.9647 2.0381 3.582 1.6152 1.3803-0.36174 2.357-1.458 2.3438-2.6309h0.00195v-6.6504l6-1.1992v3.6797c-0.53067-0.11692-1.104-0.10338-1.6543 0.039063-1.6175 0.42292-2.6355 1.8319-2.2734 3.1465 0.36077 1.3148 1.9647 2.0381 3.582 1.6152 1.3803-0.36174 2.357-1.458 2.3438-2.6309h2e-3z" fill="#bebebe"/>
</svg>
