<svg width="16" height="16" version="1.1" xmlns="http://www.w3.org/2000/svg">
	<path d="m8 1c-3.866 0-7 3.134-7 7s3.134 7 7 7 7-3.134 7-7-3.134-7-7-7zm-2.4688 4c0.73437 0 1.4688 0.22536 1.4688 1.0918-2.5607-0.60365-2.4179 1.6884-3 0.2207-0.32026-0.80753 0.79693-1.3125 1.5312-1.3125zm4.9375 0c0.73437 0 1.7046 0.46125 1.5312 1.3125-0.31694 1.5562-0.52773-0.95693-3-0.2207 0-0.86647 0.73433-1.0918 1.4688-1.0918zm-3.4688 3c0.41039-0.01 0.74932 0.13366 1.0312 0.34375 0.28192-0.21009 0.65216-0.3567 1.0625-0.34375 0.63161 0.0199 0.90656 0.76 0.90625 1.1875-5.5e-4 0.77497 0.47532 0.76512 1 0.82812-0.63413 0.15122-0.9871 1.2249-0.98438 1.7656 5e-3 0.97211-0.9303 1.2559-2.0156 1.25-1.0854-4e-3 -1.9872-0.25118-1.9844-1.2344 1e-3 -0.40742-0.35241-1.5906-1.0312-1.7656 0.67889-0.0931 1.0156-0.24992 1.0156-0.85938 0-0.80891 0.52875-1.1604 1-1.1719zm1.041 1.9941c-0.32298-0.0071237-0.63584 0.077725-0.90039 0.27539 0.16056 0.08232 0.27226 0.1597 0.27148 0.27148 2e-5 0.26976 0.29594 0.47969 0.59375 0.48047 0.29781 0.00162 0.65368-0.21071 0.67188-0.48047 0.00116-0.11178 0.15256-0.19138 0.32227-0.27148-0.30345-0.16917-0.63601-0.26827-0.95898-0.27539z" fill="#bebebe"/>
</svg>
