<svg width="16" height="16" version="1.1" xmlns="http://www.w3.org/2000/svg">
	<path d="m8 1c-3.866 0-7 3.134-7 7s3.134 7 7 7 7-3.134 7-7-3.134-7-7-7zm-2 4c0.554 0 1 0.446 1 1v1c0 0.554-0.446 1-1 1s-1-0.446-1-1v-1c0-0.554 0.446-1 1-1zm4 0c0.554 0 1 0.446 1 1v1c0 0.554-0.446 1-1 1s-1-0.446-1-1v-1c0-0.554 0.446-1 1-1zm-5.9746 4 3.9805 1 3.9785-1c0.08207 0.59047-0.1601 1.0542-0.66797 1.168l-1.3223 0.33203 1.3027 0.32812c0.71098 0.1915 0.6875 0.74826 0.6875 1.1719l-3.9785-1-3.9805 1c-0.06516-0.63125 0.037251-0.984 0.51758-1.1309l1.4727-0.36914-1.4961-0.33594c-0.47205-0.12796-0.57685-0.68027-0.49414-1.1641z" fill="#bebebe"/>
</svg>
