<svg width="16" height="16" version="1.1" xmlns="http://www.w3.org/2000/svg">
	<path d="m8 1c-3.866 0-7 3.134-7 7s3.134 7 7 7 7-3.134 7-7-3.134-7-7-7zm-3 4c0.55407 0 1 0.44945 1 1 0 0.55064-0.44593 1-1 1-0.55424 0-1-0.44936-1-1 0-0.55055 0.44576-1 1-1zm6 0c0.55415 0 1 0.44945 1 1 0 0.55064-0.44585 1-1 1-0.55407 0-1-0.44936-1-1 0-0.55055 0.44593-1 1-1zm-0.36914 4.0039c0.11094 0.0075647 0.2247 0.028084 0.33789 0.066406 0.45278 0.15329 0.87355 0.49726 1.4004 1.0918a0.50014 0.50014 0 1 1-0.74805 0.66406c-0.47197-0.53262-0.80118-0.75054-0.97266-0.80859-0.17148-0.058049-0.21672-0.039434-0.4043 0.066406-0.37516 0.21168-1.0572 0.91016-2.2441 0.91016-1.1846 0-1.8647-0.68908-2.2402-0.89844-0.18779-0.10468-0.23749-0.12415-0.41016-0.066406-0.17266 0.057747-0.50091 0.27291-0.97266 0.79883a0.50005 0.50005 0 1 1-0.74414-0.66797c0.52706-0.58759 0.9488-0.92904 1.4004-1.0801 0.45159-0.15104 0.90128-0.03112 1.2129 0.14258 0.62323 0.3474 0.9409 0.77148 1.7539 0.77148 0.81073 0 1.1283-0.42935 1.752-0.78125 0.23387-0.13196 0.54609-0.23168 0.87891-0.20898z" fill="#bebebe"/>
</svg>
