<svg width="16" height="16" version="1.1" xmlns="http://www.w3.org/2000/svg">
	<path d="m8 1c-3.866 0-7 3.134-7 7s3.134 7 7 7 7-3.134 7-7-3.134-7-7-7zm-3 4c0.55407 0 1 0.44945 1 1 0 0.55064-0.44593 1-1 1-0.55424 0-1-0.44936-1-1 0-0.55055 0.44576-1 1-1zm6 0c0.55415 0 1 0.44945 1 1 0 0.55064-0.44585 1-1 1-0.55407 0-1-0.44936-1-1 0-0.55055 0.44593-1 1-1zm-3 4.8262c1.3256 1e-3 2.5965 0.52883 3.5332 1.4668l-0.70703 0.70703c-0.7492-0.75039-1.7658-1.1728-2.8262-1.1738-1.0604 1e-3 -2.077 0.42341-2.8262 1.1738l-0.70703-0.70703c0.9367-0.93797 2.2076-1.4658 3.5332-1.4668z" fill="#bebebe"/>
</svg>
