<svg width="16" height="16" version="1.1" xmlns="http://www.w3.org/2000/svg">
	<path d="m8 1c-3.866 0-7 3.134-7 7s3.134 7 7 7 7-3.134 7-7-3.134-7-7-7zm-1.3438 5.375c0.01-0.023 0.4325 0.0832 0.5 0.625 0.068 0.542-0.40625 1-0.40625 1h-0.5v4e-3h-0.25c0 0.55064-0.44593 1-1 1-0.55424 0-1-0.44936-1-1h-0.25v-4e-3c-0.45624 1e-3 -0.99725 4e-3 -1 0-0.1919-0.2918-0.2437-0.7658 0.0937-1.0625 0.019 0 3.8081-0.5404 3.8125-0.5625zm2.625 0c0.0421-0.0152 0.06-6e-3 0.0625 0 4e-3 0.0221 3.7935 0.5625 3.8125 0.5625 0.3366 0.2967 0.2858 0.7707 0.0937 1.0625-2e-3 4e-3 -0.54367 1e-3 -1 0v4e-3h-0.25c0 0.55064-0.44585 1-1 1-0.55407 0-1-0.44936-1-1h-0.25v-4e-3h-0.5s-0.47425-0.458-0.40625-1c0.0508-0.40635 0.31134-0.57944 0.4375-0.625zm-2.7812 5.625h3c0.277 0 0.5 0.2101 0.5 0.46875v0.0625c0 0.25865-0.223 0.46875-0.5 0.46875h-3c-0.277 0-0.5-0.2101-0.5-0.46875v-0.0625c0-0.25865 0.223-0.46875 0.5-0.46875z" fill="#bebebe"/>
</svg>
