<svg width="16" height="16" version="1.1" xmlns="http://www.w3.org/2000/svg">
	<path d="m8 1c-3.866 0-7 3.134-7 7s3.134 7 7 7 7-3.134 7-7-3.134-7-7-7zm-3 4a1 1 0 0 1 1 1 1 1 0 0 1-1 1 1 1 0 0 1-1-1 1 1 0 0 1 1-1zm6 0a1 1 0 0 1 1 1 1 1 0 0 1-1 1 1 1 0 0 1-1-1 1 1 0 0 1 1-1zm1 4c0.55228 0 1 0.44772 1 1 0 0.55228-0.44772 1-1 1l-4.3672 0.99609c-0.029515-0.0039-0.081126 0.004015-0.13281 0.003906-0.27614 0-0.5-0.22386-0.5-0.5 4.311e-4 -0.19484 0.11462-0.37139 0.20117-0.41602l4.4551-2.0273c0.064859-0.025783 0.20367-0.056121 0.34375-0.056641z" fill="#bebebe"/>
</svg>
