<svg width="16" height="16" version="1.1" xmlns="http://www.w3.org/2000/svg">
	<path d="m8 1c-3.866 0-7 3.134-7 7s3.134 7 7 7 7-3.134 7-7-3.134-7-7-7zm-3 4.0039c0.55407 0 1 0.44945 1 1 0 0.55064-0.44593 1-1 1-0.55424 0-1-0.44936-1-1 0-0.55055 0.44576-1 1-1zm6 0c0.55415 0 1 0.44945 1 1 0 0.55064-0.44585 1-1 1-0.55407 0-1-0.44936-1-1 0-0.55055 0.44593-1 1-1zm1.1035 1.8965 0.20507 0.20704 0.84375 0.84375c0.2719 0.2719 0.45118 0.63637 0.45118 1.0488 0 0.82487-0.67512 1.5-1.5 1.5-0.82487 0-1.5-0.67513-1.5-1.5 0-0.41243 0.17732-0.77692 0.44921-1.0488l0.843-0.8438 0.208-0.207zm-4.1 3.1c1.3256 0.001 2.5965 0.52883 3.5332 1.4668l-0.70703 0.70703c-0.74922-0.75042-1.7658-1.1726-2.8262-1.1738-1.0604 0.001-2.077 0.42341-2.8262 1.1738l-0.7074-0.707c0.93673-0.93797 2.2076-1.4656 3.5332-1.4668z" fill="#bebebe"/>
</svg>
