<svg width="16" height="16" version="1.1" xmlns="http://www.w3.org/2000/svg">
	<path d="m8 1c-2.0296 0-3.8464 0.87-5.125 2.25 0.3517-0.1447 0.7211-0.25 1.125-0.25 1.3911 0 2.5354 0.9657 2.875 2.25 0.3517-0.1447 0.7211-0.25 1.125-0.25s0.7733 0.1053 1.125 0.25c0.3396-1.2843 1.484-2.25 2.875-2.25 0.404 0 0.773 0.1053 1.125 0.25-1.279-1.38-3.095-2.25-5.125-2.25zm-4 3c-1.1046 0-2 0.8954-2 2s0.8954 2 2 2 2-0.8954 2-2c0 0.5506-0.4459 1-1 1-0.5542 0-1-0.4494-1-1s0.4458-1 1-1c0.5541 0 1 0.4494 1 1 0-1.1046-0.8954-2-2-2zm8 0c-1.1046 0-2 0.89543-2 2 0-0.55055 0.44593-1 1-1 0.55415 0 1 0.44945 1 1 0 0.55064-0.44585 1-1 1-0.55407 0-1-0.44936-1-1 0 1.1046 0.89543 2 2 2s2-0.89543 2-2-0.895-2-2-2zm-4 2c-0.3746 0-0.7315 0.102-1.0312 0.2812-0.1463 1.5204-1.4101 2.7188-2.9688 2.7188-1.3807 0-2.5257-0.949-2.875-2.2188-0.0701 0.3975-0.125 0.8013-0.125 1.2188 0 3.866 3.134 7 7 7s7-3.134 7-7c0-0.41753-0.0549-0.82132-0.125-1.2188-0.34927 1.2697-1.4943 2.2188-2.875 2.2188-1.5587 0-2.8224-1.1984-2.9688-2.7188-0.3-0.18-0.66-0.28-1.03-0.28zm-2.8262 3.8262c0.7492 0.7508 1.7658 1.1728 2.8262 1.1738 1.0604-0.001 2.077-0.423 2.826-1.1738l0.70703 0.70703c-0.93673 0.93797-2.2076 1.4658-3.5332 1.4668-1.3256-0.001-2.5965-0.52883-3.5332-1.4668l0.7073-0.7068z" fill="#bebebe"/>
</svg>
