<svg width="16" height="16" enable-background="new" version="1.1" xmlns="http://www.w3.org/2000/svg">
	<path d="m8 1c-3.866 0-7 3.134-7 7s3.134 7 7 7 7-3.134 7-7-3.134-7-7-7zm-3 5c0.5541 0 1 0.4495 1 1 0 0.5506-0.4459 1-1 1-0.5542 0-1-0.4494-1-1 0-0.5505 0.4458-1 1-1zm3.5 1h3c0.277 0 0.5 0.223 0.5 0.5s-0.223 0.5-0.5 0.5h-3c-0.277 0-0.5-0.223-0.5-0.5s0.223-0.5 0.5-0.5zm-3.3262 3.8301c0.7492 0.75 1.7658 1.1728 2.8262 1.1738 1.0604-1e-3 2.0772-0.42383 2.8262-1.1738l0.70703 0.70703c-0.937 0.938-2.2076 1.4658-3.5332 1.4668-1.3256-1e-3 -2.5965-0.5288-3.5332-1.4668l0.70703-0.70703z" color="#bebebe" enable-background="accumulate" fill="#bebebe"/>
</svg>
