<svg width="16" height="16" version="1.1" xmlns="http://www.w3.org/2000/svg">
	<path d="m7.8633 1c-1.0738 0.6889-0.9296 1.5324-0.793 1.9068-1.5814 0.252-3.1052 1.2308-3.6094 2.9921-0.248-0.1987-0.5145-0.3227-0.8203-0.3227-0.9046 0-1.6406 1.0163-1.6406 2.2294s0.73601 2.2001 1.6406 2.2001c0.40834 0 0.77503-0.19867 1.0664-0.52802 2.3791-1.1956 6.206-1.3762 8.6406 0.0293 0.27966 0.3025 0.62223 0.49869 1.0117 0.49869 0.90462 0 1.6406-0.987 1.6406-2.2001s-0.73601-2.2294-1.6406-2.2294c-0.37484 0-0.70972 0.18126-0.98437 0.46934-0.44402-1.5977-1.6098-2.7318-3.3359-3.0801-0.1501-0.5996-0.2499-1.7984 1.4209-1.6721-1.8984-0.74447-2.379 1.5254-2.379 1.5254-0.2323-0.11-0.8447-0.5991-0.2187-1.8188zm-1.5312 4.6386c0.48481 0 0.875 0.4219 0.875 0.93871 0 0.51688-0.39019 0.93871-0.875 0.93871-0.48496 0-0.875-0.42183-0.875-0.93871 0-0.51681 0.39004-0.93871 0.875-0.93871zm3.5 0c0.48488 0 0.875 0.4219 0.875 0.93871 0 0.51688-0.39012 0.93871-0.875 0.93871-0.48481 0-0.875-0.42183-0.875-0.93871 0-0.51681 0.39019-0.93871 0.875-0.93871zm-7.082 0.93503c0.22389 0 0.41471 0.14028 0.57422 0.32268-0.029 0.49666-0.0162 1.0498 0.10937 1.6428-0.16772 0.27572-0.39558 0.46935-0.68359 0.46935-0.50029 0-0.90234-0.53183-0.90234-1.2027 0-0.67088 0.40205-1.232 0.90234-1.232zm10.527 0c0.50035 0 0.92969 0.56109 0.92969 1.232 0 0.67097-0.42934 1.2027-0.92969 1.2027-0.32591 0-0.57681-0.24586-0.73828-0.58669 0.0481-0.45059 0.0322-0.87781 0-1.2907 0.164-0.3287 0.424-0.5573 0.738-0.5573zm-5.1953 2.8198c-2.8971 0-5.25 1.2549-5.25 2.8033s2.3529 2.8033 5.25 2.8033 5.25-1.2549 5.25-2.8033-2.3529-2.8033-5.25-2.8033zm-2.4729 1.7014c0.65557 0.70442 1.545 1.1009 2.4729 1.1019 0.92786-0.00095 1.8173-0.39746 2.4729-1.1019l0.61865 0.66371c-0.81963 0.88047-1.9316 1.376-3.0916 1.3769-1.1599-0.00094-2.2719-0.49641-3.0916-1.3769l0.61865-0.66371z" fill="#bebebe"/>
</svg>
