<svg width="16" height="16" version="1.1" xmlns="http://www.w3.org/2000/svg">
	<path d="m8 1c-1.8157 0-3.4578 0.1121-4.6719 0.2988-0.607 0.0934-1.1043 0.2022-1.4883 0.3418-0.1919 0.0698-0.3559 0.1436-0.5078 0.2578-0.1518 0.1142-0.332 0.313-0.332 0.6016s0.1802 0.4874 0.332 0.6016c0.1519 0.1142 0.3159 0.188 0.5078 0.2578 0.384 0.1396 0.8813 0.2484 1.4883 0.3418 1.2141 0.1867 2.8562 0.2988 4.6719 0.2988s3.458-0.1121 4.672-0.2988c0.607-0.0934 1.104-0.2022 1.488-0.3418 0.192-0.0698 0.356-0.1436 0.508-0.2578s0.332-0.313 0.332-0.6016-0.18-0.4874-0.332-0.6016-0.316-0.188-0.508-0.2578c-0.384-0.1396-0.881-0.2484-1.488-0.3418-1.214-0.1867-2.8563-0.2988-4.672-0.2988zm0 1c1.7741 0 3.381 0.112 4.52 0.2871 0.412 0.0635 0.674 0.1394 0.941 0.2129-0.267 0.0735-0.529 0.1494-0.941 0.2129-1.139 0.1752-2.7459 0.2871-4.52 0.2871s-3.381-0.1119-4.5195-0.2871c-0.4127-0.0635-0.6743-0.1394-0.9414-0.2129 0.267-0.0735 0.5289-0.1494 0.9414-0.2129 1.1385-0.1751 2.7454-0.2871 4.5195-0.2871zm-5.9062 2.25c-0.6922 1.0857-1.0938 2.367-1.0938 3.75 0 3.866 3.134 7 7 7s7-3.134 7-7c0-1.383-0.402-2.6643-1.094-3.75-0.307 0.1072-0.619 0.2012-0.968 0.2812-1.338 0.3064-3.0453 0.4688-4.938 0.4688s-3.6001-0.1624-4.9375-0.4688c-0.3493-0.08-0.6617-0.174-0.9687-0.2812zm2.9062 1.7539c0.5541 0 1 0.4495 1 1 0 0.5506-0.4459 1-1 1-0.5542 0-1-0.4494-1-1 0-0.5505 0.4458-1 1-1zm6 0c0.554 0 1 0.4495 1 1 0 0.5506-0.446 1-1 1s-1-0.4494-1-1c0-0.5505 0.446-1 1-1zm-5.8262 4.8261c0.7492 0.75 1.7658 1.173 2.8262 1.174 1.0604-0.001 2.077-0.424 2.826-1.174l0.707 0.707c-0.937 0.938-2.2074 1.466-3.533 1.467-1.3256-0.001-2.5965-0.529-3.5332-1.467l0.707-0.707z" fill="#bebebe"/>
</svg>
