<svg width="16" height="16" version="1.1" xmlns="http://www.w3.org/2000/svg">
	<path d="m1 1 0.9062 3.5938c-0.1754 0.3108-0.342 0.6274-0.4687 0.9688v0.0312c-0.0154 0.042-0.0479 0.0824-0.0625 0.125-0.0417 0.1216-0.0587 0.2503-0.0937 0.375-0.0384 0.1348-0.0632 0.2682-0.0937 0.4062-0.0113 0.0516-0.0211 0.1042-0.0312 0.1562-0.0123 0.0626-0.0206 0.1244-0.0312 0.1876-0.0246 0.1476-0.0784 0.2868-0.0937 0.4374-0.003 0.0306 0.003 0.0634 0 0.0937-0.0181 0.20546-0.0312 0.41483-0.0312 0.625 0 3.866 3.134 7 7 7 0.24162 0 0.48363-0.007 0.71875-0.0312 3.5295-0.35842 6.2812-3.3444 6.2812-6.9688 0-0.39665-0.061-0.77692-0.125-1.1562-0.0104-0.0627-0.019-0.1253-0.0312-0.1875-0.0104-0.0532-0.0195-0.10345-0.0312-0.15625-0.0293-0.13406-0.0568-0.27519-0.0937-0.40625-0.0347-0.12169-0.0528-0.25621-0.0937-0.375-0.0154-0.0448-0.0463-0.0806-0.0625-0.125-0.12937-0.35332-0.29014-0.67806-0.46875-1l0.90575-3.5937-2.8125 1.4062c-0.205-0.1555-0.429-0.3044-0.656-0.4374-0.261-0.1531-0.531-0.2875-0.812-0.4063-0.249-0.1063-0.488-0.2037-0.7503-0.2813-0.3316-0.0966-0.6813-0.1719-1.0312-0.2187-0.3105-0.0432-0.6148-0.0625-0.9375-0.0625-0.4832 0-0.9503 0.0629-1.4062 0.1562-0.185 0.0388-0.3832 0.0718-0.5625 0.125-0.2612 0.0762-0.5024 0.1766-0.75 0.2813-0.2809 0.1188-0.5518 0.2532-0.8125 0.4063-0.2268 0.133-0.4509 0.2819-0.6562 0.4374l-2.8125-1.4062zm1.875 4.4375c0.0413-0.0146 0.0913-0.005 0.0937 0 0.004 0.0214 3.6998 0.53125 3.7188 0.53125 0.3278 0.2889 0.2495 0.74705 0.0625 1.0312-0.002 0.004-0.42875 0.001-0.77734 0 0.00089 0.001 0.0009 0.003 0.002 0.004l-0.98-0.01c0.55407 0 1 0.44945 1 1 0 0.55064-0.44593 1-1 1-0.55424 0-1-0.44936-1-1 0-0.55055 0.44576-1 1-1h-0.97461c0.00089-0.001 0.0009-0.003 0.002-0.004-0.54001-0.00043-1.1523 0-1.1523 0s-0.47225-0.44095-0.40625-0.96875c0.0494-0.3957 0.2824-0.5499 0.4063-0.5938zm10.156 0c0.01-0.022 0.4341 0.0661 0.5 0.59375 0.066 0.5278-0.406 0.9688-0.406 0.9688s-0.61233-0.00043-1.1523 0c0.00089 0.001 0.0009 0.003 0.002 0.004l-0.98-0.01c0.55415 0 1 0.44945 1 1 0 0.55064-0.44585 1-1 1-0.55407 0-1-0.44936-1-1 0-0.55055 0.44593-1 1-1h-0.97461c0.00089-0.001 0.0009-0.003 0.002-0.004-0.3488 0.001-0.7754 0.004-0.7775 0-0.1871-0.2842-0.2654-0.7424 0.0625-1.0312 0.019 0 3.7144-0.50985 3.7188-0.53125zm-7.8574 5.3926c0.74922 0.75042 1.7658 1.1728 2.8262 1.1738 1.0604-0.001 2.077-0.42341 2.8262-1.1738l0.70703 0.70703c-0.93673 0.93797-2.2076 1.4658-3.5332 1.4668-1.3256-0.001-2.5965-0.52883-3.5332-1.4668l0.7071-0.707z" fill="#bebebe"/>
</svg>
