<svg width="16" height="16" version="1.1" xmlns="http://www.w3.org/2000/svg">
	<path d="m8 1c-3.866 0-7 3.134-7 7s3.134 7 7 7 7-3.134 7-7-3.134-7-7-7zm-3 4.0039c0.55407 0 1 0.44945 1 1 0 0.55064-0.44593 1-1 1-0.55424 0-1-0.44936-1-1 0-0.55055 0.44576-1 1-1zm6 0c0.55415 0 1 0.44945 1 1 0 0.55064-0.44585 1-1 1-0.55407 0-1-0.44936-1-1 0-0.55055 0.44593-1 1-1zm-4.9375 4.4961c0.755-0.1008 1.6036 0.19715 2.375 0.96875 0.5861 0.5855 0.9858 0.64875 1.375 0.59375 0.389-0.0549 0.81685-0.2948 1.2188-0.625 0.61464-0.79126 1.6422 0.45043 0.75 0.90625-0.469 0.385-1.057 0.8-1.8122 0.906-0.7548 0.107-1.6306-0.162-2.4062-0.938-0.5901-0.59-0.9642-0.676-1.3438-0.624-0.3795 0.05-0.8294 0.306-1.25 0.656-0.6146 0.791-1.6422-0.451-0.75-0.906 0.4882-0.406 1.0888-0.8373 1.8438-0.938z" fill="#bebebe"/>
</svg>
