<svg width="16" height="16" version="1.1" xmlns="http://www.w3.org/2000/svg">
	<path d="m8 1c-3.866 0-7 3.134-7 7s3.134 7 7 7 7-3.134 7-7-3.134-7-7-7zm-3 4c0.55407 0 1 0.44945 1 1 0 0.55064-0.44593 1-1 1-0.55424 0-1-0.44936-1-1 0-0.55055 0.44576-1 1-1zm6 0c0.55415 0 1 0.44945 1 1 0 0.55064-0.44585 1-1 1-0.55407 0-1-0.44936-1-1 0-0.55055 0.44593-1 1-1zm-6.6387 3.0254c0.063719 0.010612 0.12569 0.033659 0.18164 0.068359 0.7225 0.4436 1.1725 1.135 1.3438 1.9062h4.207c0.17125-0.77124 0.62125-1.4626 1.3438-1.9062 0.05595-0.0347 0.11792-0.057747 0.18164-0.068359 0.063718-0.010612 0.12918-0.0087906 0.19336 0.0058594 0.4282 0.1017 0.52567 0.66703 0.15625 0.90625-0.94633 0.58108-1.2686 1.8037-0.6875 2.75 0.0962 0.15658 0.23992 0.31293 0.375 0.4375 0.5 0.45833-0.1875 1.2083-0.6875 0.75-0.20262-0.18685-0.38703-0.42138-0.53125-0.65625-0.23297-0.37941-0.35813-0.80242-0.40625-1.2188h-4.082c-0.04812 0.41633-0.17328 0.83934-0.40625 1.2188-0.14422 0.23487-0.32863 0.4694-0.53125 0.65625-0.5 0.4583-1.1875-0.29167-0.6875-0.75 0.13508-0.12457 0.2788-0.28092 0.375-0.4375 0.5811-0.9463 0.25883-2.1689-0.6875-2.75-0.36942-0.23922-0.27195-0.80455 0.15625-0.90625 0.064175-0.01465 0.12964-0.016472 0.19336-0.0058594z" fill="#bebebe"/>
</svg>
