<svg width="16" height="16" version="1.1" xmlns="http://www.w3.org/2000/svg">
	<path d="m8 1c-3.866 0-7 3.134-7 7s3.134 7 7 7 7-3.134 7-7-3.134-7-7-7zm-4.9688 5.375c0.0421-0.0152 0.06-0.006 0.0625 0 0.004 0.0221 3.8248 0.5625 3.8438 0.5625 0.3375 0.2967 0.2544 0.7707 0.0625 1.0625-0.002 0.003-0.4168 0.0008-0.75 0v0.004h-0.25c0 0.55064-0.44593 1-1 1-0.55424 0-1-0.44936-1-1h-0.25v-0.004c-0.3337-0.0001-0.75 0-0.75 0s-0.4742-0.458-0.4062-1c0.0506-0.4064 0.3112-0.5794 0.4374-0.625zm9.875 0c0.01-0.023 0.4323 0.0832 0.5 0.625 0.068 0.542-0.40625 1-0.40625 1s-0.41634-0.00014-0.75 0v0.004h-0.25c0 0.55064-0.44585 1-1 1-0.55407 0-1-0.44936-1-1h-0.25v-0.004c-0.33321 0.00084-0.74796 0.003-0.75 0-0.192-0.2918-0.2741-0.7658 0.0625-1.0625 0.019 0 3.8394-0.5404 3.8438-0.5625zm-6.406 5.625h3c0.277 0 0.5 0.224 0.5 0.5s-0.223 0.5-0.5 0.5h-3c-0.277 0-0.5-0.224-0.5-0.5s0.223-0.5 0.5-0.5z" fill="#bebebe"/>
</svg>
