<svg width="16" height="16" version="1.1" xmlns="http://www.w3.org/2000/svg">
	<path d="m8 1c-2.3756 0-4.4845 1.1905-5.75 3h11.5c-1.266-1.8095-3.374-3-5.75-3zm5.969 3.3438 0.031 1.4102c0 1.5064-0.7062 2.25-2.0625 2.25h-0.84375c-1.3563 0-2.0938-0.7435-2.0938-2.25v-0.75h-2v0.75c-0.0184 1.5064-0.8001 2.25-2.1564 2.25h-0.8438c-1.3561 0-1.989-0.7436-2-2.25l-0.0312-1.3164c-0.6179 1.0434-0.9688 2.2621-0.9688 3.5625 0 3.866 3.134 7 7 7s7-3.134 7-7c0-1.3417-0.37671-2.5913-1.0312-3.6562zm-8.7951 5.4863c0.74922 0.75042 1.7658 1.1728 2.8262 1.1738 1.0604-0.001 2.077-0.42341 2.8262-1.1738l0.70703 0.70703c-0.93673 0.93797-2.2076 1.4658-3.5332 1.4668-1.3256-0.001-2.5965-0.52883-3.5332-1.4668l0.7074-0.7069z" fill="#bebebe"/>
</svg>
