<svg width="16" height="16" version="1.1" xmlns="http://www.w3.org/2000/svg">
	<path d="m1 2v2 5 3 2h2 6 2v-2-3-5c0-1.108-0.892-2-2-2h-2-6zm10.232 0.023438c0.38505 0.43383 0.64363 0.974 0.72656 1.5723 0.026555 0.13043 0.041016 0.2658 0.041016 0.4043v5 3 2h1v-2-3-5c0-1.0284-0.77124-1.8608-1.7676-1.9766zm2.0117 0.0019531c0.46824 0.52791 0.75586 1.2189 0.75586 1.9746v5 3 2h1v-2-3-5c0-1.0243-0.76523-1.8536-1.7559-1.9746zm-8.2441 2.9766c0.2556 0 0.51123 0.095003 0.70703 0.2832l2.1211 2.0371 0.70898 0.67969-0.70898 0.67969-0.70703 0.67969-1.4141 1.3574c-0.3917 0.376-1.0224 0.376-1.4141 0-0.3918-0.377-0.3918-0.98102 0-1.3574l1.4141-1.3594-1.4141-1.3613c-0.3918-0.3764-0.3918-0.97897 0-1.3555 0.1958-0.1882 0.45143-0.2832 0.70703-0.2832z" fill="#bebebe"/>
</svg>
