<svg width="16" height="16" version="1.1" xmlns="http://www.w3.org/2000/svg">
	<path d="m3 1c-0.554 0-1 0.446-1 1v1h12c0-0.554-0.446-1-1-1h-6c0-0.554-0.446-1-1-1h-3zm-0.5 3c-0.831 0-1.5 0.669-1.5 1.5v6.5 1.5c0 0.831 0.669 1.5 1.5 1.5h5.5 5.5c0.831 0 1.5-0.669 1.5-1.5v-1.5-6.5c0-0.831-0.669-1.5-1.5-1.5h-11zm4.5 1c1.6569 0 3 1.3431 3 3 0 0.572-0.1597 1.1076-0.4375 1.5625l2.4375 2.4375v1h-1l-2.4375-2.4375c-0.4549 0.27784-0.99046 0.4375-1.5625 0.4375-1.6569 0-3-1.3431-3-3 0-1.6569 1.3431-3 3-3zm0 1c-1.1046 0-2 0.8954-2 2 0 1.1046 0.8954 2 2 2 1.1046 0 2-0.8954 2-2 0-1.1046-0.8954-2-2-2z" fill="#bebebe"/>
</svg>
