<svg width="16" height="16" version="1.1" xmlns="http://www.w3.org/2000/svg">
	<path d="m3 1c-0.554 0-1 0.446-1 1v1h12c0-0.554-0.446-1-1-1h-6c0-0.554-0.446-1-1-1h-3zm-0.5 3c-0.831 0-1.5 0.669-1.5 1.5v6.5 1.5c0 0.831 0.669 1.5 1.5 1.5h5.5 5.5c0.831 0 1.5-0.669 1.5-1.5v-1.5-6.5c0-0.831-0.669-1.5-1.5-1.5h-11zm9.5 1v2 4.2852 0.017578 0.019532h-0.001953c-0.01214 0.34721-0.18516 0.68562-0.46875 0.9668-0.28359 0.28117-0.67776 0.50511-1.1348 0.62305-0.54165 0.13951-1.0757 0.10772-1.502-0.05664-0.42628-0.16436-0.74483-0.4613-0.85352-0.85156-0.10833-0.38988 0.013445-0.79979 0.29688-1.1465s0.72851-0.63015 1.2695-0.76953c0.23865-0.06134 0.48246-0.091191 0.71875-0.087891 0.2363 0.003309 0.46508 0.039782 0.67578 0.10742v-2.9414l-4 0.66797v4.4883h-0.0019531c-0.01214 0.34721-0.18516 0.68562-0.46875 0.9668-0.28359 0.28117-0.67776 0.50511-1.1348 0.62305-0.54165 0.13951-1.0757 0.10772-1.502-0.05664-0.42628-0.16436-0.74483-0.4613-0.85352-0.85156-0.10833-0.38988 0.013445-0.79979 0.29688-1.1465s0.72851-0.63015 1.2695-0.76953c0.23865-0.06134 0.48246-0.091191 0.71875-0.087891 0.23629 0.003309 0.46508 0.039782 0.67578 0.10742v-3.1074-2l6-1z" fill="#bebebe"/>
</svg>
