<svg width="16" height="16" version="1.1" xmlns="http://www.w3.org/2000/svg">
	<path d="m3 1c-0.554 0-1 0.446-1 1v1h12c0-0.554-0.446-1-1-1h-6c0-0.554-0.446-1-1-1h-3zm-0.5 3c-0.831 0-1.5 0.669-1.5 1.5v6.5 1.5c0 0.831 0.669 1.5 1.5 1.5h5.5 5.5c0.831 0 1.5-0.669 1.5-1.5v-1.5-6.5c0-0.831-0.669-1.5-1.5-1.5h-11zm5.5 3c1.5361 0 3.079 0.5789 4.25 1.75l-0.71875 0.71875c-0.898-0.9061-2.1556-1.4688-3.5312-1.4688s-2.6252 0.5392-3.5312 1.4375l-0.71875-0.6875c1.1711-1.1711 2.7139-1.75 4.25-1.75zm0 2c1.0954 0 2.0945 0.43795 2.8125 1.1562 0.0058 0.00582-0.0058 0.02535 0 0.03125l-0.71875 0.6875c-0.5363-0.53627-1.2701-0.875-2.0938-0.875-0.8237 0-1.5809 0.3387-2.125 0.875l-0.6875-0.6875v-0.03125c0.7183-0.7183 1.7171-1.1562 2.8125-1.1562zm0 2c0.5477 0 1.051 0.20845 1.4062 0.56445 6e-3 0.00596-0.0059 0.02525 0 0.03125l-1.4062 1.4043-1.4062-1.4062v-0.03125c0.363-0.35527 0.85856-0.5625 1.4062-0.5625z" fill="#bebebe"/>
</svg>
