<svg width="16" height="16" version="1.1" xmlns="http://www.w3.org/2000/svg">
	<path d="m3 1c-0.554 0-1 0.446-1 1v1h12c0-0.554-0.446-1-1-1h-6c0-0.554-0.446-1-1-1h-3zm-0.5 3c-0.831 0-1.5 0.669-1.5 1.5v6.5 1.5c0 0.831 0.669 1.5 1.5 1.5h5.5 5.5c0.831 0 1.5-0.669 1.5-1.5v-1.5-6.5c0-0.831-0.669-1.5-1.5-1.5h-11zm6.7969 1c0.48006-0.0096681 0.9607 0.17404 1.2988 0.53906 0.60145 0.6489 0.52238 1.6279-0.17383 2.1875-0.98098 0.78738-1.7386-0.034283-2.5938 0.65234-0.43189 0.34682-0.45034 0.72802-0.49023 1.1211 0.039897 0.39308 0.058346 0.77427 0.49023 1.1211 0.8551 0.68644 1.6128-0.13514 2.5938 0.65234 0.6969 0.55961 0.77486 1.5386 0.17383 2.1875-0.60105 0.64889-1.6527 0.72174-2.3496 0.16211-0.98057-0.78748-0.21917-1.6044-1.0742-2.291-0.8551-0.68666-1.6132 0.13312-2.5938-0.6543-0.21778-0.17489-0.37568-0.39294-0.4707-0.62695-6.208e-4 -0.0016 6.383e-4 -0.002306 0-0.003906-0.019141-0.047591-0.036807-0.09565-0.050781-0.14453-0.006304-0.021867-0.012288-0.044368-0.017578-0.066406-5.589e-4 -0.00236-0.0013976-0.0034894-0.0019531-0.0058594-0.010692-0.0462-0.017258-0.093792-0.023438-0.14062-0.00319-0.024313-0.0058225-0.049831-0.0078125-0.074219-0.0013-0.016464-0.0031243-0.032345-0.0039063-0.048828-5.111e-4 -0.011232-0.0017267-0.021961-0.0019531-0.033203-4.948e-4 -0.02198-4.738e-4 -0.044435 0-0.066406 6.58e-5 -0.00275-8.38e-5 -0.0050625 0-0.0078125 2e-4 -0.008399 0.0015821-0.016961 0.0019531-0.025391 7e-4 -0.016474 0.0026063-0.034317 0.0039063-0.050781 0.00179-0.021905 0.0030693-0.042633 0.0058594-0.064453 3.025e-4 -0.00246 0.001624-0.0054425 0.0019531-0.0078125v-0.0019531c0.006144-0.046835 0.012754-0.09248 0.023438-0.13867 5.38e-4 -0.00239 0.0013766-0.0054025 0.0019531-0.0078125 0.005197-0.021908 0.011398-0.042749 0.017578-0.064453 0.013984-0.048881 0.03164-0.096937 0.050781-0.14453 6.207e-4 -0.00158-6.384e-4 -0.0043494 0-0.0058594 0.095055-0.23403 0.25296-0.45012 0.4707-0.625 0.98058-0.78748 1.7387 0.03233 2.5938-0.6543 0.8551-0.68663 0.093642-1.5036 1.0742-2.291 0.30492-0.24483 0.67734-0.36946 1.0508-0.37695z" fill="#bebebe"/>
</svg>
