<svg width="16" height="16" version="1.1" xmlns="http://www.w3.org/2000/svg">
	<path d="m3 1c-0.554 0-1 0.446-1 1v1h12c0-0.554-0.446-1-1-1h-6c0-0.554-0.446-1-1-1h-3zm-0.5 3c-0.831 0-1.5 0.669-1.5 1.5v6.5 1.5c0 0.831 0.669 1.5 1.5 1.5h5.5 5.5c0.831 0 1.5-0.669 1.5-1.5v-1.5-6.5c0-0.831-0.669-1.5-1.5-1.5h-11zm3 1c0.8215 0 1.5443 0.3882 2 1 0.4557-0.6118 1.1785-1 2-1 1.381 0 2.5 1.1193 2.5 2.5 0 0.8215-0.388 1.5443-1 2v0.90625l2.0312-1.4062v3.8438l-2.0312-1.375v1.0312c0 0.277-0.223 0.5-0.5 0.5h-5c-0.277 0-0.5-0.223-0.5-0.5v-2.5625c-1.1392-0.2331-2-1.2294-2-2.4375 0-1.3807 1.1193-2.5 2.5-2.5zm0 1.5c-0.55228 0-1 0.44772-1 1s0.44772 1 1 1 1-0.44772 1-1-0.44772-1-1-1zm4 0c-0.55228 0-1 0.44772-1 1s0.44772 1 1 1 1-0.44772 1-1-0.44772-1-1-1z" fill="#bebebe"/>
</svg>
