<svg width="16" height="16" version="1.1" xmlns="http://www.w3.org/2000/svg">
	<path d="m3 1c-0.554 0-1 0.446-1 1v1h12c0-0.554-0.446-1-1-1h-6c0-0.554-0.446-1-1-1h-3zm-0.5 3c-0.831 0-1.5 0.669-1.5 1.5v6.5 1.5c0 0.831 0.669 1.5 1.5 1.5h3.1562c-0.7256-0.054-0.90035-1.6008-0.40625-3.4688l0.125-0.53125h-1.4062v-1h1.6875l0.53125-2.0938c-0.1379-0.2715-0.21875-0.58085-0.21875-0.90625 0-1.1046 0.8954-2 2-2s2 0.8954 2 2c0 0.3403-0.1001 0.6569-0.25 0.9375l0.5625 2.0625h1.6875v1h-1.4375l0.15625 0.53125c0.49411 1.8681 0.31935 3.4146-0.40625 3.4688h3.2188c0.831 0 1.5-0.669 1.5-1.5v-1.5-6.5c0-0.831-0.669-1.5-1.5-1.5h-11zm7.7812 11l-1.0625-4h-2.5l-1.0625 4h2.3438 2.2812zm-2.3125-8.9688c-0.5302 0-0.96875 0.43855-0.96875 0.96875s0.43855 0.96875 0.96875 0.96875 0.96875-0.43855 0.96875-0.96875-0.43855-0.96875-0.96875-0.96875zm-0.6875 2.8438l-0.28125 1.125h1.9688l-0.3125-1.125c-0.2144 0.0785-0.4459 0.125-0.6875 0.125s-0.4731-0.0465-0.6875-0.125z" fill="#bebebe"/>
</svg>
