<svg width="16" height="16" version="1.1" xmlns="http://www.w3.org/2000/svg">
	<path d="m2.5 1c-0.831 0-1.5 0.669-1.5 1.5v11c0 0.831 0.669 1.5 1.5 1.5h11c0.831 0 1.5-0.669 1.5-1.5v-11c0-0.831-0.669-1.5-1.5-1.5zm1 2h9c0.277 0 0.5 0.223 0.5 0.5v9c0 0.277-0.223 0.5-0.5 0.5h-9c-0.277 0-0.5-0.223-0.5-0.5v-9c0-0.277 0.223-0.5 0.5-0.5zm5.5 1-4.4043 7.4316h-0.70117v0.56836h2.25v-0.56836h-0.80469l1.0117-1.7578h3.291l0.32812 1.7578h-0.9707v0.56836h3l-0.0098-0.56836h-0.78317l-1.207-7.4316zm0 1.2969 0.5293 3.7031h-2.7832z" fill="#bebebe"/>
</svg>
