<svg width="16" height="16" version="1.1" xmlns="http://www.w3.org/2000/svg">
	<path fill="#bebebe" d="m2 1c-.554 0-1 .4460-1 1v13h2 12v-13c0-.5540-.446-1-1-1h-12zm6 1h1v1h-1v-1zm2 0h1v1h-1v-1zm2 0h1v1h-1v-1zm-9 2h10v9h-10v-9zm4.9707 2c-.4095 0-.8190.0251-1.2285.0762-.4095.0476-.8167.1196-1.2227.2148v1.3926c.3001-.1564.6251-.2733.9746-.3516.3496-.0782.7269-.1172 1.1329-.1172.5013 0 .8689.0672 1.1054.2032.2366.1326.3555.3436.3555.6328v.1426h-1.1172c-1.0238 0-1.7757.1577-2.2559.4707-.4766.3129-.7148.8045-.7148 1.4749 0 .551.1910.999.5723 1.345.3848.344.8838.516 1.498.516.4555 0 .8425-.078 1.1602-.234.3177-.161.6030-.413.8574-.760v.994h1.9121v-3.4082c0-.9149-.238-1.5757-.715-1.9805-.4729-.4081-1.2446-.6113-2.3143-.6113zm.1328 3.2812h.9844v.2090c0 .3708-.1217.6798-.3652.9278-.2436.245-.5439.367-.9004.367-.2860 0-.5095-.064-.6719-.193-.1589-.133-.2383-.314-.2383-.545 0-.2518.0992-.4432.2969-.5724.2012-.1292.4991-.1934.8945-.1934z"/>
</svg>
