<svg width="16" height="16" version="1.1" xmlns="http://www.w3.org/2000/svg">
	<path fill="#bebebe" d="m8.0273 3c-0.6718 0-1.3438 0.041853-2.0156 0.12695-0.6718 0.0793-1.3399 0.19872-2.0059 0.35742v2.3223c0.4923-0.2607 1.0243-0.45749 1.5977-0.58789s1.1934-0.19531 1.8594-0.19531c0.8225 0 1.4284 0.11314 1.8164 0.33984 0.3881 0.2211 0.58203 0.57279 0.58203 1.0547v0.23828h-1.834c-1.6796 0-2.9135 0.2616-3.7012 0.7832-0.7819 0.5215-1.1719 1.3402-1.1719 2.457 0 0.9187 0.312 1.6661 0.9375 2.2441 0.6314 0.573 1.4514 0.859 2.4591 0.859 0.7472 0 1.3811-0.12962 1.9023-0.39062 0.5213-0.267 0.9908-0.68958 1.4082-1.2676v1.6582h3.1367v-5.6797c0-1.5249-0.39196-2.6262-1.1738-3.3008-0.776-0.6804-2.0418-1.0197-3.7967-1.0197zm0.21875 5.4668h1.6152v0.34961c-0.00001 0.6179-0.19999 1.133-0.59961 1.5469-0.3996 0.40816-0.8916 0.61328-1.4766 0.61328-0.46911 0-0.83711-0.1088-1.1035-0.32422-0.26063-0.22108-0.39063-0.52271-0.39062-0.9082 0-0.4195 0.16203-0.73772 0.48633-0.95312 0.3301-0.2154 0.82005-0.32422 1.4688-0.32422z"/>
</svg>
