<svg width="16" height="16" version="1.1" xmlns="http://www.w3.org/2000/svg">
  <path fill="#bebebe" d="m7.9062 3c-0.5102 0-1.0239 0.0429-1.5624 0.1562-0.5386 0.1078-1.0837 0.279-1.6563 0.5v1.4376c0.4762-0.2608 0.9529-0.4322 1.4687-0.5626 0.5159-0.1303 1.0496-0.2187 1.5938-0.2187 0.856 0 1.5295 0.1969 2 0.5937 0.476 0.3912 0.719 0.9676 0.719 1.6876v0.1562h-2.219c-1.4229 0-2.4675 0.2683-3.1875 0.8125-0.477 0.3635-0.8037 0.844-0.9687 1.4375h-1.0938v1h0.9688c0.007 0.904 0.3091 1.644 0.875 2.188 0.5782 0.544 1.3374 0.812 2.3124 0.812 0.771 0 1.4359-0.134 1.9688-0.406 0.5329-0.278 0.987-0.703 1.344-1.282v1.688h1.562v-3h0.969v-1h-0.969v-1.6875c0-1.4512-0.351-2.5357-1.031-3.25s-1.7162-1.0625-3.0938-1.0625zm1 4.9688h1.5628v0.3437c0 0.2441-0.031 0.4655-0.063 0.6875h-4.6872c0.1265-0.2439 0.3187-0.4492 0.5624-0.5938 0.4876-0.2891 1.3609-0.4374 2.625-0.4374zm-3.375 2.0312h4.5938c-0.1265 0.285-0.274 0.553-0.4688 0.781-0.5215 0.612-1.1951 0.907-2.0624 0.907-0.6293 0-1.1316-0.146-1.5-0.469-0.3351-0.304-0.5345-0.72-0.5626-1.219z"/>
</svg>
