<svg width="16" height="16" version="1.1" xmlns="http://www.w3.org/2000/svg">
  <path fill="#bebebe" d="m7.9062 3c-0.5102 0-1.0239 0.0429-1.5624 0.1562-0.5386 0.1078-1.0837 0.279-1.6563 0.5v1.4376c0.4762-0.2608 0.9529-0.4322 1.4687-0.5626 0.5159-0.1303 1.0496-0.2187 1.5938-0.2187 0.856 0 1.5295 0.1969 2 0.5937 0.476 0.3912 0.719 0.9676 0.719 1.6876v0.1562h-2.219c-1.4229 0-2.4675 0.2683-3.1875 0.8125-0.7143 0.5442-1.0938 1.3348-1.0937 2.4063-0.0001 0.9182 0.3024 1.6692 0.875 2.2192 0.5782 0.544 1.3374 0.812 2.3124 0.812 0.771 0 1.4359-0.134 1.9688-0.406 0.5329-0.278 0.987-0.703 1.344-1.282v1.688h1.562v-5.6875c0-1.4512-0.351-2.5357-1.031-3.25s-1.7162-1.0625-3.0938-1.0625zm1 4.9688h1.5628v0.3437c0 1.0204-0.286 1.8505-0.8128 2.4685-0.5215 0.612-1.1951 0.907-2.0624 0.907-0.6293 0-1.1316-0.146-1.5-0.469-0.3629-0.329-0.5626-0.788-0.5626-1.344 0-0.6973 0.2625-1.1796 0.75-1.4688 0.4876-0.2891 1.3609-0.4374 2.625-0.4374zm-4.9062 6.0312v1h8v-1h-8z"/>
</svg>
