<svg width="16" height="16" version="1.1" xmlns="http://www.w3.org/2000/svg">
	<path fill="#bebebe" d="m8.9609 3c-0.5102 0-1.0461 0.0565-1.6074 0.1699-0.5555 0.1077-1.1419 0.2731-1.7597 0.4942l-0.2891 1.4453c0.5272-0.2607 1.0591-0.45749 1.5977-0.58789 0.5442-0.1304 1.0886-0.19531 1.6328-0.19531 0.856 0 1.4801 0.1989 1.8711 0.5957 0.397 0.3911 0.52481 0.94612 0.38281 1.666l-0.0332 0.1543h-2.1953c-1.4229 0-2.5474 0.27221-3.375 0.81641-0.822 0.5442-1.3412 1.3505-1.5566 2.4219-0.1815 0.9187-0.039019 1.6531 0.42578 2.2031 0.4649 0.544 1.185 0.816 2.1601 0.816 0.771 0 1.4514-0.1362 2.041-0.4082 0.5896-0.278 1.1192-0.7052 1.5898-1.2832l-0.40039 1.6895h1.5645l1.1992-5.6777c0.28911-1.4512 0.16549-2.5357-0.37305-3.25-0.539-0.7147-1.498-1.0708-2.8751-1.0708zm0 4.9668h1.5566l-0.07617 0.34766c-0.2041 1.0204-0.63109 1.8391-1.2773 2.457-0.6463 0.61225-1.4022 0.91992-2.2695 0.91992-0.63 0-1.0948-0.163-1.3952-0.486-0.3005-0.329-0.3946-0.771-0.2812-1.3261 0.136-0.6973 0.47728-1.1894 1.0215-1.4785 0.5499-0.2892 1.4565-0.43359 2.7207-0.43359z"/>
</svg>
