<svg width="16" height="16" version="1.1" xmlns="http://www.w3.org/2000/svg">
 <path fill="#bebebe" d="m8 2c-2.4185-0.007-4.9834 1.0071-6.3105 3.1152-0.9722 1.4964-0.89885 3.553 0.1523 4.9888 0.6061 0.871 1.464 1.547 2.4082 2.021 0.2757 1.124-0.4462 2.191-1.25 2.906 1.5344-0.098 2.9015-1.01 3.9062-2.125 2.1692 0.321 4.4938-0.264 6.2008-1.654 1.42-1.129 2.252-3.0697 1.75-4.8614-0.584-2.1885-2.656-3.6381-4.775-4.1426-0.6804-0.1663-1.3817-0.248-2.082-0.248zm0.0684 2.0176c0.5856 0 1.0842 0.1692 1.4941 0.5078 0.4455 0.3706 0.6665 0.8666 0.6665 1.4863 0 0.4792-0.135 0.8913-0.4048 1.2363-0.082 0.1151-0.3264 0.3479-0.7363 0.6993-0.2694 0.2364-0.4043 0.4576-0.4043 0.6621v0.334h-1.625v-0.545c0-0.3641 0.129-0.7045 0.3867-1.0175 0.0059-0.0128 0.2425-0.249 0.7109-0.709 0.2577-0.2492 0.3868-0.4786 0.3868-0.6895 0-0.1405-0.0509-0.2562-0.1504-0.3457-0.0996-0.0958-0.2169-0.1426-0.3516-0.1426-0.1757 0-0.3067 0.0704-0.3945 0.211-0.0879 0.1405-0.1289 0.3097-0.1231 0.5078h-1.5722v-0.1543c0-0.6325 0.2131-1.1367 0.6406-1.5137 0.3923-0.3514 0.8851-0.5273 1.4766-0.5273zm-0.0977 5.9785c0.2865 0 0.519 0.0929 0.6973 0.2769 0.1846 0.185 0.2773 0.421 0.2773 0.707 0 0.287-0.0927 0.519-0.2773 0.698-0.1783 0.185-0.4108 0.277-0.6973 0.277s-0.5224-0.092-0.707-0.277c-0.1783-0.179-0.2676-0.411-0.2676-0.698 0-0.286 0.0893-0.522 0.2676-0.707 0.1846-0.184 0.4205-0.2769 0.707-0.2769z"/>
</svg>
