<svg width="16" height="16" version="1.1" xmlns="http://www.w3.org/2000/svg">
 <path d="m7.9956 1.9688c-2.4185-0.00696-4.9854 1.0169-6.3125 3.125-0.97216 1.4963-0.89489 3.5334 0.15625 4.9688 0.60607 0.87171 1.4621 1.5574 2.4062 2.0312 0.27571 1.1243-0.44625 2.1906-1.25 2.9062 1.5344-0.09856 2.9015-1.01 3.9062-2.125 2.1691 0.32064 4.4802-0.26657 6.1875-1.6562 1.4197-1.1287 2.252-3.0521 1.75-4.8438-0.58481-2.1885-2.6312-3.6518-4.75-4.1562-0.6801-0.1662-1.393-0.2499-2.0934-0.2498zm-0.0625 2.1562c0.30004-0.023241 0.55292 0.054766 0.78125 0.21875 0.23203 0.16371 0.35081 0.37118 0.375 0.625 0.02419 0.25384-0.05235 0.49051-0.25 0.6875-0.19427 0.19338-0.44996 0.28926-0.75 0.3125-0.3 0.0233-0.5495-0.0583-0.7812-0.2187-0.232-0.1637-0.382-0.3712-0.4062-0.625-0.0242-0.25382 0.0836-0.45924 0.28125-0.65625 0.19765-0.19699 0.44996-0.32049 0.75-0.34375zm-0.28125 2.5625c0.38741-0.030015 0.71291 0.033398 0.9375 0.1875 0.22756 0.15092 0.34924 0.3862 0.375 0.65625 0.0053 0.055777 0.0029 0.13909 0 0.28125 0.000422 0.14191-0.0034 0.28581-0.03125 0.40625l-0.28125 1.3125c-0.02276 0.10526-0.04905 0.20964-0.0625 0.34375-0.01348 0.13411-0.0064 0.24498 0 0.3125 0.01623 0.17026 0.06573 0.28866 0.15625 0.34375 0.09052 0.05506 0.22914 0.0474 0.4375 0.03125 0.09767-0.0076 0.22283-0.02356 0.34375-0.0625 0.12063-0.04188 0.19689-0.06598 0.25-0.09375l-0.0625 0.40625c-0.31139 0.13945-0.56352 0.2389-0.75 0.3125-0.18621 0.07653-0.40232 0.13657-0.65625 0.15625-0.39067 0.03027-0.70315-0.03415-0.9375-0.1875-0.23138-0.15654-0.38106-0.36082-0.40625-0.625-0.0099-0.10274-0.0062-0.20556 0-0.3125 0.0059-0.10987 0.0083-0.2372 0.03125-0.375l0.28125-1.3125c0.02406-0.12606 0.05007-0.26462 0.0625-0.375 0.01536-0.11356 0.0087-0.2215 0-0.3125-0.01567-0.16438-0.04397-0.25372-0.125-0.3125-0.08103-0.058771-0.22589-0.078893-0.4375-0.0625-0.10418 0.00807-0.20461 0.024574-0.3125 0.0625-0.10464 0.037686-0.20563 0.061284-0.28125 0.09375l0.0625-0.40625c0.25447-0.1173 0.51552-0.19507 0.75-0.28125 0.2342-0.089114 0.44138-0.17084 0.65625-0.1875z" fill="#bebebe"/>
</svg>
