<svg width="16" height="16.009" version="1.1" xmlns="http://www.w3.org/2000/svg">
	<path d="m8.9141 1.0156c-0.15357-0.012274-0.30863-0.010235-0.46094 0.0039062-1.2185 0.11313-2.4531 1.0562-2.4531 2.4902a0.50005 0.50005 0 1 0 1 0c0-0.85032 0.76535-1.4216 1.5469-1.4941 0.39076-0.03628 0.74908 0.057698 1.0039 0.27539 0.25482 0.21769 0.44922 0.5721 0.44922 1.2188 0 1.2026 0.27899 2.0842 0.76562 2.6758s1.1789 0.8488 1.8262 0.82227c1.2945-0.053062 2.5289-1.1331 2.4062-2.543a0.50005 0.50005 0 1 0 -0.99609 0.087891c0.06561 0.75444-0.69857 1.4242-1.4512 1.4551-0.3763 0.015425-0.72089-0.10109-1.0137-0.45703-0.29278-0.35594-0.53711-0.99358-0.53711-2.041 0-0.86689-0.30561-1.5555-0.80078-1.9785-0.37138-0.31727-0.82445-0.4788-1.2852-0.51562zm-3.9141 3.9941c-1.108 0-2 0.892-2 2v2h3v-4h-1zm2 0v4h3v-2c0-1.108-0.892-2-2-2h-1zm-4 5v1.5c0 1.939 1.561 3.5 3.5 3.5s3.5-1.561 3.5-3.5v-1.5h-7z" fill="#bebebe"/>
</svg>
