<svg width="16" height="16" version="1.1" xmlns="http://www.w3.org/2000/svg">
	<path d="m4.0039 4a3 4 0 0 0 -3 4 3 4 0 0 0 3 4 3 4 0 0 0 2.5957 -2h2.8105a3 4 0 0 0 2.5937 2 3 4 0 0 0 3 -4 3 4 0 0 0 -3 -4h-8zm6.4941 1.5h.004c.55153.00216.99805.44905.99805 1s-.44653.99784-.99805 1h-.004c-.55152-.00216-.99805-.44905-.99805-1 0-.41421.25366-.77007.61328-.92188.11894-.049681.24776-.078125.38477-.078125zm-6.498.5h1v1h1v1h-1v1h-1v-1h-1v-1h1v-1zm8.5 1.5c.55228 0 1 .44772 1 1s-.44772 1-1 1-1-.44772-1-1 .44772-1 1-1z" fill="#bebebe"/>
</svg>
