<svg width="16" height="16" version="1.1" xmlns="http://www.w3.org/2000/svg">
	<path d="m4 1v0.5c0 0.71607 0.36306 1.2805 0.82227 1.6289 0.4592 0.34844 0.99629 0.54412 1.4922 0.74219 0.49589 0.19806 0.94818 0.39866 1.2383 0.64258 0.2901 0.24392 0.44727 0.48696 0.44727 0.98633v0.5h-5l-2 8h14l-1.6758-6.7012-1.5996 1.6016 0.77539 3.0996h-5.502-3.498l1-4h2.8887l1.9961-2h-0.38477v-0.5c0-0.76335-0.34283-1.3653-0.80273-1.752-0.4599-0.3867-1.0076-0.60334-1.5117-0.80469-0.50411-0.20135-0.96702-0.38872-1.2578-0.60938s-0.42773-0.4104-0.42773-0.83398v-0.5h-1zm8.1387 4c-0.2206 0-0.44108 0.085209-0.60938 0.25391-0.02874 0.029214-0.055798 0.058836-0.080078 0.091797l-4.0781 4.0879-0.37109 1.5664 1.5391-0.32227 4.1172-4.125c0.03202-0.023685 0.063317-0.05023 0.091797-0.078125 0.33662-0.33739 0.33662-0.88333 0-1.2207-0.16831-0.1687-0.38877-0.25391-0.60938-0.25391z" fill="#bebebe" fill-rule="evenodd"/>
</svg>
