<svg width="16" height="16" version="1.1" xmlns="http://www.w3.org/2000/svg">
	<path fill="#bebebe" d="m3.4735 3-2.4375 7h1.7188l0.40625-1.25h2.6562l0.4375 1.25h1.7188l-2.4688-7zm5.5312 0v7h2.0216v-0.71875c0.24291 0.3081 0.33063 0.50849 0.62606 0.65625 0.29543 0.14462 0.61594 0.21875 1 0.21875 0.67948-0.000001 1.2509-0.2344 1.6875-0.75 0.43657-0.51874 0.65624-1.1857 0.65625-2-0.000006-0.81427-0.21968-1.4844-0.65625-2-0.43658-0.51874-1.008-0.78124-1.6875-0.78125-0.38406 0.0000054-0.70457 0.070992-1 0.21875-0.29543 0.14462-0.38315 0.3794-0.62606 0.6875v-2.5312zm-4.5 1.6562 0.90625 2.7812h-1.8125zm7.4914 1.1875c0.37749 0.0000042 0.67804 0.14217 0.875 0.40625 0.20023 0.26409 0.28124 0.65323 0.28125 1.1562-0.000005 0.50303-0.08102 0.89216-0.28125 1.1562-0.19696 0.26409-0.49751 0.375-0.875 0.375-0.3775 0.0000011-0.48504-0.11091-0.68856-0.375-0.20023-0.26723-0.28125-0.65637-0.28125-1.1562-0.000003-0.49988 0.08101-0.89216 0.28125-1.1562 0.20352-0.26723 0.31106-0.40625 0.68856-0.40625zm-6.996 6.1563l3 3 3-3z"/>
</svg>
