<svg width="16" height="16" version="1.1" xmlns="http://www.w3.org/2000/svg">
	<path fill="#bebebe" d="m2.5 4c-0.831 0-1.5 0.669-1.5 1.5v3c0 0.831 0.669 1.5 1.5 1.5h2.5v-2h-1.5c-0.277 0-0.5-0.223-0.5-0.5v-1c0-0.277 0.223-0.5 0.5-0.5h5c0.277 0 0.5 0.223 0.5 0.5v0.5h2v-1.5c0-0.831-0.669-1.5-1.5-1.5h-7zm9.5 0v2h0.5c0.277 0 0.5 0.223 0.5 0.5v1c0 0.277-0.223 0.5-0.5 0.5h-3.9922c-0.277 0-0.5-0.223-0.5-0.5v-0.5h-2v1.5c0 0.831 0.669 1.5 1.5 1.5h5.9922c0.831 0 1.5-0.669 1.5-1.5v-3c0-0.831-0.669-1.5-1.5-1.5h-1.5zm-7 8l3 3 3-3h-6z"/>
</svg>
