<svg width="16" height="16" version="1.1" xmlns="http://www.w3.org/2000/svg">
	<path fill="#bebebe" d="m2 3v2h12v-2h-12zm0 4v.5957a1.5002 1.5002 0 0 1 .4766 -.0879 1.5002 1.5002 0 0 1 1.082 .4395l.4375.4375.4394-.4375a1.5002 1.5002 0 0 1 2.1211 0l1.0547 1.0527h6.3887v-2h-12zm.4980 2.0078l-1.496 1.4982 1.498 1.498-1.498 1.498 1.498 1.498 1.498-1.498 1.5 1.498 1.4981-1.498-1.4981-1.498 1.4981-1.498-1.5-1.4982-1.5 1.4982-1.4981-1.4982zm5.9122 1.9922a1.5002 1.5002 0 0 1 -.3536 .566l-.4375.438.4375.437a1.5002 1.5002 0 0 1 .3516 .559h5.5918v-2h-5.5898z"/>
</svg>
