<svg width="16" height="16" version="1.1" xmlns="http://www.w3.org/2000/svg">
	<path fill="#bebebe" d="m2 3c-.554 0-1 .446-1 1v3h2a1.0001 1.0001 0 0 1 1 1v1.3418l.5625-.4668.5937 0.5-1.1562.9610v1.664a1.0001 1.0001 0 0 1 -.1348 0.5 1.0001 1.0001 0 0 1 .1348 0.5h10c.554 0 1-.446 1-1v-8c0-.554-.446-1-1-1h-12zm0 1l6 5 6-5v1l-6 5-6-5v-1zm-1 4v4h2v-4h-2zm10.438.875l2.562 2.125v1l-3.156-2.625.594-0.5zm-10.438 4.125v2h2v-2h-2z"/>
	<path fill="#d40000" class="error" d="m1 8v4h2v-4zm0 5v2h2v-2z"/>
</svg>
