<svg width="16" height="16" version="1.1" xmlns="http://www.w3.org/2000/svg">
  <path d="m8.3023 1c-0.197 0.003-0.3989 0.077-0.5348 0.2188l-5.2759 5.2515c-0.1902 0.1842-0.2623 0.4735-0.1945 0.7294s0.2536 0.443 0.5106 0.5106c0.2569 0.0675 0.5445-0.0051 0.7294-0.1945l5.057-5.0327h4.1329v4.2304l-6.5399 6.5155-2.6257-2.626 4.3033-4.2786h0.9968v1.0455l-2.723 2.7231c-0.1902 0.184-0.2623 0.449-0.1945 0.705s0.2779 0.443 0.5349 0.511c0.2569 0.067 0.5201-0.006 0.705-0.195l2.9421-2.9418c0.142-0.1354 0.24-0.3143 0.243-0.5106v-2.0665c0.003-0.1987-0.078-0.3942-0.219-0.5349s-0.3353-0.2219-0.5348-0.2188h-2.0422c-0.1971 0.003-0.399 0.077-0.5349 0.2188l-5.057 5.0328c-0.2872 0.286-0.2879 0.759 0 1.045l3.6712 3.647c0.2879 0.287 0.7581 0.286 1.0454 0l7.2933-7.2692c0.143-0.1354 0.241-0.3143 0.244-0.5106l-0.025-5.2515c-0.001-0.2294-0.107-0.4451-0.291-0.5835-0.13-0.1037-0.272-0.1686-0.438-0.1702h-5.1787z" fill="#bebebe"/>
</svg>
