<svg width="16" height="16" version="1.1" xmlns="http://www.w3.org/2000/svg">
	<path d="m2.5 1c-.831 0-1.5.669-1.5 1.5v.5a1 1 0 0 1 1 1 1 1 0 0 1 -1 1v2a1 1 0 0 1 1 1 1 1 0 0 1 -1 1v2a1 1 0 0 1 1 1 1 1 0 0 1 -1 1v.5c0 .831.669 1.5 1.5 1.5h.5a1 1 0 0 1 1 -1 1 1 0 0 1 1 1h2a1 1 0 0 1 1 -1 1 1 0 0 1 1 1h2a1 1 0 0 1 1 -1 1 1 0 0 1 1 1h.5c.831 0 1.5-.669 1.5-1.5v-.5a1 1 0 0 1 -1 -1 1 1 0 0 1 1 -1v-2a1 1 0 0 1 -1 -1 1 1 0 0 1 1 -1v-2a1 1 0 0 1 -1 -1 1 1 0 0 1 1 -1v-.5c0-.831-.669-1.5-1.5-1.5h-.5a1 1 0 0 1 -1 1 1 1 0 0 1 -1 -1h-2a1 1 0 0 1 -1 1 1 1 0 0 1 -1 -1h-2a1 1 0 0 1 -1 1 1 1 0 0 1 -1 -1h-.5zm.5 2h10v10h-10v-10zm5.0859 1c-.5430 0-1.0674.1008-1.5742.3027-.5038.2020-.9461.4873-1.3262.8555-0.38.3712-.6718.8010-.8769 1.291s-.3086 1.0064-.3086 1.5469c0 .5612.1006 1.0862.3027 1.5762.2021.4867.4967.9157.8828 1.2867.3862.372.8256.653 1.3204.846.4947.196 1.022.295 1.58.295.4586 0 .9101-.078 1.3536-.232.4464-.152.8575-.371 1.2345-.659l-.485-.722c-.2675.237-.5921.427-.9722.566-.3801.140-.7605.209-1.1406.209-.4435 0-.8598-.076-1.252-.230-.3891-.152-.7354-.373-1.0371-.664-.3047-.2978-.5383-.6398-.7012-1.0258-.1598-.3890-.2402-.8036-.2402-1.2461 0-.5375.1237-1.0378.3711-1.4981.2504-.4632.5985-.8398 1.0449-1.1308.2715-.1752.5670-.3074.8867-.3965.3198-.0920.6560-.1387 1.0059-.1387.5007 0 .9642.0990 1.3926.2950.4313.1959.7911.4756 1.0781.8378.178.2168.311.4555.398.7168.088.2584.131.5351.131.8321 0 .4662-.108.8504-.322 1.1504-.214.2969-.507.4728-.8808.5293v-3.086h-.9473v.5821c-.0905-.2109-.2354-.3754-.4375-.4942-.1991-.1188-.4346-.1777-.7031-.1777-.5159 0-.9359.1854-1.2617.5566s-.4883.8534-.4883 1.4473.1616 1.078.4844 1.4492c.3257.3682.7467.5503 1.2656.5503.2685 0 .5040-.0575.7031-.1733.2021-.1188.3470-.2833.4375-.4942v.6875h.1777c.8964 0 1.5884-.2245 2.0804-.6699.491-.4454.738-1.0703.738-1.875 0-.3742-.058-.7298-.176-1.0684-.114-.3415-.284-.6582-.512-.9492-.370-.4781-.832-.8433-1.3843-1.0957-.5520-.2554-1.1661-.3828-1.8418-.3828zm-.0625 2.8457c.2715 0 .4866.1056.6465.3164.1629.2079.2442.4923.2442.8516 0 .3623-.0804.6494-.2403.8633-.1599.2108-.3740.3164-.6426.3164-.2714 0-.4866-.1056-.6464-.3164-.1569-.2109-.2364-.4981-.2364-.8633 0-.3593.0795-.6437.2364-.8516.1598-.2108.3732-.3164.6386-.3164z" fill="#bebebe"/>
</svg>
