<svg width="16" height="16" version="1.1" xmlns="http://www.w3.org/2000/svg">
	<path d="m8 1c-3.866 0-7 3.134-7 7s3.134 7 7 7 7-3.134 7-7-3.134-7-7-7zm2.1055 1.3848a6 6 0 0 1 .06836 .023438 6 6 0 0 1 .54688 .24414 6 6 0 0 1 .52148 .29883 6 6 0 0 1 .48828 .34961 6 6 0 0 1 .44922 .39453 6 6 0 0 1 .41016 .43945 6 6 0 0 1 .36133 .47656 6 6 0 0 1 .31445 .51172 6 6 0 0 1 .25977 .54102 6 6 0 0 1 .16211 .43945l-2.8438.94922a3 3 0 0 0 -.04687 -.14062 3 3 0 0 0 -.12305 -.27344 3 3 0 0 0 -.15039 -.25977 3 3 0 0 0 -.17383 -.24414 3 3 0 0 0 -.19726 -.22461 3 3 0 0 0 -.21875 -.20508 3 3 0 0 0 -.24023 -.18164 3 3 0 0 0 -.25586 -.15625 3 3 0 0 0 -.26953 -.13086 3 3 0 0 0 -.11523 -.041016l1.0527-2.8105zm-2.1055 3.6152c1.1046 0 2 .89543 2 2s-.89543 2-2 2-2-.89543-2-2 .89543-2 2-2zm0 1c-.55228 0-1 .44772-1 1s.44772 1 1 1 1-.44772 1-1-.44772-1-1-1zm-2.8438 1.9473a3 3 0 0 0 1.791 1.8574l-1.0527 2.8105a6 6 0 0 1 -3.582 -3.7187l2.8438-.94922z" fill="#bebebe"/>
</svg>
