<svg width="16" height="16" version="1.1" xmlns="http://www.w3.org/2000/svg">
 <path d="m2.5 3c-0.831 0-1.5 0.669-1.5 1.5v6c0 0.831 0.669 1.5 1.5 1.5h11c0.831 0 1.5-0.669 1.5-1.5v-6c0-0.831-0.669-1.5-1.5-1.5h-11zm2 2c1.3748 0 2.5 1.1252 2.5 2.5 0 0.56453-0.21241 1.0803-0.53125 1.5h3.0625c-0.31884-0.41974-0.53125-0.93547-0.53125-1.5 0-1.3748 1.1252-2.5 2.5-2.5s2.5 1.1252 2.5 2.5-1.1252 2.5-2.5 2.5h-0.5-6-0.5c-1.3748 0-2.5-1.1252-2.5-2.5s1.1252-2.5 2.5-2.5zm0 1c-0.83435 0-1.5 0.66565-1.5 1.5s0.66565 1.5 1.5 1.5 1.5-0.66565 1.5-1.5-0.66565-1.5-1.5-1.5zm7 0c-0.83435 0-1.5 0.66565-1.5 1.5s0.66565 1.5 1.5 1.5 1.5-0.66565 1.5-1.5-0.66565-1.5-1.5-1.5z" fill="#bebebe"/>
</svg>
