<svg width="16" height="16" version="1.1" xmlns="http://www.w3.org/2000/svg">
 <path d="m11 2v2h-1.0313c-3.574 0-4.1377 2.5061-6.25 4.3125-0.51042 0.43652-0.98792 0.6875-1.75 0.6875h-0.9687v2h0.9688c1.2565 0 2.2996-0.5047 3.0625-1.1875 1.7928-1.6046 2.5712-3.8125 4.9375-3.8125h1.0313v2l4-3-4-3zm0 6v2h-1.0313c-1.1237 0-1.8762-0.5239-2.5625-1.2188-0.383 0.4641-0.8197 0.9506-1.3437 1.4688 0.9018 0.98 1.9442 1.75 3.9062 1.75h1.0313v2l4-3-4-3zm-10-3v2h0.96875c0.51388 0 0.89757 0.13557 1.25 0.34375 0.48097-0.44715 0.8979-0.96593 1.3438-1.5-0.70395-0.49267-1.571-0.84375-2.5938-0.84375h-0.96875z" fill="#bebebe"/>
</svg>
