<svg width="16" height="16" version="1.1" xmlns="http://www.w3.org/2000/svg">
	<path fill="#bebebe" d="m10.5 1c-1.385 0-2.5 1.115-2.5 2.5v4c0 1.385 1.115 2.5 2.5 2.5s2.5-1.115 2.5-2.5v-4c0-1.385-1.115-2.5-2.5-2.5zm-4 4c-.2761 0-.5.2239-.5.5v2c0 .2275.0203.4502.0527.6680a1.0001 1.0001 0 0 1 .1524 .1250l1.5019 1.5a1.0001 1.0001 0 0 1 .0996 1.295c.3603.268.7613.484 1.1934.637v1.275h-1.1348a1.0001 1.0001 0 0 1 -.1582 1.207l-.7929.793h8.0859v-1c0-.554-.446-1-1-1h-2v-1.275c1.746-.618 3-2.2617 3-4.225v-2c0-.2761-.224-0.5-0.5-0.5s-0.5.2239-0.5 0.5v2c0 1.939-1.561 3.5-3.5 3.5s-3.5-1.561-3.5-3.5v-2c0-.2761-.2239-0.5-0.5-0.5zm-4 4l-1.498 1.5 1.5 1.5-1.5 1.5 1.5 1.5 1.498-1.5 1.5 1.5 1.5-1.5-1.5-1.5 1.5-1.5-1.502-1.5-1.498 1.5-1.5-1.5z"/>
	<path d="m1 10.5 1.4996-1.5 1.4996 1.5 1.4996-1.5 1.5012 1.5-1.4992 1.5 1.4992 1.5-1.4992 1.5-1.5002-1.5-1.4992 1.5l-1.5002-1.4997 1.5002-1.5008-1.5002-1.4998z" class="error" fill="#d40000"/>
</svg>
