<svg width="16" height="16" version="1.1" xmlns="http://www.w3.org/2000/svg">
 <path d="m9.5391 2c-0.34093 0-0.61523 0.2743-0.61523 0.61523v1.2305c0 0.34092 0.2743 0.61523 0.61523 0.61523h0.28711c-0.55622 1.5735-1.7918 2.809-3.3652 3.3652v-0.28711c0-0.34091-0.27431-0.61523-0.61523-0.61523h-1.2305c-0.34092 0-0.61523 0.27432-0.61523 0.61523v1.8457c0 0.34092 0.26042 0.61523 0.5957 0.61523h0.019531c4.0719 0 7.3742-3.2958 7.3848-7.3652v-0.039062c0-0.3334-0.26706-0.5957-0.5957-0.5957h-1.25zm1.5664 7c-0.78136 0.64834-1.68 1.518-3.0645 2.0098l-7.041-0.009766v3h14v-3l-2-2zm-0.60547 1.7969c0.38953 0 0.70312 0.3136 0.70312 0.70312s-0.3136 0.70312-0.70312 0.70312-0.70312-0.3136-0.70312-0.70312 0.3136-0.70312 0.70312-0.70312zm2 0.02344c0.37655 0 0.67969 0.30314 0.67969 0.67969 0 0.37655-0.30314 0.67969-0.67969 0.67969s-0.67969-0.30314-0.67969-0.67969 0.30314-0.67969 0.67969-0.67969z" fill="#bebebe"/>
</svg>
