<svg width="16" height="16" version="1.1" xmlns="http://www.w3.org/2000/svg">
	<path fill="#bebebe" d="m9 4v2h4v2h-2v4h2v-2h2v-4-2h-6zm2 9v2h2v-2h-2z"/>
	<path opacity=".45" fill="#bebebe" d="m14.201 1c-0.202 0-0.405 0.0791-0.562 0.2363l-1.75 1.75h-1.875c-0.0227 0.0005-0.0428 0.0109-0.0648 0.0137h4.1758l0.639-0.6387c0.314-0.3144 0.314-0.8106 0-1.125-0.158-0.1572-0.36-0.2363-0.563-0.2363zm-6.201 3.75l-0.7988 0.7988c-0.2356 0.2444-0.2356 0.6306 0 0.875l2.375 2.375c0.1113 0.1193 0.2649 0.1693 0.4238 0.1797v-0.9785a1.0001 1.0001 0 0 1 1 -1h-2a1.0001 1.0001 0 0 1 -1 -1v-1.25zm-2.1699 2.2637c-0.1091 0.0359-0.2063 0.1007-0.2813 0.1875l-2.375 2.375c-0.1173 0.1158-0.1846 0.2725-0.1875 0.4378v1.875l-1.75 1.75c-0.31436 0.314-0.31436 0.81 0 1.125 0.3144 0.314 0.8106 0.314 1.125 0l1.75-1.75h1.875c0.1648-0.004 0.3217-0.071 0.4375-0.188l2.375-2.375c0.2356-0.244 0.2356-0.6304 0-0.8748l-2.375-2.375c-0.1512-0.162-0.3765-0.2331-0.5937-0.1875z"/>
</svg>
