<svg width="16" height="16" version="1.1" xmlns="http://www.w3.org/2000/svg">
	<path fill="#bebebe" d="m8.002 1a12 12 0 0 0 -6.879 2.1738l1.1504 1.6446a10 10 0 0 1 1.7383 -0.9786 1.0001 1.0001 0 0 1 0.9883 -0.8398h2.8984 0.1036 2.998a1.0001 1.0001 0 0 1 0.984 0.834 10 10 0 0 1 1.75 0.9765l1.143-1.6289a12 12 0 0 0 -6.875 -2.1816zm-3.002 3v2h4v2h-2v4h2v-2h2v-6h-6zm-1 0.9551a9 9 0 0 0 -1.1562 0.6758l1.1503 1.6425a7 7 0 0 1 0.584 -0.3691 1.0001 1.0001 0 0 1 -0.5781 -0.9043v-1.0449zm8 0.0039v2.2988a7 7 0 0 1 0.016 0.0098l1.14-1.6309a9 9 0 0 0 -1.156 -0.6777zm-5.6484 2.2793a6 6 0 0 0 -1.7871 0.8496l1.1464 1.6387a4 4 0 0 1 0.2891 -0.1817v-1.5449a1.0001 1.0001 0 0 1 0.3516 -0.7617zm0.6484 5.7617v2h2v-2h-2z"/>
</svg>
