<svg width="16" height="16" version="1.1" xmlns="http://www.w3.org/2000/svg">
	<path fill="#bebebe" d="m14.201 1c-0.202 0-0.405 0.0791-0.562 0.2363l-1.75 1.75h-1.875c-0.1654 0.0033-0.322 0.0706-0.4378 0.1875l-2.375 2.375c-0.2356 0.2444-0.2356 0.6306 0 0.875l1.8398 1.8399c0.0685-0.3253 0.2263-0.6471 0.4805-0.8711 0.3492-0.3077 0.7655-0.3926 1.1035-0.3926h1.625l0.576-0.5762c0.117-0.1158 0.185-0.2728 0.188-0.4375v-1.875l1.75-1.75c0.314-0.3144 0.314-0.8106 0-1.125-0.158-0.1572-0.36-0.2363-0.563-0.2363zm-8.3709 6.0137c-0.1091 0.0359-0.2063 0.1007-0.2813 0.1875l-2.375 2.375c-0.1173 0.1158-0.1846 0.2725-0.1875 0.4378v1.875l-1.75 1.75c-0.31436 0.314-0.31436 0.81 0 1.125 0.3144 0.314 0.8106 0.314 1.125 0l1.75-1.75h1.875c0.1648-0.004 0.3217-0.071 0.4375-0.188l1.6621-1.662c0.1376-0.36 0.4351-0.632 0.7871-0.826 0.1468-0.24 0.1288-0.5513-0.0742-0.7618l-2.375-2.375c-0.1512-0.162-0.3765-0.2331-0.5937-0.1875zm4.7949 0.9863c-0.346 0-0.625 0.1716-0.625 0.625v2.375h-0.375c-0.346 0-0.625 0.279-0.625 0.625v2.75c0 0.346 0.279 0.625 0.625 0.625h4.75c0.346 0 0.625-0.279 0.625-0.625v-2.75c0-0.346-0.279-0.625-0.625-0.625h-0.375v-2.375c0-0.3462-0.279-0.625-0.625-0.625h-2.75zm0.375 1h2v2h-2v-2z"/>
</svg>
