<svg height="16" width="16" xmlns="http://www.w3.org/2000/svg">
	<path d="m3 1c-1.108 0-2 .892-2 2v10c0 1.108.892 2 2 2h10c1.108 0 2-.892 2-2v-10c0-1.108-.892-2-2-2zm5.002 2a10 10 0 0 1 5.728 1.8184l-.951 1.3574a8.3334 8.3334 0 0 0 -4.777-1.5098 8.3334 8.3334 0 0 0 -4.7735 1.5156l-.959-1.3711a10 10 0 0 1 5.7325-1.8105zm0 2.5a7.5 7.5 0 0 1 4.295 1.3633l-.951 1.3594a5.8333 5.8333 0 0 0 -3.344-1.0567 5.8333 5.8333 0 0 0 -3.3418 1.0625l-.9571-1.3691a7.5 7.5 0 0 1 4.2989-1.3594zm0 2.5a5 5 0 0 1 2.865.9082l-.9529 1.3628a3.3333 3.3333 0 0 0 -1.9121-.605 3.3333 3.3333 0 0 0 -1.9082.607l-.9571-1.3668a5 5 0 0 1 2.8653-.9062zm0 2.5a2.5 2.5 0 0 1 1.4335.455l-1.4335 2.045-1.4317-2.047a2.5 2.5 0 0 1 1.4317-.453z" fill="#ff9000"/>
</svg>
