<svg width="16" height="16" version="1.1" xmlns="http://www.w3.org/2000/svg">
	<path d="m5 13a1 1 0 0 0 -1 1 1 1 0 0 0 1 1 1 1 0 0 0 1 -1 1 1 0 0 0 -1 -1zm3 0a1 1 0 0 0 -1 1 1 1 0 0 0 1 1 1 1 0 0 0 1 -1 1 1 0 0 0 -1 -1zm3.0002 0a1 1 0 0 0 -1 1 1 1 0 0 0 1 1 1 1 0 0 0 1 -1 1 1 0 0 0 -1 -1z" fill="#bebebe"/>
	<path opacity=".45" fill="#bebebe" d="m8.002 1a12 12 0 0 0 -6.879 2.1738l1.1504 1.6446a10 10 0 0 1 5.7286 -1.8184 10 10 0 0 1 5.732 1.8105l1.143-1.6289a12 12 0 0 0 -6.875 -2.1816zm0 3a9 9 0 0 0 -5.1582 1.6309l1.1503 1.6425a7 7 0 0 1 4.0079 -1.2734 7 7 0 0 1 4.014 1.2676l1.14-1.6309a9 9 0 0 0 -5.154 -1.6367zm0 3a6 6 0 0 0 -3.4375 1.0879l1.1464 1.6387a4 4 0 0 1 2.2911 -0.7266 4 4 0 0 1 2.295 0.7246l1.142-1.6348a6 6 0 0 0 -3.437 -1.0898zm0 3a3 3 0 0 0 -1.7188 0.543l1.1152 1.594c0.1884-0.08 0.3856-0.137 0.6016-0.137 0.2175 0 0.416 0.058 0.6055 0.139l1.1172-1.594a3 3 0 0 0 -1.7207 -0.545z"/>
</svg>
