<svg width="16" height="16" version="1.1" xmlns="http://www.w3.org/2000/svg">
	<path opacity=".45" d="m14.188 1c-0.21 0-0.419 0.0793-0.577 0.2363l-0.761 0.7617h-1.602c-0.153 0.0008-0.3 0.0618-0.408 0.17l-2.174 2.1679c-0.2252 0.2258-0.2252 0.5907 0 0.8164l2.174 2.168c0.11 0.1106 0.261 0.1719 0.418 0.1699 0.15-0.0027 0.294-0.0636 0.4-0.1699l2.174-2.168c0.109-0.1083 0.17-0.255 0.17-0.4082v-1.6015l0.762-0.7539c0.314-0.315 0.314-0.8374 0-1.1524-0.158-0.157-0.367-0.2363-0.576-0.2363zm-9.4458 7.5098c-0.1505 0.0027-0.2941 0.0636-0.4004 0.1699l-2.1738 2.1683c-0.1086 0.108-0.1697 0.255-0.17 0.408v1.601l-0.7617 0.754c-0.31436 0.315-0.31436 0.838 0 1.153 0.3144 0.314 0.838 0.314 1.1524 0l0.7617-0.762h1.6016c0.1532-0.001 0.2999-0.062 0.4082-0.17l2.1738-2.168c0.2252-0.226 0.2252-0.591 0-0.816l-2.1738-2.1683c-0.1107-0.1106-0.2614-0.1719-0.418-0.1699z" fill="#bebebe"/>
</svg>
