<svg width="16" height="16" version="1.1" xmlns="http://www.w3.org/2000/svg">
	<path fill="#bebebe" d="m8.0029 11a3 3 0 0 0 -1.7188 0.54297l1.7188 2.457 1.7188-2.455a3 3 0 0 0 -1.7188 -0.545z"/>
	<path opacity=".45" fill="#bebebe" d="m8.002 2a12 12 0 0 0 -6.879 2.1738l1.1504 1.6446a10 10 0 0 1 5.7286 -1.8184 10 10 0 0 1 5.732 1.8105l1.143-1.6289a12 12 0 0 0 -6.875 -2.1816zm0 3a9 9 0 0 0 -5.1582 1.6309l1.1503 1.6425a7 7 0 0 1 4.0079 -1.2734 7 7 0 0 1 4.014 1.2676l1.14-1.6309a9 9 0 0 0 -5.154 -1.6367zm0 3a6 6 0 0 0 -3.4375 1.0879l1.1464 1.6391a4 4 0 0 1 2.2911 -0.727 4 4 0 0 1 2.295 0.725l1.142-1.6352a6 6 0 0 0 -3.437 -1.0898z"/>
</svg>
