<svg width="16" height="16" version="1.1" xmlns="http://www.w3.org/2000/svg">
	<path fill="#bebebe" d="m11 2c-0.554 0-1 0.446-1 1v5.1348a1.0001 1.0001 0 0 1 0.484 -0.1348 1.0001 1.0001 0 0 1 0.723 0.293l0.793 0.7929v-6.0859c0-0.554-0.446-1-1-1zm-3 3c-0.554 0-1 0.446-1 1v6c0 0.554 0.446 1 1 1 0.0547 0 0.102-0.023 0.1543-0.031a1.0001 1.0001 0 0 1 0.1406 -0.176l0.6836-0.684c0.0043-0.037 0.0215-0.07 0.0215-0.109v-0.088l-0.7051-0.705a1.0001 1.0001 0 0 1 0 -1.414l0.7051-0.7051v-3.0879c0-0.554-0.446-1-1-1zm-3 2c-0.554 0-1 0.446-1 1v4c0 0.554 0.446 1 1 1s1-0.446 1-1v-4c0-0.554-0.446-1-1-1zm-3 2c-0.554 0-1 0.446-1 1v2c0 0.554 0.446 1 1 1s1-0.446 1-1v-2c0-0.554-0.446-1-1-1zm8.5 0l-1.498 1.5 1.5 1.5-1.5 1.5 1.5 1.5 1.498-1.5 1.5 1.5 1.5-1.5-1.5-1.5 1.5-1.5-1.502-1.5-1.498 1.5-1.5-1.5z"/>
	<path d="m9 10.5 1.5-1.5 1.499 1.5 1.5-1.5 1.501 1.5-1.499 1.5 1.499 1.5-1.499 1.5-1.5-1.5-1.5 1.5l-1.5002-1.4998 1.5002-1.5008-1.5002-1.4998z" class="error" fill="#d40000"/>
</svg>
