<svg width="16" height="16" version="1.1" xmlns="http://www.w3.org/2000/svg">
	<path fill="#bebebe" d="m5.8296 7.0142c-0.1091 0.0359-0.2063 0.1007-0.2813 0.1875l-2.375 2.375c-0.1173 0.1158-0.1846 0.2728-0.1875 0.4378v1.875l-1.75 1.75c-0.31439 0.314-0.31439 0.81 0 1.125 0.3144 0.314 0.8106 0.314 1.125 0l1.75-1.75h1.875c0.1648-0.004 0.3217-0.071 0.4375-0.188l2.375-2.375c0.2356-0.244 0.2356-0.6304 0-0.8748l-2.375-2.375c-0.1512-0.162-0.3765-0.2331-0.5937-0.1875z"/>
	<path opacity=".45" fill="#bebebe" d="m14.2 1.0005c-0.202 0-0.405 0.0791-0.562 0.2363l-1.75 1.75h-1.875c-0.1651 0.0033-0.322 0.0706-0.4378 0.1875l-2.375 2.375c-0.2356 0.2444-0.2356 0.6306 0 0.875l2.375 2.375c0.1512 0.162 0.3765 0.2331 0.5938 0.1875 0.109-0.0359 0.206-0.1007 0.281-0.1875l2.375-2.375c0.117-0.1158 0.185-0.2728 0.188-0.4375v-1.875l1.75-1.75c0.314-0.3144 0.314-0.8106 0-1.125-0.158-0.1572-0.36-0.2363-0.563-0.2363z"/>
</svg>
