<svg width="16" height="16" version="1.1" xmlns="http://www.w3.org/2000/svg">
	<path d="m9 3v2h4v2h-2v4h2v-2h2v-4-2h-6zm2 9v2h2v-2h-2z" fill="#bebebe"/>
	<path opacity=".45" fill="#bebebe" d="m8.1426 5.5137c-0.0828 0.1457-0.1426 0.306-0.1426 0.4863v6c0 0.554 0.446 1 1 1s1-0.446 1-1v-0.023-0.977-4-1h-1a1.0001 1.0001 0 0 1 -0.8574 -0.4863zm-2.1426 1.4863c-0.554 0-1 0.446-1 1v4c0 0.554 0.446 1 1 1s1-0.446 1-1v-4c0-0.554-0.446-1-1-1zm-3 2c-0.554 0-1 0.446-1 1v2c0 0.554 0.446 1 1 1s1-0.446 1-1v-2c0-0.554-0.446-1-1-1z"/>
</svg>
