<svg width="16" height="16" version="1.1" xmlns="http://www.w3.org/2000/svg">
	<path d="m9 10.5 1.5-1.5 1.499 1.5 1.5-1.5 1.501 1.5-1.499 1.499 1.499 1.501-1.499 1.5-1.5-1.5-1.5 1.5l-1.5002-1.4998 1.5002-1.5008-1.5002-1.4997z" class="error" fill="#d40000"/>
	<path opacity=".45" fill="#bebebe" d="m14.201 1c-0.202 0-0.405 0.0791-0.562 0.2363l-1.75 1.75h-1.875c-0.1654 0.0033-0.322 0.0706-0.4378 0.1875l-2.375 2.375c-0.2356 0.2444-0.2356 0.6306 0 0.875l2.2304 2.2305 0.3614-0.3613a1.0001 1.0001 0 0 1 0.691 -0.293 1.0001 1.0001 0 0 1 0.586 0.1797l1.756-1.7559c0.117-0.1158 0.185-0.2728 0.188-0.4375v-1.875l1.75-1.75c0.314-0.3144 0.314-0.8106 0-1.125-0.158-0.1572-0.36-0.2363-0.563-0.2363zm-8.3709 6.0137c-0.1091 0.0359-0.2063 0.1007-0.2813 0.1875l-2.375 2.375c-0.1173 0.1158-0.1846 0.2725-0.1875 0.4378v1.875l-1.75 1.75c-0.31436 0.314-0.31436 0.81 0 1.125 0.3144 0.314 0.8106 0.314 1.125 0l1.75-1.75h1.875c0.1648-0.004 0.3217-0.071 0.4375-0.188l1.7578-1.758a1.0001 1.0001 0 0 1 0.1133 -1.275l0.3594-0.3614-2.2305-2.2304c-0.1512-0.162-0.3765-0.2331-0.5937-0.1875z"/>
</svg>
