<svg width="16" height="16" version="1.1" xmlns="http://www.w3.org/2000/svg">
	<path d="m9 10.5 1.5-1.5 1.499 1.5 1.5-1.5 1.501 1.5-1.499 1.499 1.499 1.501-1.499 1.5-1.5-1.5-1.5 1.5-1.5002-1.5 1.5002-1.501-1.5002-1.499z" class="error" fill="#d40000"/>
	<path opacity=".45" d="m8.002 2a12 12 0 0 0 -6.879 2.1738l1.1504 1.6446a10 10 0 0 1 5.7286 -1.8184 10 10 0 0 1 5.732 1.8105l1.143-1.6289a12 12 0 0 0 -6.875 -2.1816zm0 3a9 9 0 0 0 -5.1582 1.6309l1.1503 1.6425a7 7 0 0 1 4.0079 -1.2734 7 7 0 0 1 4.014 1.2676l1.14-1.6309a9 9 0 0 0 -5.154 -1.6367zm0 3a6 6 0 0 0 -3.4375 1.0879l1.1464 1.6391a4 4 0 0 1 2.2911 -0.727 4 4 0 0 1 0.1289 0.006 1.0001 1.0001 0 0 1 0.1621 -0.213l1.5-1.5a1.0001 1.0001 0 0 1 0.0117 -0.0098 6 6 0 0 0 -1.8027 -0.2832zm0 3a3 3 0 0 0 -1.7188 0.543l1.7188 2.457 0.0781-0.111a1.0001 1.0001 0 0 1 0.2129 -1.096l0.7949-0.793-0.7949-0.793a1.0001 1.0001 0 0 1 -0.1543 -0.201 3 3 0 0 0 -0.1367 -0.006z" fill="#bebebe"/>
</svg>
