<svg width="16" height="16" version="1.1" xmlns="http://www.w3.org/2000/svg">
	<path d="m6.75 1c-0.9522 0-1.75 0.7978-1.75 1.75v0.25h4.25 3.75v4h-1v3.25c0 0.72599-0.33794 1.3017-0.82812 1.75h3.8281l-1.875-3h0.125c0.9522 0 1.75-0.7978 1.75-1.75v-4.5c0-0.9522-0.7978-1.75-1.75-1.75h-6.5zm-4 3c-0.9522 0-1.75 0.7978-1.75 1.75v4.5c0 0.9522 0.7978 1.75 1.75 1.75h0.125l-1.875 3h10l-1.875-3h0.125c0.9522 0 1.75-0.7978 1.75-1.75v-4.5c0-0.9522-0.7978-1.75-1.75-1.75h-6.5zm0.25 2h6v4h-6v-4z" fill="#bebebe" />
</svg>
