<svg width="16" height="16" version="1.1" xmlns="http://www.w3.org/2000/svg">
	<path d="m8.0029 2a12 12 0 0 0 -6.8789 2.1738l1.1504 1.6446a10 10 0 0 1 5.7285 -1.8184 10 10 0 0 1 5.7321 1.8105l1.141-1.6289a12 12 0 0 0 -6.8731 -2.1816zm0 3a9 9 0 0 0 -5.1582 1.6309l1.1485 1.6425a7 7 0 0 1 4.0097 -1.2734 7 7 0 0 1 4.0121 1.2676l1.142-1.6309a9 9 0 0 0 -5.1541 -1.6367zm0 3a6 6 0 0 0 -3.4394 1.0879l1.1484 1.6391a4 4 0 0 1 2.291 -0.727 4 4 0 0 1 2.2931 0.725l1.144-1.6352a6 6 0 0 0 -3.4371 -1.0898zm0 3a3 3 0 0 0 -1.7188 0.54297l1.7188 2.457 1.7188-2.455a3 3 0 0 0 -1.7188 -0.545z" fill="#bebebe"/>
</svg>
