<svg width="16" height="16" version="1.1" xmlns="http://www.w3.org/2000/svg">
	<path fill="#bebebe" d="m7.9948 1c-2.461 0.005-4.861 0.76664-6.875 2.1816l1.1426 1.6289c1.6798-1.177 3.6813-1.8091 5.7324-1.8105 2.0512 0.0044 4.0502 0.6392 5.7282 1.8184l1.1504-1.6445c-2.015-1.4131-4.416-2.172-6.8782-2.1739zm0 3c-1.8452 0.0043-3.6443 0.57572-5.1543 1.6367l1.1406 1.6309c1.1764-0.8244 2.5773-1.2669 4.0137-1.2676 1.2597 0.0056 2.4945 0.3511 3.5742 1h0.625l0.95898-1.3691c-1.511-1.0598-3.3122-1.6291-5.1582-1.6309zm0 3c-1.2303 0.0023-2.4305 0.38274-3.4375 1.0898l1.1426 1.6348c0.6725-0.4714 1.4737-0.7244 2.2949-0.7246 0.3384 0.0024 0.67495 0.047666 1.002 0.13477v-0.50977c0-0.5638 0.30375-1.067 0.75195-1.3594-0.5683-0.175-1.1594-0.2645-1.754-0.2656zm2.627 1c-0.346 0-0.625 0.2788-0.625 0.625v2.375h-0.375c-0.346 0-0.625 0.279-0.625 0.625v2.75c0 0.346 0.279 0.625 0.625 0.625h4.75c0.346 0 0.625-0.279 0.625-0.625v-2.75c0-0.346-0.279-0.625-0.625-0.625h-0.375v-2.375c0-0.4534-0.279-0.625-0.625-0.625h-2.75zm0.375 1h2v2h-2v-2zm-3.002 1c-0.6159 0.001-1.2167 0.19092-1.7207 0.54492l1.7205 2.455 0.00195-0.002v-1.373c0-0.642 0.4465-1.1013 1-1.3633v-0.08399c-0.3214-0.116-0.6603-0.176-1.002-0.178z"/>
</svg>
