<svg width="16" height="16" version="1.1" xmlns="http://www.w3.org/2000/svg">
	<path fill="#bebebe" d="m8.002 1.6992-2.1641 4.377-4.8379.7011 3.498 3.4087-.8281 4.81 4.3262-2.269 4.3259 2.273-.824-4.812 3.502-3.4067-4.836-.7032-2.162-4.3789zm-.0020 3.3848.8184 1.6582a1.5002 1.5002 0 0 0 1.1289 .82031l1.8262.26562-1.3203 1.2832a1.5002 1.5002 0 0 0 -.43359 1.3301l.31055 1.8184-1.6367-.86133a1.5002 1.5002 0 0 0 -1.3945 0l-1.6348.85742.3125-1.8164a1.5002 1.5002 0 0 0 -.4311 -1.3277l-1.3203-1.2851 1.8281-.2657a1.5002 1.5002 0 0 0 1.1289 -.8203l.8184-1.6562z"/>
</svg>
