<svg width="16" height="16" version="1.1" xmlns="http://www.w3.org/2000/svg">
	<path d="m2.4004 1-1.4004 1.4004 12.6 12.6 1.4004-1.4004-1.623-1.623c0.35219-0.06197 0.62305-0.35412 0.62305-0.72461 0-0.12171-0.034907-0.23255-0.085938-0.33398-0.014369-0.02865-0.034954-0.049792-0.052734-0.076172-0.04554-0.06784-0.09739-0.1262-0.16211-0.17578-0.01552-0.01193-0.022613-0.032259-0.039063-0.042969-1.6596-0.62095-1.6602-4.623-1.6602-4.623-0.001751-1.8226-1.2353-3.5346-3-3.9902v-0.0097656c0-0.55228-0.44772-1-1-1s-1 0.44772-1 1v0.0097656c-0.87919 0.227-1.6088 0.76131-2.1289 1.4609l-2.4707-2.4707zm1.3984 7.041c-0.20509 1.089-0.61926 2.2679-1.459 2.582-0.016454 0.01071-0.023542 0.031039-0.039063 0.042969-0.064724 0.04958-0.11657 0.10794-0.16211 0.17578-0.017784 0.02638-0.038367 0.047532-0.052734 0.076172-0.051032 0.10144-0.085938 0.21227-0.085938 0.33398 0 0.4155 0.3345 0.75 0.75 0.75h5.0098l-3.9609-3.9609zm2.2012 4.959c0 1.1046 0.89543 2 2 2 0.72111-6.66e-4 1.386-0.38946 1.7402-1.0176l-0.98242-0.98242h-2.7578z" fill="#bebebe" opacity=".45"/>
</svg>
