<svg width="16" height="16" version="1.1" xmlns="http://www.w3.org/2000/svg">
	<path d="m7 1c-0.55228 0-1 0.44772-1 1v0.0097656c-1.7647 0.45563-2.9982 2.1677-3 3.9902 0 0-4.811e-4 4.0021-1.6602 4.623-0.016454 0.01071-0.023542 0.031039-0.039063 0.042969-0.064724 0.04958-0.11657 0.10794-0.16211 0.17578-0.017784 0.02638-0.038367 0.047532-0.052734 0.076172-0.051032 0.10144-0.085938 0.21227-0.085938 0.33398 0 0.4155 0.3345 0.75 0.75 0.75h7.291a3.5 3.5 0 0 1 2.4668-2.8555c-0.49523-1.371-0.50781-3.1465-0.50781-3.1465-0.0018-1.8226-1.2353-3.5346-3-3.9902v-0.0097656c0-0.55228-0.44772-1-1-1zm5.5 9a2.5 2.5 0 0 0-2.5 2.5 2.5 2.5 0 0 0 2.5 2.5 2.5 2.5 0 0 0 2.5-2.5 2.5 2.5 0 0 0-2.5-2.5zm-7.5 3a2 2 0 0 0 2 2 2 2 0 0 0 2-2h-4z" fill="#bebebe"/>
	<path class="success" d="m12.5 10a2.5 2.5 0 0 0-2.5 2.5 2.5 2.5 0 0 0 2.5 2.5 2.5 2.5 0 0 0 2.5-2.5 2.5 2.5 0 0 0-2.5-2.5z" fill="#008000"/>
</svg>
