<svg width="16" height="16" version="1.1" xmlns="http://www.w3.org/2000/svg">
	<path d="m8 1c-0.55228 0-1 0.44772-1 1v0.0097656c-1.7647 0.45563-2.9982 2.1677-3 3.9902 0 0-5.247e-4 4.0021-1.6602 4.623-0.016454 0.01071-0.023542 0.031039-0.039063 0.042969-0.064724 0.04958-0.11657 0.10794-0.16211 0.17578-0.017784 0.02638-0.038367 0.047532-0.052734 0.076172-0.051032 0.10144-0.085938 0.21227-0.085938 0.33398 0 0.4155 0.3345 0.75 0.75 0.75h10.5c0.4155 0 0.75-0.3345 0.75-0.75 0-0.12171-0.034907-0.23255-0.085938-0.33398-0.014369-0.02865-0.034954-0.049792-0.052734-0.076172-0.04554-0.06784-0.09739-0.1262-0.16211-0.17578-0.01552-0.01193-0.022613-0.032259-0.039063-0.042969-1.6596-0.62095-1.6602-4.623-1.6602-4.623-0.001751-1.8226-1.2353-3.5346-3-3.9902v-0.0097656c0-0.55228-0.44772-1-1-1zm-2 12a2 2 0 0 0 2 2 2 2 0 0 0 2-2h-4z" fill="#bebebe"/>
</svg>
