<svg width="16" height="16" version="1.1" xmlns="http://www.w3.org/2000/svg">
	<path d="m1.4004 1-1.4004 1.4004 9.1367 9.1367a3.5 3.5 0 0 1 2.3711-2.3906c-0.49482-1.3709-0.50781-3.1465-0.50781-3.1465-0.0018-1.8226-1.2353-3.5346-3-3.9902v-0.0097656c0-0.55228-0.44772-1-1-1s-1 0.44772-1 1v0.0097656c-0.87919 0.227-1.6088 0.76135-2.1289 1.4609l-2.4707-2.4707zm1.3984 7.041c-0.20509 1.089-0.61924 2.2679-1.459 2.582-0.016454 0.01071-0.023541 0.031039-0.039063 0.042969-0.064724 0.04958-0.11657 0.10794-0.16211 0.17578-0.017784 0.02638-0.038367 0.047532-0.052734 0.076172-0.051032 0.10144-0.085938 0.21227-0.085938 0.33398 0 0.4155 0.3345 0.75 0.75 0.75h5.0098l-3.9609-3.9609zm9.7012 1.959a2.5 2.5 0 0 0-2.5 2.5 2.5 2.5 0 0 0 2.5 2.5 2.5 2.5 0 0 0 2.5-2.5 2.5 2.5 0 0 0-2.5-2.5zm-7.5 3c0 1.1046 0.89543 2 2 2 0.72111-6.66e-4 1.386-0.38944 1.7402-1.0176l-0.98242-0.98242h-2.7578z" fill="#bebebe" opacity=".45"/>
	<path class="success" d="m12.5 10a2.5 2.5 0 0 0-2.5 2.5 2.5 2.5 0 0 0 2.5 2.5 2.5 2.5 0 0 0 2.5-2.5 2.5 2.5 0 0 0-2.5-2.5z" fill="#008000" opacity=".45"/>
</svg>
