<svg width="16" height="16" version="1.1" xmlns="http://www.w3.org/2000/svg">
	<path d="m4.5 1.5l-0.74414 2.2559-2.2559 0.74414 2.2559 0.74414 0.74414 2.2559 0.74414-2.2559 2.2559-0.74414-2.2559-0.74414-0.74414-2.2559zm4 0.25c-0.4155 0-0.75 0.3345-0.75 0.75s0.3345 0.75 0.75 0.75 0.75-0.3345 0.75-0.75-0.3345-0.75-0.75-0.75zm4 1c-0.4155 0-0.75 0.3345-0.75 0.75s0.3345 0.75 0.75 0.75 0.75-0.3345 0.75-0.75-0.3345-0.75-0.75-0.75zm-1.3906 2.25c0.61968 0.75088 0.99414 1.7102 0.99414 2.7598 0 2.3991-1.9447 4.3438-4.3438 4.3438-1.0496 0-2.0089-0.37446-2.7598-0.99414 0.52525 2.2389 2.5326 3.8906 4.9316 3.8906 2.7989 0 5.0684-2.2695 5.0684-5.0684 0-2.3991-1.6518-4.4064-3.8906-4.9316zm-1.6094 1.75c-0.4155 0-0.75 0.3345-0.75 0.75s0.3345 0.75 0.75 0.75 0.75-0.3345 0.75-0.75-0.3345-0.75-0.75-0.75z" color="#bebebe" fill="#bebebe"/>
</svg>
