<svg width="16" height="16" version="1.1" xmlns="http://www.w3.org/2000/svg">
 <path d="m8 1a7 7 0 0 0 -7 7 7 7 0 0 0 7 7 7 7 0 0 0 7 -7 7 7 0 0 0 -7 -7zm0.054688 1.8398c0.63768 0 1.1543 0.52944 1.1543 1.1816 0 0.6523-0.51661 1.1816-1.1543 1.1816s-1.1543-0.52934-1.1543-1.1816c0-0.6522 0.51661-1.1816 1.1543-1.1816zm4.0391 2.4375v0.00195c0.1529-0.0174 0.30283 0.065484 0.35742 0.20898 0.05458 0.1434-9.47e-4 0.31044-0.12695 0.39844l-3.1191 1.0996 0.042969 2.2227 1.0645 3.4453c0.09291 0.162 0.03759 0.36894-0.125 0.46094-0.16259 0.0925-0.36998 0.0371-0.46289-0.125l-1.7188-3.6973-1.752 3.7031c-0.10453 0.156-0.32564 0.18613-0.48242 0.08203-0.15677-0.1042-0.1885-0.30484-0.083984-0.46094l1.084-3.4297 0.021484-2.291-3.0762-0.99805c-0.11196-0.0586-0.1889-0.16697-0.1875-0.29297 0.00156-0.126 0.13923-0.34045 0.28516-0.31445 3.0034 0.6258 5.4813 0.63863 8.2793-0.013672z" fill="#bebebe"/>
</svg>
