<svg width="16" height="16" version="1.1" xmlns="http://www.w3.org/2000/svg">
	<path d="m4.5 1a3.5 3.5 0 0 0 -3.5 3.5 3.5 3.5 0 0 0 3.5 3.5 3.5 3.5 0 0 0 3.5 -3.5 3.5 3.5 0 0 0 -3.5 -3.5zm-0.5 1h1v1.6328l1.416-0.81641 0.5 0.86719-1.4141 0.81641 1.4141 0.81641-0.5 0.86719-1.416-0.81641v1.6328h-1v-1.6328l-1.416 0.81641-0.5-0.86719 1.4141-0.81641-1.4141-0.81641 0.5-0.86719 1.416 0.81641v-1.6328zm4.9668 2a4.5 4.5 0 0 1 0.033203 0.5 4.5 4.5 0 0 1 -4.5 4.5 4.5 4.5 0 0 1 -0.5 -0.03125v2.5312c0 0.831 0.669 1.5 1.5 1.5h1.5l2.5 2 2.5-2h1.5c0.831 0 1.5-0.669 1.5-1.5v-6c0-0.831-0.669-1.5-1.5-1.5h-4.5332z" fill="#bebebe"/>
</svg>
