<svg width="16" height="16" version="1.1" xmlns="http://www.w3.org/2000/svg">
	<path d="m2 1c-0.554 0-1 0.446-1 1v4c0 0.554 0.446 1 1 1h5c0.554 0 1-0.446 1-1v-4c0-0.554-0.446-1-1-1h-5zm8 0c-0.554 0-1 0.446-1 1v4c0 0.554 0.446 1 1 1h4c0.554 0 1-0.446 1-1v-4c0-0.554-0.446-1-1-1h-4zm-7.5 1h4c0.277 0 0.5 0.223 0.5 0.5v2c0 0.277-0.223 0.5-0.5 0.5h-4c-0.277 0-0.5-0.223-0.5-0.5v-2c0-0.277 0.223-0.5 0.5-0.5zm8 0h3c0.277 0 0.5 0.223 0.5 0.5v2c0 0.277-0.223 0.5-0.5 0.5h-3c-0.277 0-0.5-0.223-0.5-0.5v-2c0-0.277 0.223-0.5 0.5-0.5zm-8.5 6c-0.554 0-1 0.446-1 1v4c0 0.554 0.446 1 1 1h10c0.554 0 1-0.446 1-1v-4c0-0.554-0.446-1-1-1h-10zm0.5 1h9c0.277 0 0.5 0.223 0.5 0.5v2c0 0.277-0.223 0.5-0.5 0.5h-9c-0.277 0-0.5-0.223-0.5-0.5v-2c0-0.277 0.223-0.5 0.5-0.5z" fill="#bebebe"/>
</svg>
