<svg width="16" height="16" version="1.1" xmlns="http://www.w3.org/2000/svg">
	<path d="m10.949 1c-1.0803 0-1.9492 0.86892-1.9492 1.9492v0.10156c0 1.6343-2.3149 2.9492-3.9492 2.9492h-0.10156c-1.0803 0-1.9492 0.86892-1.9492 1.9492v0.10156c0 1.0803 0.86892 1.9492 1.9492 1.9492h0.10156c1.6343 0 3.9492 1.3149 3.9492 2.9492v0.10156c4e-7 1.0803 0.86892 1.9492 1.9492 1.9492h0.10156c1.0803 0 1.9492-0.86892 1.9492-1.9492v-0.10156c0-1.0803-0.86892-1.9492-1.9492-1.9492h-0.10156c-1.6343 0-3.9492-1.3149-3.9492-2.9492v-0.10156c0-1.6343 2.3149-2.9492 3.9492-2.9492h0.10156c1.0803 0 1.9492-0.86892 1.9492-1.9492v-0.10156c0-1.0803-0.86892-1.9492-1.9492-1.9492z" fill="#bebebe"/>
</svg>
