<svg width="16" height="16" version="1.1" xmlns="http://www.w3.org/2000/svg">
	<path d="m2.5039 1.0059c-0.8673-0.03431-1.5742 0.7775-1.498 1.625 0.0037 2.9874-0.01307 4.9768 0 7.9648 0.0378 0.846 0.86275 1.4752 1.6855 1.4062 1.6592-2e-3 1.9446-2e-3 3.3066 0v1h-1.9355c-0.0208-2e-3 -0.0417-2e-3 -0.0625 0-0.0832 0.018-0.1589 0.062-0.2168 0.125l-1.6562 1.1543c-0.2304 0.23-0.04375 0.70675 0.28125 0.71875h11.176c0.325-0.012 0.51225-0.48875 0.28125-0.71875l-1.6543-1.1543c-0.074-0.075-0.17725-0.12-0.28125-0.125h-1.9355v-1c1.4589 1e-3 1.8613 7e-3 3.6523 0 0.853-0.044 1.4448-0.90465 1.3418-1.7188-3e-3 -2.9634 0.01-4.9385 0-7.9023-0.031-0.851-0.86765-1.4523-1.6855-1.375h-10.799zm1.4961 1.9941h8c0.554 0 1 0.446 1 1v5c0 0.554-0.446 1-1 1h-0.082031-0.003907-7.9141c-0.554 0-1-0.446-1-1v-5c0-0.554 0.446-1 1-1zm3 1l-3 3h2.5c0.277 0 0.5-0.223 0.5-0.5v-2.5z" fill="#bebebe"/>
	<path d="m8 4v2.5c0 0.8137-0.6863 1.5-1.5 1.5h-2.5v0.5c0 0.277 0.223 0.5 0.5 0.5h7c0.277 0 0.5-0.223 0.5-0.5v-4c0-0.277-0.223-0.5-0.5-0.5h-3.5z" fill="#bebebe" opacity=".45"/>
</svg>
