<svg width="16" height="16" version="1.1" xmlns="http://www.w3.org/2000/svg">
	<path d="m4 1a3 3 0 0 0 -0.9121 0.1445l1.6191 1.6192c0.3918 0.3917 0.3918 1.0223 0 1.414l-0.5293 0.5293c-0.3917 0.3918-1.0223 0.3918-1.414 0l-1.6192-1.6191a3 3 0 0 0 -0.1445 0.9121 3 3 0 0 0 3 3 3 3 0 0 0 0.9355 -0.1543l1.1543 1.1543 1.9102-1.9102-1.1523-1.1523a3 3 0 0 0 0.1523 -0.9375 3 3 0 0 0 -3 -3zm9.02 0.0195l-0.555 0.5547c-0.453 0.4528-0.575 1.0968-0.36 1.6172l-5.9116 5.9121c-0.5209-0.2164-1.1637-0.0941-1.6172 0.3594l-3.1094 3.1071c-0.58761 0.588-0.62328 1.498-0.0801 2.041 0.5432 0.544 1.4534 0.508 2.041-0.08l3.1094-3.107c0.4524-0.453 0.5735-1.095 0.3594-1.6154l5.9125-5.9141c0.52 0.2151 1.164 0.0935 1.617-0.3593l0.554-0.5547-0.628-0.6289-0.704-0.7032-0.628-0.6289zm-3.1098 6.9805l-1.9102 1.9102 1.1523 1.1518a3 3 0 0 0 -0.1523 0.938 3 3 0 0 0 3 3 3 3 0 0 0 0.912 -0.145l-1.619-1.619c-0.392-0.391-0.392-1.022 0-1.414l0.529-0.529c0.392-0.392 1.023-0.392 1.414 0l1.619 1.619a3 3 0 0 0 0.145 -0.912 3 3 0 0 0 -3 -3 3 3 0 0 0 -0.936 0.1543l-1.1538-1.1543z" fill="#bebebe"/>
</svg>
