<svg width="16" height="16" version="1.1" xmlns="http://www.w3.org/2000/svg">
	<path d="m3.3125 1.002c-0.19128 0.038799-0.37038 0.10737-0.54688 0.17969-0.013901 0.5143 0.073213 1.1886-0.12891 1.3652-0.19862 0.17362-0.86337 0.028648-1.377-0.025391-0.10921 0.19481-0.19556 0.39908-0.25977 0.61719 0.39738 0.32609 0.94779 0.69184 0.96094 0.95312 0.013235 0.26458-0.52039 0.66263-0.88281 1.0293 0.085927 0.21239 0.20814 0.40628 0.33789 0.5918 0.50561-0.10413 1.1347-0.30755 1.3496-0.1543 0.21885 0.15604 0.22183 0.82749 0.28711 1.3379 0.20741 0.061782 0.42507 0.086628 0.64844 0.10352 0.23385-0.45687 0.4709-1.087 0.72656-1.1582 0.26244-0.073068 0.80216 0.3764 1.248 0.64258 0.18178-0.12488 0.3419-0.27753 0.49219-0.4375-0.21098-0.47145-0.59802-1.0638-0.49219-1.3125 0.10594-0.24887 0.81087-0.38693 1.2988-0.56641 0.00333-0.060546 0.025391-0.11823 0.025391-0.17969 0-0.15764-0.029427-0.31172-0.052734-0.46289-0.50377-0.13248-1.2185-0.19865-1.3496-0.4375-0.13028-0.23725 0.20061-0.87526 0.36328-1.3652-0.1672-0.14711-0.34807-0.27832-0.54492-0.38672-0.41632 0.30902-0.90231 0.82028-1.1699 0.77344-0.26338-0.04613-0.54989-0.67557-0.83008-1.1074-0.033379 0.00577-0.070454-0.006591-0.10352 0zm7.8984 0.027344c-0.19646 0.011275-0.39501 0.039109-0.58984 0.089844-1.8651 0.4857-2.9824 2.3798-2.4961 4.2324 0.1016 0.38709 0.28972 0.74039 0.50195 1.0547-0.066347 0.010598-0.57582 0.84273-1.0273 1.5938h3.5449l0.066407-0.091797c0.37987 0.02987 0.7822 0.019439 1.1719-0.082031 1.8651-0.4857 2.9824-2.3798 2.4961-4.2324-0.1016-0.38709-0.28972-0.74039-0.50195-1.0547l-1.3594 2.3066c-0.2794 0.47386-0.8809 0.63052-1.3574 0.35352l-0.87305-0.50781c-0.47653-0.277-0.63489-0.8738-0.35547-1.3477l1.3613-2.3066c-0.18994-0.014935-0.38557-0.01909-0.58203-0.0078125zm-7.3789 1.5176c0.77463 0 1.4023 0.6229 1.4023 1.3906s-0.62774 1.3887-1.4023 1.3887c-0.77462 0-1.4043-0.62094-1.4043-1.3887s0.62969-1.3906 1.4043-1.3906zm-0.83203 6.4531v0.58594l-1.707 1.7051c-0.39174 0.39174-0.39174 1.0243 0 1.416 0.39174 0.39174 1.0243 0.39174 1.416 0l0.29102-0.29102v0.58398 1c0 0.554 0.446 1 1 1h8c0.554 0 1-0.446 1-1v-1-0.58398l0.29102 0.29102c0.39174 0.39174 1.0243 0.39174 1.416 0 0.39174-0.39174 0.39174-1.0243 0-1.416l-1.707-1.7051v-0.58594h-1-8-1z" fill="#bebebe"/>
</svg>
