<svg width="16" height="16" version="1.1" xmlns="http://www.w3.org/2000/svg">
	<path d="m1 1v1h1v-1h-1zm1 1v1h1v-1h-1zm1 0h1v-1h-1v1zm1 0v1h1v-1h-1zm2-1v1h1v-1h-1zm1 1v1h1v-1h-1zm1 0h1v-1h-1v1zm1 0v1h1v-1h-1zm2-1v1h1v-1h-1zm1 1v1h1v-1h-1zm1 0h1v-1h-1v1zm1 0v1h1v-1h-1zm-13 2v7h4v-7h-4zm5 0v7h4v-7h-4zm5 0v7h4v-7h-4zm-8 1h1v5h-1v-5zm4 0h1 1v1 2h-1v1h1v1h-2v-1-2h1v-1h-1v-1zm5 0h1 1v1 1 1 1 1h-1-1v-1h1v-1h-1v-1h1v-1h-1v-1zm-11 7v1h1v-1h-1zm1 1v1h1v-1h-1zm1 0h1v-1h-1v1zm1 0v1h1v-1h-1zm2-1v1h1v-1h-1zm1 1v1h1v-1h-1zm1 0h1v-1h-1v1zm1 0v1h1v-1h-1zm2-1v1h1v-1h-1zm1 1v1h1v-1h-1zm1 0h1v-1h-1v1zm1 0v1h1v-1h-1z" fill="#bebebe"/>
</svg>
