<svg width="16" height="16" version="1.1" xmlns="http://www.w3.org/2000/svg">
	<path d="m7.4805 1a0.50005 0.50005 0 0 0-0.48047 0.5v5.293l-2.1465-2.1465a0.50005 0.50005 0 1 0-0.70703 0.70703l2.6465 2.6465-2.6465 2.6465a0.50005 0.50005 0 1 0 0.70703 0.70703l2.1465-2.1465v5.293a0.50005 0.50005 0 0 0 0.87891 0.32617l3-3.5a0.50005 0.50005 0 0 0-0.02539-0.67969l-2.6465-2.6465 2.6465-2.6465a0.50005 0.50005 0 0 0 0.02539-0.67969l-3-3.5a0.50005 0.50005 0 0 0-0.39844-0.17383zm0.51953 1.8516 1.8184 2.123-1.8184 1.8184zm0 6.3555 1.8184 1.8184-1.8184 2.123z" fill="#bebebe"/>
</svg>
