<svg width="16" height="16" version="1.1" xmlns="http://www.w3.org/2000/svg">
	<path d="M 4.4375 2 C 3.0831607 2.1105045 2 3.0000001 2 3 L 2 9 C 2 9.0000001 2.3984894 8.683645 3 8.40625 L 3 7 C 2.9987722 6.6958991 3.1369621 6.408003 3.375 6.21875 C 3.375 6.2187501 4.6017584 5.1421342 6.34375 5 C 7.39117 4.9145377 8.650327 5.2753266 9.6875 6.3125 C 10.54212 7.1671191 11.275235 7.11061 12 6.90625 L 12 3 C 12 2.9999998 9.270957 5.2709573 7 3 C 6.151326 2.1513255 5.250104 1.9336973 4.4375 2 z M 6.4375 6 C 5.0831607 6.1105041 4 7 4 7 L 4 13 C 4 13 6.74561 10.74561 9 13 C 11.246118 15.246118 14 13 14 13 L 14 7 C 14 7.0000001 11.270957 9.270957 9 7 C 8.151326 6.1513251 7.250104 5.9336973 6.4375 6 z " fill="#bebebe"/>
</svg>
