<svg width="16" height="16" version="1.1" xmlns="http://www.w3.org/2000/svg">
	<path d="m4.5 1c-0.831 0-1.5 0.669-1.5 1.5v4.5h-0.5c-0.831 0-1.5 0.669-1.5 1.5v3c0 0.831 0.669 1.5 1.5 1.5h0.5v0.5c0 0.831 0.669 1.5 1.5 1.5h7c0.831 0 1.5-0.669 1.5-1.5v-0.5h0.5c0.831 0 1.5-0.669 1.5-1.5v-3c0-0.831-0.669-1.5-1.5-1.5h-0.5v-4.5c0-0.831-0.669-1.5-1.5-1.5zm1 2h5c0.277 0 0.5 0.223 0.5 0.5v4.5h-6v-4.5c0-0.277 0.223-0.5 0.5-0.5zm0.5 1v1h4.0117v-1zm0 2v1h3v-1zm7.5 3a0.5 0.5 0 0 1 0.5 0.5 0.5 0.5 0 0 1-0.5 0.5 0.5 0.5 0 0 1-0.5-0.5 0.5 0.5 0 0 1 0.5-0.5zm-8.5 3h6v0.5c0 0.277-0.223 0.5-0.5 0.5h-5c-0.277 0-0.5-0.223-0.5-0.5z" fill="#ff9000"/>
</svg>
