<svg width="16" height="16" version="1.1" xmlns="http://www.w3.org/2000/svg">
	<path d="m4.5 1c-.831 0-1.5.669-1.5 1.5v1.0625 3.4375h-.5c-.831 0-1.5.6690-1.5 1.5v3c0 .831.669 1.5 1.5 1.5h.5v.062.126.312c0 .831.669 1.5 1.5 1.5h7c.831 0 1.5-.669 1.5-1.5v-.312-.126-.062h.5c.831 0 1.5-.669 1.5-1.5v-3c0-.831-.669-1.5-1.5-1.5h-.5v-1.3125-3.1875c0-.8310-.669-1.5-1.5-1.5h-7zm1 2h5c.277 0 .5.223.5.5v3.5 1h-6v-1-3.5c0-.277.223-.5.5-.5zm.5 1v1h4.012v-1h-4.012zm0 2v1h3v-1h-3zm7.5 3a.5 .5 0 0 1 .5 .5 .5 .5 0 0 1 -.5 .5 .5 .5 0 0 1 -.5 -.5 .5 .5 0 0 1 .5 -.5zm-8.5 3h6v.5c0 .277-.223.5-.5.5h-5c-.277 0-.5-.223-.5-.5v-.5z" fill="#bebebe"/>
</svg>
