<svg width="16" height="16" version="1.1" xmlns="http://www.w3.org/2000/svg">
	<path d="m5.6875 2l-.3125.2812-3.0938 3.0626-.2812.3124v.4063 3.8125.4060l.2812.313 3.0938 3.125.3125.281h.4063 3.8124.4058l.313-.281 3.094-3.125.281-.313v-.406-3.8125-.4063l-.281-.3124-3.094-3.0626-.313-.2812h-.4058-3.8124-.4063zm.8437 2h2.9688l2.5 2.5v2.9688l-2.5312 2.5312h-2.9376l-2.5312-2.5312v-2.9688l2.5312-2.5zm.3262 1l-1.8574 1.8398v2.2891l1.8574 1.8711h2.2891l1.8535-1.8711v-2.2891l-1.8535-1.8398h-2.2891z" class="error" fill="#d40000"/>
</svg>
