<svg width="16" height="16" version="1.1" xmlns="http://www.w3.org/2000/svg">
	<path fill="#bebebe" d="m7.3086 1c-.3750 0-.7498.1443-1.0371.4316l-4.8399 4.8399c-.45110.4511-.54432 1.1161-.2871 1.6601.0866-.2033.2111-.3929.3770-.5390.3492-.3077.7652-.3926 1.1035-.3926h.8555c.0098-.0118.0143-.0260.0254-.0371l3.457-3.457c.1915-.1916.4999-.1916.6914 0l4.8397 4.8398c.192.1915.192.4999 0 .6914l-1.037 1.0369-2.4199 2.42c-.1915.192-.4999.192-.6914 0l-.3457-.346v2.227c0 .142-.0245.280-.0605.412.5639.340 1.3016.269 1.789-.219l3.1115-3.111 1.728-1.7285c.575-.5746.575-1.4996 0-2.0742l-6.2223-6.2227c-.2873-.2873-.6622-.4316-1.0371-.4316zm-4.6836 7c-.346 0-.625.1716-.625.625v2.375h-.375c-.346 0-.625.279-.625.625v2.75c0 .346.279.625.625.625h4.75c.346 0 .625-.279.625-.625v-2.75c0-.346-.279-.625-.625-.625h-.375v-2.375c0-.3462-.279-.625-.625-.625h-2.75zm.375 1h2v2h-2v-2z"/>
</svg>
