<svg width="16" height="16" version="1.1" xmlns="http://www.w3.org/2000/svg">
	<path fill="#bebebe" d="m7.3086 1c-.3750 0-.7498.1443-1.0371.4316l-4.8399 4.8399c-.2077.2078-.3389.4622-.3964.7285h1.9648.4805c.0098-.0118.0143-.0260.0254-.0371l3.457-3.457c.1915-.1916.4999-.1916.6914 0l4.8397 4.8398c.192.1915.192.4999 0 .6914l-1.037 1.0369-2.4199 2.42c-.1915.192-.4999.192-.6914 0l-.3574-.357a1.0001 1.0001 0 0 1 -.2813 .570l-.9570.957.9043.904c.5746.575 1.4996.575 2.0742 0l3.1115-3.111 1.728-1.7285c.575-.5746.575-1.4996 0-2.0742l-6.2223-6.2227c-.2873-.2873-.6622-.4316-1.0371-.4316zm-6.3086 7v2h1.5.0195c.2670.011.4805.226.4805.496v1.498.006h-2l3 3 3-3h-2v-.006-1.994-0.5-.0020c0-.3237-.1043-.6227-.2773-.8671-.0140-.0216-.0202-.0482-.0352-.0684-0.02-.0230-.0435-.0407-.0625-.0625-0.01-.0118-.0252-.0179-.0352-.0293-.0830-.0880-.1773-.1647-.2793-.2305-.0420-.0263-.0849-.0482-.1289-.0703-.1040-.0529-.2131-.0951-.3281-.1230-.0150-.0034-.0260-.0125-.0410-.0157-.0030-.0006-.0068.0006-.0098 0-.0980-.0198-.1987-.0312-.3027-.0312h-0.5-2zm5 2.148v.852h.8516l-.8516-.852z"/>
</svg>
