<svg width="16" height="16" version="1.1" xmlns="http://www.w3.org/2000/svg">
 <path d="m3.0332 1c-0.57473 0-1.0546 0.19914-1.4609 0.5625-0.20315 0.18168-0.38633 0.41779-0.49609 0.75-0.10977 0.33221-0.11068 0.77424 0.0625 1.125l0.99414 2c0.08763 0.17755 0.20035 0.42726 0.37109 0.6875 0.23849-0.0728 0.49155-0.125 0.74609-0.125h9.5c0.25454 0 0.5076 0.0522 0.74609 0.125 0.17074-0.26025 0.28342-0.50995 0.37109-0.6875l0.99414-2c0.17318-0.35076 0.17226-0.79279 0.0625-1.125-0.10977-0.33221-0.29295-0.56832-0.49609-0.75-0.40631-0.36336-0.88616-0.5625-1.4609-0.5625h-9.9336zm0.12305 2h9.6875l-0.77734 1.5625c-0.11714 0.23724-0.17514 0.37121-0.2168 0.4375h-7.6992c-0.041629-0.0663-0.099659-0.20026-0.2168-0.4375l-0.77734-1.5625zm0.84375 4c-0.4875 0-0.93518 0.14403-1.3125 0.4375s-0.6875 0.78184-0.6875 1.3438v6.2188h12v-6.2188c0-0.56186-0.31018-1.0502-0.6875-1.3438s-0.825-0.4375-1.3125-0.4375h-8zm0 1h8v6h-8v-6zm1 4v1h6v-1h-6z" fill="#bebebe" />
 <path d="m3 3v2h10v-2h-10zm2 6v2l6-1v-1h-6z" fill="#bebebe" opacity=".45"/>
</svg>
