<svg width="16" height="16" version="1.1" xmlns="http://www.w3.org/2000/svg">
	<path d="m6.3301 1c-1.4824 0-2.6719 1.1164-2.6719 2.5 0.0033 0.14733 0.015237 0.35958 0.029297 0.53906-0.2535 0.10759-0.27182 0.60238-0.056641 1.1094 0.08533 0.20105 0.19401 0.35489 0.3125 0.48242 0.02879 0.14249 0.021061 0.20628 0.056641 0.36914 0.09929 0.29787 0.49004 0.88131 0.85156 1.3633 0.03545 0.37015 0.07222 0.74492 0 1.166-1.0417 0.86425-3.7247 1.2342-3.7207 2.1289l-0.056641 0.3418h5.7285c-0.13247-0.20434-0.25141-0.42414-0.33789-0.68359a1.0001 1.0001 0 0 1 -0.027344 -0.10352c-0.035117-0.16074-0.033191-0.19244-0.039062-0.25195-0.094562-0.13815-0.20086-0.25087-0.27344-0.42188-0.15728-0.37059-0.24537-0.74019-0.22656-1.1426 0.0095216-0.20376 0.059574-0.45854 0.18555-0.69727-0.0022792-0.058003-0.008623-0.12671-0.0097656-0.17773a1.0001 1.0001 0 0 1 0 -0.021484c-1e-7 -1.698 1.2727-3.0816 2.9062-3.418-0.0043641-0.0031276-0.0052251-0.010817-0.0097657-0.013672 0.01295-0.19406 0.023597-0.40073 0.029297-0.56836-6e-6 -1.3836-1.1875-2.5-2.6699-2.5zm3.4141 4c-1.4824 0-2.6699 1.1164-2.6699 2.5 0.0033 0.14733 0.013284 0.35958 0.027344 0.53906-0.2535 0.10759-0.27182 0.60238-0.056641 1.1094 0.08533 0.20105 0.19401 0.35489 0.3125 0.48242 0.02879 0.14249 0.021061 0.20628 0.056641 0.36914 0.09929 0.29787 0.492 0.88131 0.85352 1.3633 0.03545 0.37015 0.07222 0.74492 0 1.166-1.0417 0.86425-3.7266 1.2342-3.7227 2.1289l-0.056641 0.3418h10.512l-0.056641-0.3418c-0.0043-0.76575-2.6937-1.2342-3.7227-2.1289-0.04164-0.3425-0.048494-0.6861-0.027344-1.0234 0.32942-0.50836 0.77027-1.1741 0.88086-1.5059 0.03974-0.16801 0.052974-0.28112 0.083984-0.42578 0.09871-0.11957 0.18314-0.25445 0.25586-0.42578 0.20442-0.48165 0.19227-0.94198-0.027343-1.0801 0.01295-0.19406 0.021644-0.40073 0.027343-0.56836-6e-6 -1.3836-1.1875-2.5-2.6699-2.5z" fill="#bebebe"/>
</svg>
