<svg width="16" height="16" version="1.1" xmlns="http://www.w3.org/2000/svg">
	<path fill="#bebebe" d="m8 1s-2 2.625-6 2.625c0 9.625 6 11.375 6 11.375s6-1.75 6-11.375c-4 0-6-2.625-6-2.625zm0 2.625c.9002.6477 2.082 1.16 3.688 1.5312-.280 3.4328-1.384 5.4438-2.4068 6.5628-.5348.585-.9398.908-1.2812 1.121-.3414-.213-.7464-.536-1.2812-1.121-1.0232-1.119-2.1266-3.13-2.4063-6.5628 1.6054-.3712 2.7873-.8835 3.6875-1.5312zm0 1.1523c-.6637.4066-1.4592.7452-2.4004 1.0137.3075 2.5569 1.1103 4.1429 1.8477 4.949.2447.267.3811.340.5527.483.1716-.143.3060-.216.5508-.483.7373-.8061 1.5422-2.3921 1.8492-4.949-.9409-.2685-1.7363-.6071-2.4-1.0137z"/>
</svg>
