<svg width="16" height="16" version="1.1" xmlns="http://www.w3.org/2000/svg">
	<path fill="#bebebe" d="m8 1s-2 2.625-6 2.625c0 9.625 6 11.375 6 11.375s6-1.75 6-11.375c-4 0-6-2.625-6-2.625zm0 2.625c0.9002 0.6477 2.082 1.16 3.688 1.5312-0.28 3.4328-1.384 5.4438-2.4068 6.5628-0.5348 0.585-0.9398 0.908-1.2812 1.121-0.3414-0.213-0.7464-0.536-1.2812-1.121-1.0232-1.119-2.1266-3.13-2.4063-6.5628 1.6054-0.3712 2.7873-0.8835 3.6875-1.5312zm0 1.1523c-0.6637 0.4066-1.4592 0.7452-2.4004 1.0137 0.3075 2.5569 1.1103 4.1429 1.8477 4.949 0.2447 0.267 0.3811 0.34 0.5527 0.483z"/>
</svg>
