<svg width="16" height="16" version="1.1" xmlns="http://www.w3.org/2000/svg">
	<path d="m6 1l-4.0039 2.5996 2.3379 0.36328-1.9766 4.7246c0.36367-0.11069 0.74143-0.1875 1.1387-0.1875h0.0078124c1.9563 0 3.5979 1.4482 3.9258 3.3184l4.4375-4.3965 1.1328 1.5781 1-5-4.8145 0.19531 1.2715 1.5684-4.457 2.7441 0.60742-3.9844 2.2148 0.45508-2.8223-3.9785zm-2.5039 9c-1.3833 0-2.4961 1.1128-2.4961 2.4961v0.007812c0 1.3833 1.1128 2.4961 2.4961 2.4961h0.0078124c1.3833 0 2.4961-1.1128 2.4961-2.4961v-0.007812c0-1.3833-1.1128-2.4961-2.4961-2.4961h-0.0078124z" fill="#bebebe"/>
</svg>
