<svg width="16" height="16" version="1.1" xmlns="http://www.w3.org/2000/svg">
	<path d="M 1.5,1 C 1.223,1 1,1.223 1,1.5 v 3 C 1,4.777 1.223,5 1.5,5 H 2 v 10 h 2 v -2 h 7 v 0.5 c 0,0.277 0.223,0.5 0.5,0.5 h 2 c 0.277,0 0.5,-0.223 0.5,-0.5 v -2 C 14,11.223 13.777,11 13.5,11 h -2 C 11.223,11 11,11.223 11,11.5 V 12 H 4 v -2 h 3 v 0.5 C 7,10.777 7.223,11 7.5,11 h 2 C 9.777,11 10,10.777 10,10.5 v -2 C 10,8.223 9.777,8 9.5,8 h -2 C 7.223,8 7,8.223 7,8.5 V 9 H 4 V 7 h 7 V 7.5 C 11,7.777 11.223,8 11.5,8 h 2 C 13.777,8 14,7.777 14,7.5 v -2 C 14,5.223 13.777,5 13.5,5 h -2 C 11.223,5 11,5.223 11,5.5 V 6 H 4 V 5 H 4.5 C 4.777,5 5,4.777 5,4.5 v -3 C 5,1.223 4.777,1 4.5,1 Z" fill="#bebebe"/>
</svg>
