<svg width="16" height="16" version="1.1" xmlns="http://www.w3.org/2000/svg">
	<path fill="#d40000" d="m7.0156 1c-0.2755 0-0.4746 0.2296-0.4746 0.5098v0.9843c-0.4926 0.1311-0.9542 0.3336-1.3848 0.584l-0.7285-0.6933c-0.1981-0.1981-0.4985-0.23-0.6933-0.0352l-1.3848 1.3848c-0.1948 0.1948-0.1629 0.4952 0.0352 0.6933l0.6933 0.7285c-0.2504 0.4308-0.4528 0.8922-0.584 1.3848h-0.9843c-0.2801 0-0.5098 0.1991-0.5098 0.4746v1.9688c0 0.2755 0.2296 0.4746 0.5098 0.4746h0.9843c0.1312 0.4926 0.3336 0.954 0.584 1.385l-0.6933 0.728c-0.1981 0.198-0.23 0.499-0.0352 0.694l1.3848 1.384c0.0974 0.098 0.237 0.148 0.3652 0.147s0.2291-0.083 0.3281-0.182l0.7285-0.693c0.4306 0.25 0.8922 0.452 1.3848 0.584v0.984c0 0.28 0.1991 0.51 0.4746 0.51h1.9688c0.2755 0 0.4746-0.23 0.4746-0.51v-0.984c0.4926-0.131 0.954-0.334 1.385-0.584l0.73 0.693c0.198 0.198 0.497 0.23 0.692 0.035l1.386-1.384c0.195-0.195 0.161-0.496-0.037-0.694l-0.693-0.728c0.25-0.431 0.453-0.8924 0.584-1.385h0.984c0.28-0.0002 0.51-0.1991 0.51-0.4746v-1.9688c0-0.2755-0.229-0.4746-0.51-0.4746h-0.984c-0.131-0.4926-0.334-0.954-0.584-1.3848l0.693-0.7285c0.198-0.1981 0.23-0.4985 0.035-0.6933l-1.382-1.3848c-0.195-0.1948-0.496-0.163-0.694 0.0352l-0.73 0.6933c-0.431-0.2504-0.8924-0.4527-1.385-0.584v-0.9843c0-0.2801-0.1991-0.5098-0.4746-0.5098h-1.9688zm-0.0156 3h2v4h-2v-4zm0 5h2v2h-2v-2z"/>
</svg>
