<svg width="16" height="16" version="1.1" xmlns="http://www.w3.org/2000/svg">
	<path fill="#bebebe" d="m7.0156 1c-0.2755 0-0.4746 0.2296-0.4746 0.5098v0.98438c-0.4926 0.1311-0.9542 0.3335-1.3848 0.5839l-0.7285-0.6933c-0.1981-0.1981-0.4985-0.23-0.6933-0.0352l-1.3848 1.3848c-0.1948 0.1948-0.16294 0.49526 0.035156 0.69336l0.6933 0.7284c-0.2504 0.4307-0.45278 0.89217-0.58398 1.3848h-0.98438c-0.2801 0-0.5097 0.1991-0.5097 0.4746v1.9688c0 0.2755 0.22957 0.47461 0.50977 0.47461h0.98438c0.1312 0.4926 0.33358 0.95377 0.58398 1.3848l-0.69336 0.72852c-0.1981 0.198-0.22996 0.49836-0.035156 0.69336l1.3848 1.3848c0.09739 0.09739 0.23703 0.14758 0.36523 0.14648 0.12819-0.0011 0.22906-0.08258 0.32812-0.18164l0.7284-0.694c0.4306 0.25 0.89217 0.45198 1.3848 0.58398v0.98438c0 0.28 0.1991 0.51 0.4746 0.51h1.9688c0.27548 0 0.47461-0.22957 0.47461-0.50977v-0.98438c0.49257-0.13125 0.95413-0.33352 1.3848-0.58398l0.73047 0.69336c0.19813 0.1981 0.49661 0.22995 0.69141 0.03516l1.3867-1.3848c0.19482-0.1948 0.16101-0.49524-0.03711-0.69336l-0.693-0.728c0.25045-0.43063 0.45274-0.89219 0.58398-1.3848h0.98438c0.28-0.0002 0.51-0.1993 0.51-0.4748v-1.9688c0-0.2755-0.22877-0.47461-0.50977-0.47461h-0.98438c-0.131-0.4926-0.334-0.9541-0.584-1.3848l0.69336-0.72852c0.1981-0.19813 0.22996-0.49856 0.03516-0.69336l-1.384-1.3847c-0.1948-0.19482-0.49524-0.16297-0.69336 0.035156l-0.729 0.6933c-0.431-0.2504-0.8924-0.4527-1.385-0.584v-0.98438c0-0.2801-0.1991-0.5097-0.4746-0.5097h-1.9688zm0.9844 2.9785 4.021 4.0215h-2.0117v3.0156h-4.0195l0.0004-3.016h-2.0117l4.0215-4.0215z"/>
</svg>
