<svg width="16" height="16" version="1.1" xmlns="http://www.w3.org/2000/svg">
	<path fill="#bebebe" d="m2.5039 1.0059c-.8673-.03431-1.5742.7775-1.498 1.625.0037 2.9874-.01307 4.9771 0 7.9651.0378.846.8626 1.475 1.6855 1.406 1.6592-.002 1.9446-.002 3.3066 0v1h-1.9355c-.0208-.002-.0417-.002-.0625 0-.0832.018-.1589.062-.2168.125l-1.6562 1.154c-.2304.230-.0438.707.2812.719h11.176c.325-.012.512-.489.281-.719l-1.654-1.154c-.074-.075-.177-.120-.281-.125h-1.9359v-1c1.4589.001 1.8609.007 3.6519 0 .853-.044 1.445-.905 1.342-1.719-.003-2.9634.010-4.9383 0-7.9021-.031-.8510-.867-1.4523-1.685-1.375h-10.799zm1.4961 1.9941h8c.554 0 1 .446 1 1v5c0 .554-.446 1-1 1h-.082-.004-7.914c-.554 0-1-.446-1-1v-5c0-.554.446-1 1-1zm3 1c-.5540 0-.9980.4459-.9980 1v1c-.5540 0-1.002.4459-1.002 1v1.002c0 .5540.4480.9980 1.002.9980h4c.554 0 .998-.4440.998-.9980v-1.002c0-.5541-.444-1-.998-1v-1c0-.5541-.4480-1-1.002-1h-2zm.5 1h1c.2770 0 .5.2210.5.4980v.5020h-2v-.5020c0-.2770.2230-.4980.5-.4980z"/>
</svg>
