<svg width="16" height="16" version="1.1" xmlns="http://www.w3.org/2000/svg">
	<path fill="#bebebe" d="m2.5 1c-0.831 0-1.5 0.669-1.5 1.5v11c0 0.831 0.669 1.5 1.5 1.5h11c0.831 0 1.5-0.669 1.5-1.5v-11c0-0.831-0.669-1.5-1.5-1.5h-11zm0.5 2h10v11h-10v-11zm1.5 1c-0.277 0-0.5 0.223-0.5 0.5v3c0 0.277 0.223 0.5 0.5 0.5h7c0.277 0 0.5-0.223 0.5-0.5v-3c0-0.277-0.223-0.5-0.5-0.5h-7zm2 1.5a0.5 0.5 0 0 1 0.5 0.5h2a0.5 0.5 0 0 1 0.5 -0.5 0.5 0.5 0 0 1 0.5 0.5 0.5 0.5 0 0 1 -0.041 0.2012c-0.0975 0.4486-0.4845 0.7988-0.959 0.7988h-2c-0.4758 0-0.863-0.3523-0.959-0.8027a0.5 0.5 0 0 1 -0.041 -0.1973 0.5 0.5 0 0 1 0.5 -0.5zm-2 3.5c-0.277 0-0.5 0.223-0.5 0.5v3c0 0.277 0.223 0.5 0.5 0.5h7c0.277 0 0.5-0.223 0.5-0.5v-3c0-0.277-0.223-0.5-0.5-0.5h-7zm2 1.5a0.5 0.5 0 0 1 0.5 0.5h2a0.5 0.5 0 0 1 0.5 -0.5 0.5 0.5 0 0 1 0.5 0.5 0.5 0.5 0 0 1 -0.041 0.201c-0.0975 0.449-0.4845 0.799-0.959 0.799h-2c-0.4758 0-0.863-0.352-0.959-0.803a0.5 0.5 0 0 1 -0.041 -0.197 0.5 0.5 0 0 1 0.5 -0.5z"/>
</svg>
