<svg width="16" height="16" version="1.1" xmlns="http://www.w3.org/2000/svg">
	<path d="m2.5 1c-0.831 0-1.5 0.669-1.5 1.5v2 7 2c0 0.831 0.669 1.5 1.5 1.5h11c0.831 0 1.5-0.669 1.5-1.5v-9a1.5 1.5 0 0 0-1.5-1.5h-11c-0.277 0-0.5-0.223-0.5-0.5s0.223-0.5 0.5-0.5h11.408c-0.20601-0.58192-0.75396-1-1.4082-1h-10zm5.5 3c2.7614 0 5 2.2386 5 5 0 2.7614-2.2386 5-5 5-2.7614 0-5-2.2386-5-5 0-2.7614 2.2386-5 5-5zm0 1c-0.62067 0.0013541-1.2325 0.14713-1.7871 0.42578l0.89258 1.7852c0.27776-0.1388 0.58402-0.21102 0.89453-0.21094 0.31066 5.255e-4 0.61694 0.073415 0.89453 0.21289l0.89453-1.7891c-0.55536-0.27827-1.1679-0.42338-1.7891-0.42383zm-3.5762 2.2109c-0.27827 0.55536-0.42338 1.1679-0.42383 1.7891 0.00135 0.62067 0.14713 1.2325 0.42578 1.7871l1.7852-0.89258c-0.1388-0.27776-0.21102-0.58402-0.21094-0.89453 5.255e-4 -0.31066 0.073415-0.61694 0.21289-0.89453l-1.7891-0.89453zm7.1504 0.0019531-1.7852 0.89258c0.1388 0.27776 0.21102 0.58402 0.21094 0.89453-5.255e-4 0.31066-0.073415 0.61694-0.21289 0.89453l1.7891 0.89453c0.27827-0.55535 0.42338-1.1679 0.42383-1.7891-0.001354-0.62067-0.14712-1.2325-0.42578-1.7871zm-3.5742 0.78711c-0.55228 0-1 0.44772-1 1s0.44772 1 1 1 1-0.44772 1-1-0.44772-1-1-1zm-0.89453 2.7871-0.89453 1.7891c0.55536 0.27827 1.1679 0.42338 1.7891 0.42383 0.62067-0.001354 1.2325-0.14712 1.7871-0.42578l-0.89258-1.7852c-0.27776 0.1388-0.58402 0.21102-0.89453 0.21094-0.31066-5.26e-4 -0.61694-0.073416-0.89453-0.21289z" fill="#bebebe"/>
</svg>
