<svg width="16" height="16" version="1.1" xmlns="http://www.w3.org/2000/svg">
	<path fill="#bebebe" d="m7.5 1c-.2770 0-.5.2230-.5.5v3c0 .2770.2230.5.5.5h2c.2770 0 .5-.2230.5-.5v-3c0-.2770-.2230-.5-.5-.5h-2zm-3 1c-.831 0-1.5.669-1.5 1.5v3.5h2v-2.5c0-.277.223-.5.5-.5h.5v-2h-1.5zm6.5 0v2h.5c.277 0 .5.223.5.5v8c0 .277-.223.5-.5.5h-1.5-4v2h4 2.5c.831 0 1.5-.669 1.5-1.5v-10c0-.831-.669-1.5-1.5-1.5h-1.5zm-5 4v1h5v-1h-5zm-3 2v4h2v-4h-2zm3 0v1h5v-1h-5zm0 2v1h5v-1h-5zm-3 3v2h2v-2h-2z"/>
	<path d="m3 8v4h2v-4zm0 5v2h2v-2z" class="warning" fill="#ff9000"/>
</svg>
