<svg width="16" height="16" version="1.1" xmlns="http://www.w3.org/2000/svg">
	<path fill="#bebebe" d="m8.5 1c-.2770 0-.5.2230-.5.5v3c0 .2770.2230.5.5.5h2c.277 0 .5-.2230.5-.5v-3c0-.2770-.223-.5-.5-.5h-2zm-3 1c-.831 0-1.5.669-1.5 1.5v5.5859l.7910-.7929a1.0001 1.0001 0 0 1 1.209 -.1563v-3.6367c0-.2770.2230-0.5 0.5-0.5h0.5v-2h-1.5zm6.5 0v2h.5c.277 0 .5.223.5.5v8c0 .277-.223.5-.5.5h-1.5-3.1348a1.0001 1.0001 0 0 1 -.1582 1.207l-.7929.793h4.0859 2.5c.831 0 1.5-.669 1.5-1.5v-10c0-.831-.669-1.5-1.5-1.5h-1.5zm-5 4v1h5v-1h-5zm0 2v1h5v-1h-5zm-4.5 1l-1.498 1.5 1.5 1.5-1.5 1.5 1.5 1.5 1.498-1.5 1.5 1.5 1.5-1.5-1.5-1.5 1.5-1.5-1.502-1.5-1.498 1.5-1.5-1.5zm5.5 1v1h4v-1h-4z"/>
	<path d="m1 10.5 1.4996-1.5 1.4996 1.5 1.4996-1.5 1.5012 1.5-1.4992 1.499 1.4992 1.501-1.4992 1.5-1.5002-1.5-1.4992 1.5-1.5002-1.5 1.5002-1.501-1.5002-1.499z" class="error" fill="#d40000"/>
</svg>
