<svg width="16" height="16" version="1.1" xmlns="http://www.w3.org/2000/svg">
 <path d="m3.5 3-2.4375 7.0312h1.7188l0.40625-1.2812h2.6562l0.4375 1.2812h1.7188l-2.4689-7.031h-2.0312zm5.5312 0v7.0312h1.7812v-0.75c0.24291 0.3081 0.51707 0.50849 0.8125 0.65625 0.29543 0.14462 0.61594 0.21875 1 0.21875 0.67948 0 1.2509-0.2344 1.6875-0.75 0.43657-0.51874 0.65624-1.1857 0.65625-2-0.00001-0.81427-0.21968-1.4844-0.65625-2-0.43658-0.51874-1.008-0.78124-1.6875-0.78125-0.38406 0.00001-0.70457 0.071-1 0.21875-0.29543 0.14462-0.56959 0.3794-0.8125 0.6875v-2.5311h-1.7808zm-4.5 1.6562 0.90625 2.7812h-1.8125l0.90625-2.7812zm7.4375 1.1875c0.37749 0 0.67804 0.14217 0.875 0.40625 0.20023 0.26409 0.28125 0.65323 0.28125 1.1562 0 0.50303-0.081 0.89216-0.28125 1.1562-0.19696 0.26409-0.49751 0.375-0.875 0.375-0.3775 0-0.67148-0.11091-0.875-0.375-0.20023-0.26723-0.28125-0.65637-0.28125-1.1562 0-0.49988 0.081-0.89216 0.28125-1.1562 0.20352-0.26723 0.4975-0.40625 0.875-0.40625zm-8.97 5.15-2 2v2l2-2 2 2 2-2 2 2 2-2 2 2 2-2v-2l-2 2-2-2-2 2-2-2-2 2-2-2z" fill="#bebebe"/>
</svg>
