<svg width="16" height="16" version="1.1" xmlns="http://www.w3.org/2000/svg">
	<path fill="#bebebe" d="m3.5 1c-.831 0-1.5.6690-1.5 1.5v5.6426a1.0001 1.0001 0 0 1 .4824 -.1348 1.0001 1.0001 0 0 1 .7227 .2930l.7910.7910.0918-.0918h-.0879v-5.5c0-.2770.2230-0.5 0.5-0.5h8c.277 0 0.5.2230 0.5 0.5v5.5h-6.0977l.8008.7988a1.0001 1.0001 0 0 1 .1543 .2012h.1426v2h-1.084l-.0039.004.7910.791a1.0001 1.0001 0 0 1 .1602 1.205h3.1367 2.5c.831 0 1.5-.669 1.5-1.5v-2.5-1-6.5c0-.831-.669-1.5-1.5-1.5h-10zm-1.002 8.0078l-1.496 1.4982 1.498 1.498-1.498 1.498 1.498 1.498 1.498-1.498 1.5 1.498 1.4981-1.498-1.4981-1.498 1.4981-1.498-1.5-1.4982-1.5 1.4982-1.4981-1.4982zm6.502.9922h4v1.5c0 .277-.223.5-.5.5h-1.5-2v-2z"/>
	<path d="m1 10.505 1.4984-1.498 1.4984 1.498 1.4984-1.498 1.5 1.498-1.498 1.498 1.498 1.499-1.498 1.498-1.499-1.498-1.498 1.498-1.499-1.498 1.499-1.499-1.499-1.498z" class="error" fill="#d40000"/>
</svg>
