<svg width="16" height="16" version="1.1" xmlns="http://www.w3.org/2000/svg">
	<path d="m5 1a1 1 0 0 0 -1 1 1 1 0 0 0 1 1 1 1 0 0 0 .19141 -.019531l1.0195 1.0195h-3.7109c-.831 0-1.5.669-1.5 1.5v8c0 .831.669 1.5 1.5 1.5h11c.831 0 1.5-.669 1.5-1.5v-8c0-.831-.669-1.5-1.5-1.5h-3.7109l1.0195-1.0195a1 1 0 0 0 .19141 .019531 1 1 0 0 0 1 -1 1 1 0 0 0 -1 -1 1 1 0 0 0 -1 1 1 1 0 0 0 .054688 .32031l-1.6797 1.6797h-.75l-1.6797-1.6797a1 1 0 0 0 .054688 -.32031 1 1 0 0 0 -1 -1zm-.5 4h7c.831 0 1.5 1.784 1.5 4s-.669 4-1.5 4h-7c-.831 0-1.5-1.784-1.5-4s.669-4 1.5-4zm9 8c.277 0 .5.223.5.5s-.223.5-.5.5-.5-.223-.5-.5.223-.5.5-.5z" fill="#bebebe"/>
</svg>
