<svg width="16" height="16" version="1.1" xmlns="http://www.w3.org/2000/svg">
	<path d="m8 1c-1.9745 0-3.5566 1.4513-3.5566 3.25 0.00446 0.19153 0.018385 0.46785 0.037109 0.70117-0.33765 0.13987-0.36083 0.78235-0.074219 1.4414 0.11366 0.26137 0.25819 0.46116 0.41602 0.62695 0.038347 0.18523 0.026826 0.26875 0.074219 0.48047 0.13225 0.38724 0.65514 1.1469 1.1367 1.7734 0.047217 0.48119 0.0962 0.96626 0 1.5137-1.3875 1.1235-4.9624 1.6064-4.957 2.7695l-0.076172 0.44336h6v-5c0-1.0907 0.9093-2 2-2h2.2051c0.00368-0.017885 0.007673-0.036118 0.011719-0.054688 0.13217-0.1554 0.24251-0.33189 0.33984-0.55469 0.27152-0.6261 0.2549-1.2227-0.03711-1.4023 0.01725-0.25228 0.02952-0.52036 0.03711-0.73828 0-1.7987-1.5822-3.25-3.5566-3.25zm1 7c-0.554 0-1 0.446-1 1v5c0 0.554 0.446 1 1 1h5c0.554 0 1-0.446 1-1v-5c0-0.554-0.446-1-1-1h-5zm2 1h1v1h-1v-1zm0 2h1v3h-1v-3z" fill="#bebebe"/>
</svg>
