<svg width="16" height="16" version="1.1" xmlns="http://www.w3.org/2000/svg">
	<path d="m2 1c-0.554 0-1 0.446-1 1v1h14v-1c0-0.554-0.446-1-1-1h-12zm-1 3v1h1v-1h-1zm2 0v1h2v-1h-2zm3 0v1h1v-1h-1zm2 0v1h1v-1h-1zm2 0v1h1v-1h-1zm2 0v1h1v-1h-1zm2 0v1h1v-1h-1zm-13 2v1h1v-1h-1zm2 0v1h2v-1h-2zm3 0v1h1v-1h-1zm2 0v1h1v-1h-1zm2 0v1h1v-1h-1zm2 0v1h1v-1h-1zm2 0v1h1v-1h-1zm-13 2v1h1v-1h-1zm2 0v1h2v-1h-2zm3 0v1h1v-1h-1zm2 0v1h1v-1h-1zm2 0v1h1v-1h-1zm2 0v1h1v-1h-1zm2 0v1h1v-1h-1zm-13 2v1h1v-1h-1zm2 0v1h2v-1h-2zm3 0v1h1v-1h-1zm2 0v1h1v-1h-1zm2 0v1h1v-1h-1zm2 0v1h1v-1h-1zm2 0v1h1v-1h-1zm-13 2v1h1v-1h-1zm3 0c-0.554 0-1 0.446-1 1v2h10v-2c0-0.554-0.446-1-1-1h-8zm10 0v1h1v-1h-1zm-13 2c0 0.554 0.446 1 1 1v-1h-1zm13 0v1c0.554 0 1-0.446 1-1h-1z" fill="#bebebe"/>
</svg>
