<svg width="16" height="16" version="1.1" xmlns="http://www.w3.org/2000/svg">
	<path d="m4 1 1 2-3-1 1 2-1 1h2l1-1 1 1 1-1 2 1v-1l3 1-1-1h2l-1-1v-2l-2 2v-1h-2l-1-1-1 1-2-1zm-2 5c-1.0824 2.5367-1.5654 5.0531 0 7.5 0.44782 0.70002 0.669 1.5 1.5 1.5h8c0.831 0 1.0522-0.79998 1.5-1.5 1.5654-2.4469 1.0824-4.9633 0-7.5h-11zm2.5 1c0.277 0 0.5 0.223 0.5 0.5v5c0 0.277-0.223 0.5-0.5 0.5s-0.5-0.223-0.5-0.5v-5c0-0.277 0.223-0.5 0.5-0.5zm2 0c0.277 0 0.5 0.223 0.5 0.5v5c0 0.277-0.223 0.5-0.5 0.5s-0.5-0.223-0.5-0.5v-5c0-0.277 0.223-0.5 0.5-0.5zm2 0c0.277 0 0.5 0.223 0.5 0.5v5c0 0.277-0.223 0.5-0.5 0.5s-0.5-0.223-0.5-0.5v-5c0-0.277 0.223-0.5 0.5-0.5zm2 0c0.277 0 0.5 0.223 0.5 0.5v5c0 0.277-0.223 0.5-0.5 0.5s-0.5-0.223-0.5-0.5v-5c0-0.277 0.223-0.5 0.5-0.5z" fill="#bebebe"/>
</svg>
