<svg width="16" height="16" version="1.1" xmlns="http://www.w3.org/2000/svg">
	<path d="m5 1c-0.554 0-1 0.446-1 1v1h-2c-0.554 0-1 0.446-1 1v1h13v-1c0-0.554-0.446-1-1-1h-2v-1c0-0.554-0.446-1-1-1h-5zm1 1h3v1h-3v-1zm-4 4v7.5c0 0.831 0.669 1.5 1.5 1.5h8c0.831 0 1.5-0.669 1.5-1.5v-7.5h-11zm2.5 1c0.277 0 0.5 0.223 0.5 0.5v5c0 0.277-0.223 0.5-0.5 0.5s-0.5-0.223-0.5-0.5v-5c0-0.277 0.223-0.5 0.5-0.5zm2 0c0.277 0 0.5 0.223 0.5 0.5v5c0 0.277-0.223 0.5-0.5 0.5s-0.5-0.223-0.5-0.5v-5c0-0.277 0.223-0.5 0.5-0.5zm2 0c0.277 0 0.5 0.223 0.5 0.5v5c0 0.277-0.223 0.5-0.5 0.5s-0.5-0.223-0.5-0.5v-5c0-0.277 0.223-0.5 0.5-0.5zm2 0c0.277 0 0.5 0.223 0.5 0.5v5c0 0.277-0.223 0.5-0.5 0.5s-0.5-0.223-0.5-0.5v-5c0-0.277 0.223-0.5 0.5-0.5z" fill="#bebebe"/>
</svg>
