<svg width="16" height="16" version="1.1" xmlns="http://www.w3.org/2000/svg">
	<path d="m8 2c-3.866 0-7 2.4101-7 6 0 3.59 3.134 6 7 6 1.065 0 2.065-0.23 2.969-0.625l4.031 1.625-1.438-3.562c0.904-1.095 1.438-1.9524 1.438-3.438 0-3.5899-3.134-6-7-6zm0 2c2.761 0 5 1.7909 5 4 0 2.209-2.239 4-5 4-2.7614 0-5-1.791-5-4 0-2.2091 2.2386-4 5-4zm0 1c-0.554 0-1 0.4447-1 0.998v3.004c0 0.5533 0.446 0.998 1 0.998h2c0.554 0 1-0.4447 1-0.998 0-0.5534-0.446-1-1-1h-1v-2.004c0-0.5533-0.446-0.998-1-0.998z" fill="#bebebe"/>
</svg>
