<svg width="16" height="16" version="1.1" xmlns="http://www.w3.org/2000/svg">
	<path fill="#bebebe" d="m2 1c-0.554 0-1 0.446-1 1v13h2 12v-13c0-0.554-0.446-1-1-1h-12zm6 1h1v1h-1v-1zm2 0h1v1h-1v-1zm2 0h1v1h-1v-1zm-9 2h10v9h-10v-9zm6.5137 1a0.50005 0.50005 0 0 0 -0.4883 0.3418l-1.6758 5.0292-1.4336-2.1483a0.50005 0.50005 0 0 0 -0.416 -0.2227h-1-0.5v1h0.5 0.7324l1.8516 2.777a0.50005 0.50005 0 0 0 0.8906 -0.119l1.457-4.3709 0.5844 2.334a0.50005 0.50005 0 0 0 0.484 0.3789h1 0.5v-1h-0.5-0.609l-0.9066-3.6211a0.50005 0.50005 0 0 0 -0.4707 -0.3789z"/>
</svg>
