<svg width="16" height="16" version="1.1" xmlns="http://www.w3.org/2000/svg">
 <path d="m2.3848 3c-0.2131 0-0.3848 0.1691-0.3848 0.3789v1.2422c0 0.2098 0.1717 0.3789 0.3848 0.3789h2.2304c0.2131 0 0.3848-0.1691 0.3848-0.3789v-1.2422c0-0.2098-0.1717-0.3789-0.3848-0.3789h-2.2304zm4.6152 0v2h6v-2h-6zm-4.6152 4c-0.2131 0-0.3848 0.1691-0.3848 0.3789v1.2422c0 0.2098 0.1717 0.3789 0.3848 0.3789h2.2304c0.2131 0 0.3848-0.1691 0.3848-0.3789v-1.2422c0-0.2098-0.1717-0.3789-0.3848-0.3789h-2.2304zm4.6152 0v2h6v-2h-6zm-4.6152 4c-0.2131 0-0.3848 0.169-0.3848 0.379v1.242c0 0.21 0.1717 0.379 0.3848 0.379h2.2304c0.2131 0 0.3848-0.169 0.3848-0.379v-1.242c0-0.21-0.1717-0.379-0.3848-0.379h-2.2304zm4.6152 0v2h6v-2h-6z" fill="#bebebe"/>
</svg>
