<svg width="16" height="16" version="1.1" xmlns="http://www.w3.org/2000/svg">
	<path d="m2.25 3c-0.1385 0-0.25 0.1115-0.25 0.25v1.5c0 0.1385 0.1115 0.25 0.25 0.25h3.5c0.1385 0 0.25-0.1115 0.25-0.25v-1.5c0-0.1385-0.1115-0.25-0.25-0.25h-3.5zm8 0c-0.1385 0-0.25 0.1115-0.25 0.25v1.5c0 0.1385 0.1115 0.25 0.25 0.25h3.5c0.1385 0 0.25-0.1115 0.25-0.25v-1.5c0-0.1385-0.1115-0.25-0.25-0.25h-3.5zm-8 4c-0.1385 0-0.25 0.1115-0.25 0.25v1.5c0 0.1385 0.1115 0.25 0.25 0.25h3.5c0.1385 0 0.25-0.1115 0.25-0.25v-1.5c0-0.1385-0.1115-0.25-0.25-0.25h-3.5zm8 0c-0.1385 0-0.25 0.1115-0.25 0.25v1.5c0 0.1385 0.1115 0.25 0.25 0.25h3.5c0.1385 0 0.25-0.1115 0.25-0.25v-1.5c0-0.1385-0.1115-0.25-0.25-0.25h-3.5zm-8 4c-0.1385 0-0.25 0.1115-0.25 0.25v1.5c0 0.1385 0.1115 0.25 0.25 0.25h3.5c0.1385 0 0.25-0.1115 0.25-0.25v-1.5c0-0.1385-0.1115-0.25-0.25-0.25h-3.5zm8 0c-0.1385 0-0.25 0.1115-0.25 0.25v1.5c0 0.1385 0.1115 0.25 0.25 0.25h3.5c0.1385 0 0.25-0.1115 0.25-0.25v-1.5c0-0.1385-0.1115-0.25-0.25-0.25h-3.5z" fill="#bebebe"/>
</svg>
