<svg width="16" height="16" version="1.1" xmlns="http://www.w3.org/2000/svg">
	<path fill="#bebebe" d="m3.5 1c-.2078 0-.4142.0493-.5938.125-.0646.0277-.1282.0576-.1874.0938-.1284.0778-.2447.1696-.3438.2812-.0191.0220-.0447.0393-.0625.0625-.0885.1122-.1337.2401-.1875.3750-.0124.0316-.0210.0611-.0312.0937-.0476.1464-.0938.3061-.0938.4688v0.5 10 0.5c0 .163.0462.322.0938.469.0102.032.0189.062.0312.093.0538.135.0990.263.1875.376.0178.023.0434.040.0625.062.0832.094.1771.180.2812.250.0194.013.0426.019.0626.031.2266.138.4955.219.7812.219h0.5 5v-2h-4.5c-.2770 0-0.5-.223-0.5-0.5v-9c0-.277.2230-0.5 0.5-0.5h4.5 1.5.020c.267.0108.480.2265.480.4961v1.498 1.0059h-2l3 4 3-4h-2v-1.0059-1.9941-0.5-.0020c0-.3237-.104-.6227-.277-.8671-.014-.0216-.020-.0482-.035-.0684-.020-.0230-.044-.0407-.063-.0625-.010-.0118-.025-.0179-.035-.0293-.083-.0880-.177-.1647-.279-.2305-.042-.0263-.085-.0482-.129-.0703-.104-.0529-.213-.0951-.328-.1230-.015-.0034-.027-.0126-.042-.0157-.003-.0006-.006.0006-.009 0-.098-.0198-.199-.0312-.303-.0312h-0.5-6-1-0.5z"/>
</svg>
