<svg width="16" height="16" version="1.1" xmlns="http://www.w3.org/2000/svg">
	<path fill="#bebebe" d="m1 3v2.5c0-.277.223-.5.5-.5h4c.277 0 .5.223.5.5v6c0 .277-.223.5-.5.5h-4c-.277 0-.5-.223-.5-.5v2.5h5.5c.831 0 1.5-.669 1.5-1.5v-8c0-.831-.669-1.5-1.5-1.5h-5.5zm9.5 0c-.8310 0-1.5.669-1.5 1.5v8c0 .831.6690 1.5 1.5 1.5h4.518v-2h-3.518c-.277 0-0.5-.223-0.5-.5v-6c0-.277.223-.5 0.5-.5h3.518v-2h-4.518zm-8.5 3v1h3v-1h-3zm10 0v1h3v-1h-3zm-10 2v1h3v-1h-3zm10 0v1h3v-1h-3zm-10 2v1h3v-1h-3zm10 0v1h3v-1h-3z"/>
</svg>
