<svg width="16" height="16" version="1.1" xmlns="http://www.w3.org/2000/svg">
 <path d="m3.3848 3c-0.2131 0-0.3848 0.1691-0.3848 0.3789v1.2422c0 0.2098 0.1717 0.3789 0.3848 0.3789h1.2304c0.2131 0 0.3848-0.1691 0.3848-0.3789v-1.2422c0-0.2098-0.1717-0.3789-0.3848-0.3789h-1.2304zm4 0c-0.2131 0-0.3848 0.1691-0.3848 0.3789v1.2422c0 0.2098 0.1717 0.3789 0.3848 0.3789h1.2304c0.2131 0 0.3848-0.1691 0.3848-0.3789v-1.2422c0-0.2098-0.1717-0.3789-0.3848-0.3789h-1.2304zm4.0002 0c-0.213 0-0.385 0.1691-0.385 0.3789v1.2422c0 0.2098 0.172 0.3789 0.385 0.3789h1.23c0.213 0 0.385-0.1691 0.385-0.3789v-1.2422c0-0.2098-0.172-0.3789-0.385-0.3789h-1.23zm-8.0002 4c-0.2131 0-0.3848 0.1691-0.3848 0.3789v1.2422c0 0.2098 0.1717 0.3789 0.3848 0.3789h1.2304c0.2131 0 0.3848-0.1691 0.3848-0.3789v-1.2422c0-0.2098-0.1717-0.3789-0.3848-0.3789h-1.2304zm4 0c-0.2131 0-0.3848 0.1691-0.3848 0.3789v1.2422c0 0.2098 0.1717 0.3789 0.3848 0.3789h1.2304c0.2131 0 0.3848-0.1691 0.3848-0.3789v-1.2422c0-0.2098-0.1717-0.3789-0.3848-0.3789h-1.2304zm4.0002 0c-0.213 0-0.385 0.1691-0.385 0.3789v1.2422c0 0.2098 0.172 0.3789 0.385 0.3789h1.23c0.213 0 0.385-0.1691 0.385-0.3789v-1.2422c0-0.2098-0.172-0.3789-0.385-0.3789h-1.23zm-8.0002 4c-0.2131 0-0.3848 0.169-0.3848 0.379v1.242c0 0.21 0.1717 0.379 0.3848 0.379h1.2304c0.2131 0 0.3848-0.169 0.3848-0.379v-1.242c0-0.21-0.1717-0.379-0.3848-0.379h-1.2304zm4 0c-0.2131 0-0.3848 0.169-0.3848 0.379v1.242c0 0.21 0.1717 0.379 0.3848 0.379h1.2304c0.2131 0 0.3848-0.169 0.3848-0.379v-1.242c0-0.21-0.1717-0.379-0.3848-0.379h-1.2304zm4.0002 0c-0.213 0-0.385 0.169-0.385 0.379v1.242c0 0.21 0.172 0.379 0.385 0.379h1.23c0.213 0 0.385-0.169 0.385-0.379v-1.242c0-0.21-0.172-0.379-0.385-0.379h-1.23z" fill="#bebebe"/>
</svg>
