<svg width="16" height="16" version="1.1" xmlns="http://www.w3.org/2000/svg">
	<path fill="#bebebe" d="m4.5 1c-0.104 0-0.2047 0.0114-0.3027 0.0312-0.003 0.0006-0.00677-0.0006-0.00977 0-0.015 0.0031-0.026016 0.012225-0.041016 0.015625-0.115 0.0279-0.22412 0.070147-0.32812 0.12305-0.044 0.0221-0.086906 0.044013-0.12891 0.070312-0.102 0.0658-0.1963 0.14247-0.2793 0.23047-0.01 0.0114-0.0252 0.0175-0.0352 0.0293-0.019 0.0218-0.0425 0.0395-0.0625 0.0625-0.015 0.0202-0.0212 0.0468-0.0352 0.0684-0.173 0.2444-0.2773 0.5434-0.2773 0.8671v0.002 0.5 1.9941 1.0059h-2l3 4 3-4h-2v-1.0059-1.498c0-0.2696 0.2135-0.4853 0.4805-0.4961h0.0195 1.5 4.5c0.277 0 0.5 0.223 0.5 0.5v9c0 0.277-0.223 0.5-0.5 0.5h-4.5v2h5 0.5c0.286 0 0.55525-0.08075 0.78125-0.21875 0.02-0.012 0.0431-0.01825 0.0625-0.03125 0.1041-0.07 0.19805-0.156 0.28125-0.25 0.0191-0.022 0.0447-0.0395 0.0625-0.0625 0.0885-0.113 0.1337-0.24 0.1875-0.375 0.0123-0.031 0.02105-0.06175 0.03125-0.09375 0.048-0.147 0.094-0.306 0.094-0.469v-0.5-10-0.5c0-0.1627-0.046-0.3224-0.094-0.4688-0.01-0.0326-0.019-0.0621-0.031-0.0937-0.054-0.1349-0.099-0.2628-0.187-0.375-0.018-0.0232-0.044-0.0405-0.063-0.0625-0.099-0.1116-0.215-0.2034-0.344-0.2812-0.059-0.0362-0.123-0.0661-0.187-0.0938-0.18-0.0757-0.386-0.125-0.594-0.125h-0.5-1-6-0.5z"/>
</svg>
