<svg width="16" height="16" version="1.1" xmlns="http://www.w3.org/2000/svg">
	<path fill="#bebebe" d="m7.5 1c-2.3358 0-4.2462 1.7852-4.4688 4.0625-1.154.2214-2.0312 1.2188-2.0312 2.4375 0 1.3807 1.1193 2.5 2.5 2.5h1.5c0-1.0472.9528-2 2-2s2 .9528 2 2h1 1.5c1.933 0 3.5-1.567 3.5-3.5s-1.567-3.5-3.5-3.5c-.084 0-.167.0254-.250.0312-.803-1.2284-2.1725-2.0312-3.75-2.0312zm-.5 8a1 1 0 0 0 -1 1 1 1 0 0 0 1 1 1 1 0 0 0 1 -1 1 1 0 0 0 -1 -1zm3 2a1 1 0 0 0 -1 1 1 1 0 0 0 1 1 1 1 0 0 0 1 -1 1 1 0 0 0 -1 -1zm-4 2a1 1 0 0 0 -1 1 1 1 0 0 0 1 1 1 1 0 0 0 1 -1 1 1 0 0 0 -1 -1z"/>
</svg>
