<svg width="16" height="16" version="1.1" xmlns="http://www.w3.org/2000/svg">
	<path fill="#bebebe" d="m6.9688 1c-3.2887.0195-5.9688 2.7072-5.9688 6 0 2.616 1.6877 4.839 4.0312 5.656-.0024-.053 0-.103 0-.156 0-.475.0994-.911.2813-1.312-1.6502-.666-2.8125-2.293-2.8125-4.188 0-1.9849 1.2865-3.586 3.0625-4.1875-0.19.5321-.3125 1.0881-.3125 1.6875 0 1.9639 1.1108 3.6392 2.7188 4.531.2793-.4082.6174-.7864 1-1.0935-1.312-.5823-2.2188-1.903-2.2188-3.4375 0-.8557.3123-1.6362.8125-2.2812l.9375-1.2188h-1.5312zm4.5312 7c-1.409 0-2.6015.8307-3.1562 2.031-1.3052.084-2.3438 1.143-2.3438 2.469 0 1.381 1.1193 2.5 2.5 2.5h3c1.933 0 3.5-1.567 3.5-3.5s-1.567-3.5-3.5-3.5z"/>
</svg>
