<svg width="16" height="16" version="1.1" xmlns="http://www.w3.org/2000/svg">
	<path fill="#bebebe" d="m7.5 1c-2.3358 0-4.2462 1.7852-4.4688 4.0625-1.154.2214-2.0312 1.2188-2.0312 2.4375 0 1.1024.7186 2.0269 1.709 2.3594.1347-.3252.3117-.6002.4726-.8301.3061-.4373.6172-.7422.6172-.7422a1.0001 1.0001 0 0 1 .6778 -.2871 1.0001 1.0001 0 0 1 .7246 .2871s.3132.3049.6191.7422c.1826.2610.3806.5850.5176.9707h1.1621 1.7051c.2976-.4181.5937-.7129.5937-.7129a1.0001 1.0001 0 0 1 .6782 -.2871 1.0001 1.0001 0 0 1 .724 .2871s.285.2851.574.6856c1.802-.1429 3.225-1.6341 3.225-3.4727 0-1.933-1.567-3.5-3.5-3.5-.084 0-.167.0254-.250.0312-.803-1.2284-2.1725-2.0312-3.75-2.0312zm-3 8s-1 .983-1 1.875c0 .652.4357 1.125 1 1.125.5605 0 1-.477 1-1.125 0-.891-1-1.875-1-1.875zm6 1s-1 .983-1 1.875c0 .652.4357 1.125 1 1.125.56 0 1-.477 1-1.125 0-.891-1-1.875-1-1.875zm-3 2s-1 .983-1 1.875c0 .652.4357 1.125 1 1.125.5605 0 1-.477 1-1.125 0-.891-1-1.875-1-1.875z"/>
</svg>
