<svg width="16" height="16" version="1.1" xmlns="http://www.w3.org/2000/svg">
	<path d="m8 1c-.554 0-1 .446-1 1v1c0 .554.446 1 1 1s1-.446 1-1v-1c0-.554-.446-1-1-1zm-4.2422 1.7559c-.2556 0-.5112.0990-.7070.2949-.3918.3917-.3918 1.0223 0 1.414l.7070.7071c.3917.3917 1.0223.3917 1.4141 0 .3917-.3918.3917-1.0224 0-1.4141l-.7071-.7070c-.1958-.1959-.4514-.2949-.7070-.2949zm8.4842 0c-.255 0-.511.0990-.707.2949l-.707.7070c-.392.3917-.392 1.0223 0 1.4141.392.3917 1.022.3917 1.414 0l.707-.7071c.392-.3917.392-1.0223 0-1.414-.196-.1959-.451-.2949-.707-.2949zm-4.199 2.2441a3 3 0 0 0 -2.1641 .8789 3 3 0 0 0 4.2421 4.2421 3 3 0 0 0 -2.078 -5.121zm-6.043 2c-.554 0-1 .446-1 1s.446 1 1 1h1c.554 0 1-.446 1-1s-.446-1-1-1h-1zm11 0c-.554 0-1 .446-1 1s.446 1 1 1h1c.554 0 1-.446 1-1s-.446-1-1-1h-1zm-8.5352 3.535c-.2556 0-.5111.097-.7070.293l-.7070.707c-.3918.392-.3918 1.022 0 1.414.3917.392 1.0223.392 1.414 0l.7071-.707c.3917-.392.3917-1.022 0-1.414-.1959-.196-.4514-.293-.7071-.293zm7.0702 0c-.255 0-.511.097-.707.293-.392.392-.392 1.022 0 1.414l.707.707c.392.392 1.022.392 1.414 0s.392-1.022 0-1.414l-.707-.707c-.196-.196-.451-.293-.707-.293zm-3.535 1.465c-.554 0-1 .446-1 1v1c0 .554.446 1 1 1s1-.446 1-1v-1c0-.554-.446-1-1-1z" fill="#bebebe"/>
</svg>
