<svg width="16" height="16" version="1.1" xmlns="http://www.w3.org/2000/svg">
	<path fill="#bebebe" d="m7.5 1c-2.3358 0-4.2462 1.7852-4.4688 4.0625-1.154.2214-2.0312 1.2188-2.0312 2.4375 0 1.3807 1.1193 2.5 2.5 2.5h4 0.5v-2a1.0045 1.0045 0 0 1 .9062 -1 1.0045 1.0045 0 0 1 .0938 0h2a1.0045 1.0045 0 0 1 1 1v1.9688c1.699-.2402 3-1.7035 3-3.4688 0-1.933-1.567-3.5-3.5-3.5-.084 0-.167.0254-.250.0312-.803-1.2284-2.1725-2.0312-3.75-2.0312zm1.5 7v4h2v-4h-2zm0 5v2h2v-2h-2z"/>
	<path fill="#ff9000" d="m9 8v4h2v-4zm0 5v2h2v-2z" class="warning"/>
</svg>
