<svg width="16" height="16" version="1.1" xmlns="http://www.w3.org/2000/svg">
	<path d="m11.299 2.002c-.289-.0065-.590.0106-.903.0585-.8327.1280-1.7454.4549-2.689 1.1602-3.2445 2.4252-5.5449.0723-5.5449.0723a.67215 .87021 0 1 0 -.7832 1.3769s3.1604 2.9423 7 .0723c3.1671-2.3672 5.5451-.0352 5.5451-.0352a.68365 .88510 0 0 0 .785 -1.4511s-1.389-1.2086-3.41-1.2539zm0 4c-.289-.0065-.590.0106-.903.0585-.8327.1280-1.7454.4549-2.689 1.1602-3.2445 2.4252-5.5449.0723-5.5449.0723a.67215 .87021 0 1 0 -.7832 1.3769s3.1604 2.9421 7 .0723c3.1671-2.3672 5.5451-.0352 5.5451-.0352a.68365 .88510 0 0 0 .785 -1.4511s-1.389-1.2086-3.41-1.2539zm0 4c-.289-.0065-.590.011-.903.059-.8327.127-1.7454.454-2.689 1.16-3.2445 2.425-5.5449.072-5.5449.072a.67215 .87021 0 1 0 -.7832 1.377s3.1604 2.942 7 .072c3.1671-2.367 5.5451-.035 5.5451-.035a.68365 .88510 0 0 0 .785 -1.451s-1.389-1.209-3.41-1.254z" fill="#bebebe"/>
</svg>
