<svg width="16" height="16" version="1.1" xmlns="http://www.w3.org/2000/svg">
	<path d="m7.9688 2c-3.2887 0.0195-5.9688 2.7072-5.9688 6 0 3.3048 2.6952 6 6 6 2.604 0 4.8306-1.6743 5.6562-4l0.5-1.4688-1.4688 0.5c-0.392 0.1332-0.776 0.2188-1.187 0.2188-2.08 0-3.75-1.67-3.75-3.75 0-0.8557 0.3123-1.6362 0.8125-2.2812l0.9375-1.2188h-1.5312zm-1.4063 1.8125c-0.19 0.5321-0.3125 1.0881-0.3125 1.6875 0 2.8243 2.2629 5.114 5.0625 5.2188-0.82 1.008-1.9052 1.781-3.312 1.781-2.4942 0-4.5-2.006-4.5-4.5 0-1.9849 1.2865-3.586 3.0625-4.1875z" fill="#bebebe"/>
</svg>
