<svg width="16" height="16" version="1.1" xmlns="http://www.w3.org/2000/svg">
	<path fill="#bebebe" d="m7.5 1c-2.3358 0-4.2462 1.7852-4.4688 4.0625-1.154.2214-2.0312 1.2188-2.0312 2.4375 0 1.3807 1.1193 2.5 2.5 2.5h.7188l.8105-3.2422a1.0001 1.0001 0 0 1 .9707 -.7578h3a1.0001 1.0001 0 0 1 .8945 1.4473l-.2773.5527h.3828a1.0001 1.0001 0 0 1 .832 1.5547l-.297.4453h.965c1.933 0 3.5-1.567 3.5-3.5s-1.567-3.5-3.5-3.5c-.084 0-.167.0254-.250.0312-.803-1.2284-2.1725-2.0312-3.75-2.0312zm-1.5 6l-1 4h2l-1 4 4-6h-2l1-2h-3z"/>
</svg>
