<svg width="16" height="16" version="1.1" xmlns="http://www.w3.org/2000/svg">
	<path fill="#bebebe" d="m8 1c-.554 0-1 .446-1 1v1c0 .554.446 1 1 1s1-.446 1-1v-1c0-.5540-.446-1-1-1zm-4.2422 1.7559c-.2556 0-.5112.0990-.7070.2949-.3918.3917-.3918 1.0223 0 1.414l.7070.7071c.3917.3917 1.0223.3917 1.4141 0 .3917-.3918.3917-1.0224 0-1.4141l-.7071-.7070c-.1958-.1959-.4514-.2949-.7070-.2949zm8.4842 0c-.255 0-.511.0990-.707.2949l-.707.7070c-.392.3917-.392 1.0223 0 1.4141.392.3917 1.022.3917 1.414 0l.707-.7071c.392-.3917.392-1.0223 0-1.414-.196-.1959-.451-.2949-.707-.2949zm-4.199 2.2441a3 3 0 0 0 -2.1641 .8789 3 3 0 0 0 .1582 4.3261c.4596-.4226 1.0323-.7373 1.6641-.9023 0.67-1.1564 1.7852-2.0317 3.1448-2.248a3 3 0 0 0 -2.803 -2.0547zm-6.043 2c-.554 0-1 .4460-1 1s.446 1 1 1h1c.554 0 1-.4460 1-1s-.446-1-1-1h-1zm11 0c-.173 0-.327.0545-.469.1309.908.2159 1.703.7099 2.307 1.3847.094-.1525.162-.3226.162-.5156 0-.5540-.446-1-1-1h-1zm-1.5 1c-1.409 0-2.6016.8310-3.1562 2.031-1.3052.084-2.3438 1.143-2.3438 2.469 0 1.381 1.1193 2.5 2.5 2.5h3c1.933 0 3.5-1.567 3.5-3.5s-1.567-3.5-3.5-3.5zm-7.0352 2.535c-.2556 0-.5111.097-.7070.293l-.7070.707c-.3918.392-.3918 1.022 0 1.414.3917.392 1.0223.392 1.414 0l.5450-.545c.0146-.479.1387-.915.3418-1.306-.0473-.096-.1002-.190-.1797-.270-.1959-.196-.4514-.293-.7071-.293z"/>
</svg>
