<svg width="16" height="16" version="1.1" xmlns="http://www.w3.org/2000/svg">
	<path d="m8 1c-3.866 0-7 3.134-7 7 0.0025 1.0136 0.22508 2.0145 0.65234 2.9336l1.5469-1.5469c-0.13116-0.4506-0.19822-0.91744-0.19922-1.3867 0-0.043467 0.0047567-0.085705 0.0058594-0.12891 0.02029 0.036538 0.056641 0.097656 0.056641 0.097656l0.375 0.25 0.4375 0.125 0.125 0.1875 0.033203 0.021484 0.15234-0.15234-0.029297-0.11914v-0.21875l-0.21875 0.03125c0.0202-0.1516 0.0422-0.31725 0.0625-0.46875l-0.125 0.03125-0.15625 0.15625-0.125 0.03125-0.1875-0.09375v-0.21875l0.03125-0.28125 0.28125-0.1875 0.21875-0.03125 0.0625-0.125 0.28125 0.0625 0.1875 0.28125 0.03125-0.4375 0.375-0.28125 0.15625-0.34375 0.28125-0.09375 0.125-0.25 0.34375-0.0625 0.1875-0.25h-0.5l0.28125-0.125h0.25l0.3125-0.125 0.0625-0.125-0.125-0.125-0.125-0.03125 0.03125-0.125-0.09375-0.1875-0.21875 0.0625 0.03125-0.1875-0.28125-0.125-0.1875 0.34375v0.15625l-0.21875 0.09375-0.125 0.28125-0.03125-0.28125-0.40625-0.15625-0.03125-0.1875 0.46875-0.25 0.21875-0.21875 0.03125-0.25-0.125-0.0625h-0.046875c0.72599-0.50829 1.5895-0.82891 2.5273-0.89062l-0.09375 0.011719-0.70703 0.19922-0.13281 0.13281 0.44336 0.28711v0.17578l-0.17773 0.17773 0.2207 0.46484 0.1543-0.089844 0.19922-0.30859c0.2957-0.0914 0.5608-0.20203 0.8418-0.33203l0.2207-0.57422-0.35742-0.14648c0.46117 0.02552 0.89689 0.1293 1.3164 0.27148l-0.12695 0.027344-0.28125 0.1875v0.125l-0.375 0.28125 0.0625 0.34375 0.25-0.15625 0.15625 0.15625 0.15625 0.09375 0.09375-0.28125-0.0625-0.15625 0.0625-0.09375 0.25-0.21875h0.09375l-0.09375 0.21875v0.21875c0.0954-0.026 0.18415-0.0505 0.28125-0.0625l-0.28125 0.1875v0.125l-0.3125 0.25-0.3125-0.0625v-0.1875l-0.15625 0.09375 0.0625 0.15625h-0.21875l-0.15625 0.21875-0.15625 0.1875-0.28125 0.0625 0.1875 0.15625 0.03125 0.15625h-0.21875l-0.25 0.15625v0.40625h0.125l0.125 0.125 0.25-0.125 0.09375-0.25 0.1875-0.125 0.0625-0.09375 0.3125-0.0625 0.15625 0.1875 0.15625 0.09375-0.09375 0.21875 0.1875-0.0625 0.0625-0.21875-0.1875-0.21875h0.0625l0.21875 0.15625 0.0625 0.25 0.15625 0.21875 0.0625-0.3125 0.09375-0.0625c0.102 0.1065 0.19425 0.255 0.28125 0.375h0.3125l0.21875 0.75c-0.096 0.088-0.18325 0.1644-0.28125 0.25h-0.25l-0.375-0.09375h-0.15625l-0.15625 0.1875-0.375-0.40625-0.25-0.0625-0.40625 0.0625-0.5 0.1875c-0.070776 0.080212-0.10992 0.14017-0.15625 0.20117v1.7539c0.12528 0.1395 0.25042 0.27867 0.375 0.41992l0.28125-0.21875 0.125 0.125 0.25-0.1875 0.09375 0.125h0.28125l0.1875 0.15625-0.125 0.34375 0.21875 0.21875-0.03125 0.375 0.15625 0.28125-0.09375 0.25c-0.0102 0.172-0.03125 0.35825-0.03125 0.53125 0.0851 0.234 0.13835 0.4515 0.21875 0.6875l0.09375 0.40625v0.15625h0.125l0.25-0.125h0.056641c-0.72276 0.40585-1.5437 0.65625-2.4316 0.65625v1c-1.558e-4 0.44083-0.28893 0.82957-0.71094 0.95703 0.2361 0.026378 0.47338 0.040719 0.71094 0.042969 3.866 0 7-3.134 7-7s-3.134-7-7-7zm2.2188 2.5625h0.039062c0.11497 0.05869 0.23023 0.11648 0.33984 0.18359l-0.097656 0.097656-0.28125-0.28125zm-5.248 0.48438l-0.033203 0.078125s-0.055468 0.019384-0.10156 0.035156c0.045284-0.03737 0.088164-0.077496 0.13477-0.11328zm7.5059 1.7676c0.068994 0.14086 0.1337 0.28177 0.18945 0.42969-0.060293-0.15277-0.12454-0.29207-0.18945-0.42969zm-0.41406 1.123l0.21875 0.21875h0.21875c0.109 0.0988 0.2175 0.2 0.3125 0.3125l0.13477-0.1582c0.031216 0.22584 0.052734 0.45503 0.052734 0.68945 0 1.729-0.87883 3.2525-2.2129 4.1504l0.27539-0.27539-0.0625-0.15625 0.25-0.25-0.1875-0.1875 0.25-0.21875 0.21875-0.125 0.09375-0.125-0.0625-0.25v-0.65625l0.21875-0.40625 0.1875-0.28125 0.28125-0.59375v-0.15625c-0.117 0.014-0.26 0.02225-0.375 0.03125l0.25-0.25 0.34375-0.25 0.1875-0.21875v-0.21875c-0.041-0.0784-0.083-0.14055-0.125-0.21875l-0.15625 0.1875-0.125-0.15625-0.1875-0.125v-0.3125zm-5.0625 0.0625l-5 5h2.2227l-1.1543 2c-0.1385 0.23989-0.058247 0.54314 0.18164 0.68164l0.43359 0.25c0.23989 0.1385 0.54509 0.058249 0.68359-0.18164l1.2383-2.1445 1.3945 1.3945v-7z" fill="#bebebe"/>
</svg>
