<svg width="16" height="16" version="1.1" xmlns="http://www.w3.org/2000/svg">
	<path d="m3 4-2 8h2l0.375-1.5h2.25l0.375 1.5h2l-2-8h-2zm1.5 2 0.75 3h-1.5zm7.4707 0c-0.4095 0-0.81903 0.025072-1.2285 0.076172-0.4095 0.0476-0.81662 0.11964-1.2227 0.21484v1.3926c0.3001-0.1564 0.62511-0.27326 0.97461-0.35156 0.3496-0.0782 0.72682-0.11719 1.1328-0.11719 0.501 0 0.86944 0.06713 1.1055 0.20312 0.237 0.1326 0.27148 0.34361 0.27148 0.63281v0.14258h-1.0332c-1.0238 0-1.7757 0.1577-2.2559 0.4707-0.4766 0.3129-0.71484 0.80422-0.71484 1.4746 0 0.551 0.19097 0.9977 0.57227 1.3438 0.3848 0.344 0.8839 0.51758 1.498 0.51758 0.4555 0 0.84292-0.07837 1.1602-0.23438 0.318-0.161 0.51944-0.41277 0.77344-0.75977v0.99414h1.9961v-3.4082c0-0.9149-0.23784-1.5757-0.71484-1.9805-0.473-0.4081-1.2452-0.61133-2.3145-0.61133zm0.13281 3.2812h0.90039v0.20898c0 0.3708-0.03825 0.67973-0.28125 0.92773-0.244 0.245-0.54369 0.36719-0.90039 0.36719-0.286 0-0.50948-0.06436-0.67188-0.19336-0.1589-0.133-0.23828-0.31392-0.23828-0.54492 0-0.2518 0.09916-0.44307 0.29688-0.57227 0.2012-0.1292 0.49863-0.19336 0.89453-0.19336z" fill="#bebebe"/>
</svg>
