<svg width="16" height="16" version="1.1" xmlns="http://www.w3.org/2000/svg">
	<path d="m8.9998 3.0001v2h0.99999v0.65234c0 0.19236-0.15529 0.34766-0.34766 0.34766h-0.65234v0.99999h0.99999c0.554 0 0.99999-0.446 0.99999-0.99999v-3zm3 0v2h0.99999v0.65234c0 0.19236-0.15529 0.34766-0.34766 0.34766h-0.65234v0.99999h0.99999c0.554 0 0.99999-0.446 0.99999-0.99999v-3zm-8.9999 6c-0.554 0-0.99999 0.446-0.99999 0.99999v3h2v-2h-0.99999v-0.65234c0-0.19236 0.15529-0.34766 0.34766-0.34766h0.65234v-0.99999zm3 0c-0.554 0-0.99999 0.446-0.99999 0.99999v3h2v-2h-0.99999v-0.65234c0-0.19236 0.15529-0.34766 0.34766-0.34766h0.65234v-0.99999z" fill="#bebebe"/>
</svg>
