<svg width="16" height="16" version="1.1" xmlns="http://www.w3.org/2000/svg">
	<path d="m6.035 1c-1.2841 0-2.5873.52446-3.5664 1.5059-1.9581 1.9628-1.9581 5.1231 0 7.0859 1.5502 1.5539 3.8558 1.8791 5.7246.97266.04918-.02385.10771-.06819.15625-.09375.30337-.12010 1.0677-.34144 1.4707.0625.29890.29962.199.70182.65625 1.1602l3.0664 3.041c.0032-.0032.58978.59914 1.1875 0 .60003-.60146.0087-1.1804 0-1.1914l-3.0332-3.0723c-.45725-.45834-.82805-.36054-1.127-.66016-.49278-.49396-.02944-1.5034 0-1.5664.904-1.8745.582-4.1856-.9686-5.7395-.9791-.9814-2.2823-1.5059-3.5664-1.5059zm0 1.2852c2.0769 0 3.7539 1.6818 3.7539 3.7637s-1.677 3.7617-3.7539 3.7617c-2.0769 2e-7-3.7539-1.6799-3.7539-3.7617 6e-7-2.0819 1.677-3.7637 3.7539-3.7637zm-3.0664 2.7148v2h6.0313v-2z" fill="#bebebe"/>
</svg>
