<svg width="16" height="16" version="1.1" xmlns="http://www.w3.org/2000/svg">
	<path d="m6.0352 1c-1.2842 0-2.5874.5245-3.5664 1.5059-1.9582 1.9628-1.9582 5.1231 0 7.0859 1.5501 1.5542 3.8557 1.8792 5.7246.9722.0491-.023.1077-.068.1562-.093.3034-.120 1.0677-.342 1.4707.062.2987 0.3.1987.702.6567 1.16l3.066 3.041c.003-.003.590 0.6 1.187 0 0.6-.601.009-1.18 0-1.191l-3.033-3.072c-.457-.459-.828-.361-1.127-.6605-.492-.4939-.029-1.5034 0-1.5664.905-1.8733.582-4.1844-.9684-5.7382-.9791-.9814-2.2823-1.5059-3.5664-1.5059zm0 1.2852c2.0769 0 3.7539 1.6818 3.7539 3.7636 0 2.0819-1.677 3.7617-3.7539 3.7617-2.077 0-3.754-1.6798-3.754-3.7617.0001-2.0818 1.677-3.7636 3.754-3.7636zm-1.0372.7148l.0040 2h-2.0332v2h2.0332v2h2.0019v-2h1.9961v-2h-1.9961l-.0019-2h-2.004z" fill="#bebebe"/>
</svg>
