<svg width="16" height="16" version="1.1" xmlns="http://www.w3.org/2000/svg">
	<path d="m6.0312.98438c-1.2841 0-2.5834.51862-3.5624 1.5-1.9582 1.9628-1.9582 5.1309 0 7.0937 1.5501 1.5539 3.8498 1.8749 5.7187.9689.0492-.024.1077-.068.1563-.094.3033-.120 1.0657-.341 1.4687.063.2985.299.1995.698.6565 1.156l3.062 3.062c.003-.003.590 0.6 1.188 0 0.6-.601.008-1.207 0-1.218l-3.031-3.063c-.458-.4582-.827-.357-1.126-.6561-.492-.4940-.029-1.4995 0-1.5625.905-1.8733.582-4.1961-.9682-5.75-.9791-.9814-2.2784-1.5-3.5626-1.5zm0 1.2812c2.077 0 3.75 1.6994 3.75 3.7813 0 2.0818-1.673 3.75-3.75 3.75-2.0769 0-3.75-1.6682-3.75-3.75.0001-2.0819 1.6731-3.7813 3.75-3.7813zm-1.0312.7344c.0771 1.0764-.7790.9669-1 1v1h1v4h2v-6h-2z" fill="#bebebe"/>
</svg>
