<svg width="16" height="16" version="1.1" xmlns="http://www.w3.org/2000/svg">
	<path fill="#bebebe" d="m6.0352.99805v.00195c-1.2841 0-2.5874.5244-3.5664 1.5059-1.9582 1.9628-1.9582 5.1231 0 7.0859 1.5502 1.5542 3.8558 1.8792 5.7246.9722.0491-.023.1077-.068.1562-.093.3034-.120 1.0677-.342 1.4707.062.2987 0.3.1987.702.6567 1.16l3.066 3.041c.003-.003.590 0.6 1.187 0 0.6-.601.009-1.18 0-1.191l-3.033-3.072c-.457-.459-.828-.361-1.127-.6605-.492-.4939-.029-1.5034 0-1.5664.904-1.8745.582-4.1863-.9684-5.7402-.9791-.9814-2.2823-1.5058-3.5664-1.5058zm3.2929.00195c.3478.2292.6779.4934.9809.7969.365.3665.658.7759.910 1.2031h.281c.277 0 0.5.2230 0.5 0.5v1.7031c.082.5794.086 1.1687 0 1.7481v2.5039c.136.0890.274.1779.406.3105a1.0001 1.0001 0 0 0 .002 .0020l1.592 1.6114v-8.879c0-.831-.669-1.5-1.5-1.5h-3.1719zm-3.2929 1.2852c2.0769 0 3.7539 1.6817 3.7539 3.7636s-1.677 3.7617-3.7539 3.7617-3.754-1.6799-3.754-3.7617c.0002-2.0819 1.6771-3.7636 3.754-3.7636zm-2.0352 1.9023c-.4435.4891-.7187 1.1361-.7188 1.8613 0 .7252.2754 1.3727.7188 1.8614v-3.7227zm-2 6.3145v2.998c0 .831.669 1.5 1.5 1.5h6.5 2.389l-2.016-2h-.373-5.5c-.277 0-0.5-.223-0.5-0.5v-.795c-.7232-.257-1.4006-.662-2-1.203z"/>
</svg>
